<ttFont>
<head>
    <!-- Most of this table will be recalculated by the compiler -->
    <tableVersion value="1.0"/>
    <fontRevision value="2.2"/>
    <checkSumAdjustment value="0xbd82cfe2"/>
    <magicNumber value="0x5f0f3cf5"/>
    <flags value="00000000 00000101"/>
    <unitsPerEm value="1000"/>
    <created value="Mon Jun 22 21:16:25 2020"/>
    <modified value="Mon Jun 22 22:24:59 2020"/>
    <xMin value="-211"/>
    <yMin value="-317"/>
    <xMax value="1433"/>
    <yMax value="1095"/>
    <macStyle value="00000000 00000010"/>
    <lowestRecPPEM value="9"/>
    <fontDirectionHint value="2"/>
    <indexToLocFormat value="0"/>
    <glyphDataFormat value="0"/>
  </head>
    <TTGlyph name=".notdef" xMin="0" yMin="-200" xMax="500" yMax="800">
      <contour>
        <pt x="0" y="-200" on="1"/>
        <pt x="0" y="800" on="1"/>
        <pt x="500" y="800" on="1"/>
        <pt x="500" y="-200" on="1"/>
      </contour>
      <contour>
        <pt x="250" y="360" on="1"/>
        <pt x="429" y="750" on="1"/>
        <pt x="71" y="750" on="1"/>
      </contour>
      <contour>
        <pt x="50" y="-76" on="1"/>
        <pt x="222" y="300" on="1"/>
        <pt x="50" y="676" on="1"/>
      </contour>
      <contour>
        <pt x="450" y="-76" on="1"/>
        <pt x="450" y="676" on="1"/>
        <pt x="278" y="300" on="1"/>
      </contour>
      <contour>
        <pt x="71" y="-150" on="1"/>
        <pt x="429" y="-150" on="1"/>
        <pt x="250" y="240" on="1"/>
      </contour>
    </TTGlyph>
    <TTGlyph name="A" xMin="-62" yMin="0" xMax="647" yMax="662">
      <contour>
        <pt x="-62" y="0" on="1"/>
        <pt x="-46" y="66" on="1"/>
        <pt x="25" y="66" on="1"/>
        <pt x="393" y="662" on="1"/>
        <pt x="494" y="662" on="1"/>
        <pt x="556" y="66" on="1"/>
        <pt x="647" y="66" on="1"/>
        <pt x="631" y="0" on="1"/>
        <pt x="331" y="0" on="1"/>
        <pt x="347" y="66" on="1"/>
        <pt x="451" y="66" on="1"/>
        <pt x="437" y="231" on="1"/>
        <pt x="207" y="231" on="1"/>
        <pt x="109" y="66" on="1"/>
        <pt x="192" y="66" on="1"/>
        <pt x="176" y="0" on="1"/>
      </contour>
      <contour>
        <pt x="241" y="289" on="1"/>
        <pt x="432" y="289" on="1"/>
        <pt x="408" y="565" on="1"/>
        <pt x="404" y="565" on="1"/>
      </contour>
    </TTGlyph>
    <TTGlyph name="AE" xMin="-74" yMin="0" xMax="1034" yMax="658">
      <contour>
        <pt x="-74" y="0" on="1"/>
        <pt x="-59" y="66" on="1"/>
        <pt x="16" y="66" on="1"/>
        <pt x="466" y="592" on="1"/>
        <pt x="368" y="592" on="1"/>
        <pt x="383" y="658" on="1"/>
        <pt x="1034" y="658" on="1"/>
        <pt x="981" y="444" on="1"/>
        <pt x="935" y="444" on="1"/>
        <pt x="932" y="488" on="0"/>
        <pt x="925" y="546" on="0"/>
        <pt x="906" y="579" on="0"/>
        <pt x="871" y="592" on="0"/>
        <pt x="841" y="592" on="1"/>
        <pt x="661" y="592" on="1"/>
        <pt x="605" y="366" on="1"/>
        <pt x="660" y="366" on="1"/>
        <pt x="688" y="366" on="0"/>
        <pt x="724" y="372" on="0"/>
        <pt x="751" y="393" on="0"/>
        <pt x="775" y="433" on="0"/>
        <pt x="790" y="467" on="1"/>
        <pt x="844" y="467" on="1"/>
        <pt x="779" y="205" on="1"/>
        <pt x="727" y="205" on="1"/>
        <pt x="732" y="274" on="0"/>
        <pt x="707" y="310" on="0"/>
        <pt x="654" y="310" on="1"/>
        <pt x="591" y="310" on="1"/>
        <pt x="530" y="66" on="1"/>
        <pt x="716" y="66" on="1"/>
        <pt x="748" y="66" on="0"/>
        <pt x="789" y="80" on="0"/>
        <pt x="824" y="117" on="0"/>
        <pt x="861" y="183" on="0"/>
        <pt x="887" y="234" on="1"/>
        <pt x="937" y="234" on="1"/>
        <pt x="879" y="0" on="1"/>
        <pt x="302" y="0" on="1"/>
        <pt x="317" y="66" on="1"/>
        <pt x="427" y="66" on="1"/>
        <pt x="471" y="241" on="1"/>
        <pt x="256" y="241" on="1"/>
        <pt x="110" y="66" on="1"/>
        <pt x="196" y="66" on="1"/>
        <pt x="181" y="0" on="1"/>
      </contour>
      <contour>
        <pt x="304" y="299" on="1"/>
        <pt x="485" y="299" on="1"/>
        <pt x="559" y="596" on="1"/>
        <pt x="551" y="596" on="1"/>
      </contour>
    </TTGlyph>
    <TTGlyph name="AEacute" xMin="-74" yMin="0" xMax="1034" yMax="939">
      <component glyphName="AE" x="0" y="0" flags="0x204"/>
      <component glyphName="acute" x="506" y="208" flags="0x4"/>
    </TTGlyph>
    <TTGlyph name="Aacute" xMin="-62" yMin="0" xMax="647" yMax="939">
      <component glyphName="A" x="0" y="0" flags="0x204"/>
      <component glyphName="acute" x="282" y="208" flags="0x4"/>
    </TTGlyph>
    <TTGlyph name="Abreve" xMin="-62" yMin="0" xMax="647" yMax="905">
      <component glyphName="A" x="0" y="0" flags="0x204"/>
      <component glyphName="breve" x="198" y="208" flags="0x4"/>
    </TTGlyph>
    <TTGlyph name="Acircumflex" xMin="-62" yMin="0" xMax="647" yMax="925">
      <component glyphName="A" x="0" y="0" flags="0x204"/>
      <component glyphName="circumflex" x="223" y="208" flags="0x4"/>
    </TTGlyph>
    <TTGlyph name="Adieresis" xMin="-62" yMin="0" xMax="647" yMax="890">
      <component glyphName="A" x="0" y="0" flags="0x204"/>
      <component glyphName="dieresis" x="219" y="208" flags="0x4"/>
    </TTGlyph>
    <TTGlyph name="Agrave" xMin="-62" yMin="0" xMax="647" yMax="938">
      <component glyphName="A" x="0" y="0" flags="0x204"/>
      <component glyphName="grave" x="217" y="208" flags="0x4"/>
    </TTGlyph>
    <TTGlyph name="Amacron" xMin="-62" yMin="0" xMax="647" yMax="833">
      <component glyphName="A" x="0" y="0" flags="0x204"/>
      <component glyphName="macron" x="219" y="208" flags="0x4"/>
    </TTGlyph>
    <TTGlyph name="Aogonek" xMin="-62" yMin="-243" xMax="647" yMax="662">
      <contour>
        <pt x="-62" y="0" on="1"/>
        <pt x="-46" y="66" on="1"/>
        <pt x="25" y="66" on="1"/>
        <pt x="393" y="662" on="1"/>
        <pt x="494" y="662" on="1"/>
        <pt x="556" y="66" on="1"/>
        <pt x="647" y="66" on="1"/>
        <pt x="631" y="0" on="1"/>
        <pt x="533" y="0" on="1"/>
        <pt x="532" y="-1" on="1"/>
        <pt x="493" y="-32" on="0"/>
        <pt x="445" y="-77" on="0"/>
        <pt x="419" y="-110" on="0"/>
        <pt x="411" y="-134" on="0"/>
        <pt x="411" y="-146" on="1"/>
        <pt x="411" y="-163" on="0"/>
        <pt x="435" y="-190" on="0"/>
        <pt x="463" y="-190" on="1"/>
        <pt x="478" y="-190" on="0"/>
        <pt x="510" y="-177" on="0"/>
        <pt x="523" y="-169" on="1"/>
        <pt x="543" y="-206" on="1"/>
        <pt x="521" y="-222" on="0"/>
        <pt x="468" y="-243" on="0"/>
        <pt x="439" y="-243" on="1"/>
        <pt x="393" y="-243" on="0"/>
        <pt x="335" y="-197" on="0"/>
        <pt x="335" y="-157" on="1"/>
        <pt x="335" y="-119" on="0"/>
        <pt x="395" y="-50" on="0"/>
        <pt x="470" y="0" on="1"/>
        <pt x="331" y="0" on="1"/>
        <pt x="347" y="66" on="1"/>
        <pt x="451" y="66" on="1"/>
        <pt x="437" y="231" on="1"/>
        <pt x="207" y="231" on="1"/>
        <pt x="109" y="66" on="1"/>
        <pt x="192" y="66" on="1"/>
        <pt x="176" y="0" on="1"/>
      </contour>
      <contour>
        <pt x="241" y="289" on="1"/>
        <pt x="432" y="289" on="1"/>
        <pt x="408" y="565" on="1"/>
        <pt x="404" y="565" on="1"/>
      </contour>
    </TTGlyph>
    <TTGlyph name="Aring" xMin="-62" yMin="0" xMax="647" yMax="857">
      <contour>
        <pt x="-62" y="0" on="1"/>
        <pt x="-46" y="66" on="1"/>
        <pt x="25" y="66" on="1"/>
        <pt x="396" y="667" on="1"/>
        <pt x="377" y="679" on="0"/>
        <pt x="358" y="718" on="0"/>
        <pt x="358" y="740" on="1"/>
        <pt x="358" y="788" on="0"/>
        <pt x="422" y="857" on="0"/>
        <pt x="471" y="857" on="1"/>
        <pt x="517" y="857" on="0"/>
        <pt x="564" y="804" on="0"/>
        <pt x="564" y="770" on="1"/>
        <pt x="564" y="733" on="0"/>
        <pt x="526" y="674" on="0"/>
        <pt x="494" y="661" on="1"/>
        <pt x="556" y="66" on="1"/>
        <pt x="647" y="66" on="1"/>
        <pt x="631" y="0" on="1"/>
        <pt x="331" y="0" on="1"/>
        <pt x="347" y="66" on="1"/>
        <pt x="451" y="66" on="1"/>
        <pt x="437" y="231" on="1"/>
        <pt x="207" y="231" on="1"/>
        <pt x="109" y="66" on="1"/>
        <pt x="192" y="66" on="1"/>
        <pt x="176" y="0" on="1"/>
      </contour>
      <contour>
        <pt x="455" y="688" on="1"/>
        <pt x="471" y="688" on="0"/>
        <pt x="495" y="706" on="0"/>
        <pt x="509" y="731" on="0"/>
        <pt x="516" y="760" on="0"/>
        <pt x="516" y="771" on="1"/>
        <pt x="516" y="796" on="0"/>
        <pt x="489" y="822" on="0"/>
        <pt x="467" y="822" on="1"/>
        <pt x="451" y="822" on="0"/>
        <pt x="427" y="804" on="0"/>
        <pt x="413" y="779" on="0"/>
        <pt x="406" y="751" on="0"/>
        <pt x="406" y="740" on="1"/>
        <pt x="406" y="715" on="0"/>
        <pt x="433" y="688" on="0"/>
      </contour>
      <contour>
        <pt x="241" y="289" on="1"/>
        <pt x="432" y="289" on="1"/>
        <pt x="408" y="565" on="1"/>
        <pt x="404" y="565" on="1"/>
      </contour>
    </TTGlyph>
    <TTGlyph name="Aringacute" xMin="-62" yMin="0" xMax="652" yMax="1095">
      <component glyphName="Aring" x="0" y="0" flags="0x204"/>
      <component glyphName="acute" x="325" y="364" flags="0x4"/>
    </TTGlyph>
    <TTGlyph name="Atilde" xMin="-62" yMin="0" xMax="652" yMax="878">
      <component glyphName="A" x="0" y="0" flags="0x204"/>
      <component glyphName="tilde" x="215" y="208" flags="0x4"/>
    </TTGlyph>
    <TTGlyph name="B" xMin="-24" yMin="0" xMax="633" yMax="658">
      <contour>
        <pt x="-24" y="0" on="1"/>
        <pt x="-9" y="66" on="1"/>
        <pt x="101" y="66" on="1"/>
        <pt x="232" y="592" on="1"/>
        <pt x="120" y="592" on="1"/>
        <pt x="136" y="658" on="1"/>
        <pt x="411" y="658" on="1"/>
        <pt x="475" y="658" on="0"/>
        <pt x="561" y="633" on="0"/>
        <pt x="612" y="593" on="0"/>
        <pt x="633" y="542" on="0"/>
        <pt x="633" y="516" on="1"/>
        <pt x="633" y="489" on="0"/>
        <pt x="613" y="431" on="0"/>
        <pt x="565" y="383" on="0"/>
        <pt x="486" y="350" on="0"/>
        <pt x="428" y="346" on="1"/>
        <pt x="427" y="341" on="1"/>
        <pt x="507" y="327" on="0"/>
        <pt x="586" y="249" on="0"/>
        <pt x="586" y="196" on="1"/>
        <pt x="586" y="159" on="0"/>
        <pt x="557" y="96" on="0"/>
        <pt x="537" y="76" on="1"/>
        <pt x="500" y="39" on="0"/>
        <pt x="376" y="0" on="0"/>
        <pt x="274" y="0" on="1"/>
      </contour>
      <contour>
        <pt x="281" y="375" on="1"/>
        <pt x="365" y="375" on="1"/>
        <pt x="411" y="375" on="0"/>
        <pt x="474" y="402" on="0"/>
        <pt x="511" y="442" on="0"/>
        <pt x="527" y="489" on="0"/>
        <pt x="527" y="508" on="1"/>
        <pt x="527" y="548" on="0"/>
        <pt x="474" y="592" on="0"/>
        <pt x="407" y="592" on="1"/>
        <pt x="335" y="592" on="1"/>
      </contour>
      <contour>
        <pt x="204" y="66" on="1"/>
        <pt x="292" y="66" on="1"/>
        <pt x="348" y="66" on="0"/>
        <pt x="421" y="92" on="0"/>
        <pt x="464" y="133" on="0"/>
        <pt x="482" y="186" on="0"/>
        <pt x="482" y="214" on="1"/>
        <pt x="482" y="257" on="0"/>
        <pt x="414" y="317" on="0"/>
        <pt x="333" y="317" on="1"/>
        <pt x="267" y="317" on="1"/>
      </contour>
    </TTGlyph>
    <TTGlyph name="C" xMin="65" yMin="-16" xMax="718" yMax="674">
      <contour>
        <pt x="332" y="-16" on="1"/>
        <pt x="262" y="-16" on="0"/>
        <pt x="161" y="27" on="0"/>
        <pt x="96" y="101" on="0"/>
        <pt x="65" y="203" on="0"/>
        <pt x="65" y="261" on="1"/>
        <pt x="65" y="342" on="0"/>
        <pt x="123" y="492" on="0"/>
        <pt x="223" y="605" on="0"/>
        <pt x="359" y="674" on="0"/>
        <pt x="437" y="674" on="1"/>
        <pt x="498" y="674" on="0"/>
        <pt x="589" y="632" on="0"/>
        <pt x="614" y="595" on="1"/>
        <pt x="651" y="671" on="1"/>
        <pt x="718" y="671" on="1"/>
        <pt x="654" y="413" on="1"/>
        <pt x="595" y="413" on="1"/>
        <pt x="585" y="526" on="0"/>
        <pt x="497" y="608" on="0"/>
        <pt x="433" y="608" on="1"/>
        <pt x="362" y="608" on="0"/>
        <pt x="263" y="532" on="0"/>
        <pt x="203" y="423" on="0"/>
        <pt x="176" y="301" on="0"/>
        <pt x="176" y="256" on="1"/>
        <pt x="176" y="157" on="0"/>
        <pt x="266" y="54" on="0"/>
        <pt x="341" y="54" on="1"/>
        <pt x="423" y="54" on="0"/>
        <pt x="533" y="172" on="0"/>
        <pt x="573" y="263" on="1"/>
        <pt x="635" y="239" on="1"/>
        <pt x="616" y="187" on="0"/>
        <pt x="561" y="94" on="0"/>
        <pt x="486" y="25" on="0"/>
        <pt x="391" y="-16" on="0"/>
      </contour>
    </TTGlyph>
    <TTGlyph name="Cacute" xMin="65" yMin="-16" xMax="718" yMax="939">
      <component glyphName="C" x="0" y="0" flags="0x204"/>
      <component glyphName="acute" x="291" y="208" flags="0x4"/>
    </TTGlyph>
    <TTGlyph name="Ccaron" xMin="65" yMin="-16" xMax="718" yMax="934">
      <component glyphName="C" x="0" y="0" flags="0x204"/>
      <component glyphName="caron" x="222" y="208" flags="0x4"/>
    </TTGlyph>
    <TTGlyph name="Ccedilla" xMin="65" yMin="-243" xMax="718" yMax="674">
      <contour>
        <pt x="249" y="-243" on="1"/>
        <pt x="222" y="-243" on="0"/>
        <pt x="162" y="-222" on="0"/>
        <pt x="140" y="-201" on="1"/>
        <pt x="168" y="-167" on="1"/>
        <pt x="187" y="-181" on="0"/>
        <pt x="222" y="-195" on="0"/>
        <pt x="245" y="-195" on="1"/>
        <pt x="266" y="-195" on="0"/>
        <pt x="293" y="-174" on="0"/>
        <pt x="293" y="-155" on="1"/>
        <pt x="293" y="-130" on="0"/>
        <pt x="240" y="-111" on="0"/>
        <pt x="206" y="-114" on="1"/>
        <pt x="195" y="-91" on="1"/>
        <pt x="284" y="-13" on="1"/>
        <pt x="227" y="-6" on="0"/>
        <pt x="144" y="42" on="0"/>
        <pt x="91" y="114" on="0"/>
        <pt x="65" y="208" on="0"/>
        <pt x="65" y="261" on="1"/>
        <pt x="65" y="342" on="0"/>
        <pt x="123" y="492" on="0"/>
        <pt x="223" y="605" on="0"/>
        <pt x="359" y="674" on="0"/>
        <pt x="437" y="674" on="1"/>
        <pt x="498" y="674" on="0"/>
        <pt x="589" y="632" on="0"/>
        <pt x="614" y="595" on="1"/>
        <pt x="651" y="671" on="1"/>
        <pt x="718" y="671" on="1"/>
        <pt x="654" y="413" on="1"/>
        <pt x="595" y="413" on="1"/>
        <pt x="585" y="526" on="0"/>
        <pt x="497" y="608" on="0"/>
        <pt x="433" y="608" on="1"/>
        <pt x="362" y="608" on="0"/>
        <pt x="263" y="532" on="0"/>
        <pt x="203" y="423" on="0"/>
        <pt x="176" y="301" on="0"/>
        <pt x="176" y="256" on="1"/>
        <pt x="176" y="157" on="0"/>
        <pt x="266" y="54" on="0"/>
        <pt x="341" y="54" on="1"/>
        <pt x="423" y="54" on="0"/>
        <pt x="533" y="172" on="0"/>
        <pt x="573" y="263" on="1"/>
        <pt x="635" y="239" on="1"/>
        <pt x="617" y="188" on="0"/>
        <pt x="562" y="96" on="0"/>
        <pt x="490" y="27" on="0"/>
        <pt x="397" y="-15" on="0"/>
        <pt x="340" y="-16" on="1"/>
        <pt x="282" y="-66" on="1"/>
        <pt x="282" y="-70" on="1"/>
        <pt x="314" y="-75" on="0"/>
        <pt x="361" y="-115" on="0"/>
        <pt x="361" y="-148" on="1"/>
        <pt x="361" y="-182" on="0"/>
        <pt x="309" y="-243" on="0"/>
      </contour>
    </TTGlyph>
    <TTGlyph name="Cdotaccent" xMin="65" yMin="-16" xMax="718" yMax="876">
      <component glyphName="C" x="0" y="0" flags="0x204"/>
      <component glyphName="dotaccent" x="292" y="208" flags="0x4"/>
    </TTGlyph>
    <TTGlyph name="D" xMin="-24" yMin="0" xMax="708" yMax="658">
      <contour>
        <pt x="-24" y="0" on="1"/>
        <pt x="-9" y="66" on="1"/>
        <pt x="101" y="66" on="1"/>
        <pt x="232" y="592" on="1"/>
        <pt x="120" y="592" on="1"/>
        <pt x="136" y="658" on="1"/>
        <pt x="401" y="658" on="1"/>
        <pt x="475" y="658" on="0"/>
        <pt x="589" y="619" on="0"/>
        <pt x="667" y="552" on="0"/>
        <pt x="708" y="459" on="0"/>
        <pt x="708" y="405" on="1"/>
        <pt x="708" y="336" on="0"/>
        <pt x="646" y="181" on="0"/>
        <pt x="589" y="124" on="1"/>
        <pt x="532" y="67" on="0"/>
        <pt x="361" y="0" on="0"/>
        <pt x="252" y="0" on="1"/>
      </contour>
      <contour>
        <pt x="204" y="66" on="1"/>
        <pt x="262" y="66" on="1"/>
        <pt x="336" y="66" on="0"/>
        <pt x="445" y="101" on="0"/>
        <pt x="485" y="141" on="1"/>
        <pt x="508" y="164" on="0"/>
        <pt x="547" y="231" on="0"/>
        <pt x="575" y="307" on="0"/>
        <pt x="591" y="387" on="0"/>
        <pt x="591" y="423" on="1"/>
        <pt x="591" y="505" on="0"/>
        <pt x="492" y="592" on="0"/>
        <pt x="396" y="592" on="1"/>
        <pt x="335" y="592" on="1"/>
      </contour>
    </TTGlyph>
    <TTGlyph name="Dcaron" xMin="-24" yMin="0" xMax="708" yMax="934">
      <component glyphName="D" x="0" y="0" flags="0x204"/>
      <component glyphName="caron" x="232" y="208" flags="0x4"/>
    </TTGlyph>
    <TTGlyph name="Dcroat" xMin="-24" yMin="0" xMax="708" yMax="658">
      <component glyphName="Eth" x="0" y="0" flags="0x204"/>
    </TTGlyph>
    <TTGlyph name="E" xMin="-24" yMin="0" xMax="708" yMax="658">
      <contour>
        <pt x="-24" y="0" on="1"/>
        <pt x="-9" y="66" on="1"/>
        <pt x="101" y="66" on="1"/>
        <pt x="232" y="592" on="1"/>
        <pt x="120" y="592" on="1"/>
        <pt x="136" y="658" on="1"/>
        <pt x="708" y="658" on="1"/>
        <pt x="655" y="444" on="1"/>
        <pt x="609" y="444" on="1"/>
        <pt x="606" y="488" on="0"/>
        <pt x="599" y="546" on="0"/>
        <pt x="580" y="579" on="0"/>
        <pt x="545" y="592" on="0"/>
        <pt x="515" y="592" on="1"/>
        <pt x="335" y="592" on="1"/>
        <pt x="279" y="366" on="1"/>
        <pt x="334" y="366" on="1"/>
        <pt x="362" y="366" on="0"/>
        <pt x="398" y="372" on="0"/>
        <pt x="425" y="393" on="0"/>
        <pt x="449" y="433" on="0"/>
        <pt x="464" y="467" on="1"/>
        <pt x="518" y="467" on="1"/>
        <pt x="453" y="205" on="1"/>
        <pt x="401" y="205" on="1"/>
        <pt x="406" y="274" on="0"/>
        <pt x="381" y="310" on="0"/>
        <pt x="328" y="310" on="1"/>
        <pt x="265" y="310" on="1"/>
        <pt x="204" y="66" on="1"/>
        <pt x="390" y="66" on="1"/>
        <pt x="422" y="66" on="0"/>
        <pt x="463" y="80" on="0"/>
        <pt x="498" y="117" on="0"/>
        <pt x="535" y="183" on="0"/>
        <pt x="561" y="234" on="1"/>
        <pt x="611" y="234" on="1"/>
        <pt x="553" y="0" on="1"/>
      </contour>
    </TTGlyph>
    <TTGlyph name="Eacute" xMin="-24" yMin="0" xMax="708" yMax="939">
      <component glyphName="E" x="0" y="0" flags="0x204"/>
      <component glyphName="acute" x="286" y="208" flags="0x4"/>
    </TTGlyph>
    <TTGlyph name="Ebreve" xMin="-24" yMin="0" xMax="708" yMax="905">
      <component glyphName="E" x="0" y="0" flags="0x204"/>
      <component glyphName="breve" x="203" y="208" flags="0x4"/>
    </TTGlyph>
    <TTGlyph name="Ecaron" xMin="-24" yMin="0" xMax="708" yMax="934">
      <component glyphName="E" x="0" y="0" flags="0x204"/>
      <component glyphName="caron" x="217" y="208" flags="0x4"/>
    </TTGlyph>
    <TTGlyph name="Ecircumflex" xMin="-24" yMin="0" xMax="708" yMax="925">
      <component glyphName="E" x="0" y="0" flags="0x204"/>
      <component glyphName="circumflex" x="228" y="208" flags="0x4"/>
    </TTGlyph>
    <TTGlyph name="Edieresis" xMin="-24" yMin="0" xMax="708" yMax="890">
      <component glyphName="E" x="0" y="0" flags="0x204"/>
      <component glyphName="dieresis" x="223" y="208" flags="0x4"/>
    </TTGlyph>
    <TTGlyph name="Edotaccent" xMin="-24" yMin="0" xMax="708" yMax="876">
      <component glyphName="E" x="0" y="0" flags="0x204"/>
      <component glyphName="dotaccent" x="287" y="208" flags="0x4"/>
    </TTGlyph>
    <TTGlyph name="Egrave" xMin="-24" yMin="0" xMax="708" yMax="938">
      <component glyphName="E" x="0" y="0" flags="0x204"/>
      <component glyphName="grave" x="221" y="208" flags="0x4"/>
    </TTGlyph>
    <TTGlyph name="Emacron" xMin="-24" yMin="0" xMax="708" yMax="833">
      <component glyphName="E" x="0" y="0" flags="0x204"/>
      <component glyphName="macron" x="223" y="208" flags="0x4"/>
    </TTGlyph>
    <TTGlyph name="Eogonek" xMin="-24" yMin="-243" xMax="708" yMax="658">
      <contour>
        <pt x="-24" y="0" on="1"/>
        <pt x="-9" y="66" on="1"/>
        <pt x="101" y="66" on="1"/>
        <pt x="232" y="592" on="1"/>
        <pt x="120" y="592" on="1"/>
        <pt x="136" y="658" on="1"/>
        <pt x="708" y="658" on="1"/>
        <pt x="655" y="444" on="1"/>
        <pt x="609" y="444" on="1"/>
        <pt x="606" y="488" on="0"/>
        <pt x="599" y="546" on="0"/>
        <pt x="580" y="579" on="0"/>
        <pt x="545" y="592" on="0"/>
        <pt x="515" y="592" on="1"/>
        <pt x="335" y="592" on="1"/>
        <pt x="279" y="366" on="1"/>
        <pt x="334" y="366" on="1"/>
        <pt x="362" y="366" on="0"/>
        <pt x="398" y="372" on="0"/>
        <pt x="425" y="393" on="0"/>
        <pt x="449" y="433" on="0"/>
        <pt x="464" y="467" on="1"/>
        <pt x="518" y="467" on="1"/>
        <pt x="453" y="205" on="1"/>
        <pt x="401" y="205" on="1"/>
        <pt x="406" y="274" on="0"/>
        <pt x="381" y="310" on="0"/>
        <pt x="328" y="310" on="1"/>
        <pt x="265" y="310" on="1"/>
        <pt x="204" y="66" on="1"/>
        <pt x="390" y="66" on="1"/>
        <pt x="422" y="66" on="0"/>
        <pt x="463" y="80" on="0"/>
        <pt x="498" y="117" on="0"/>
        <pt x="535" y="183" on="0"/>
        <pt x="561" y="234" on="1"/>
        <pt x="611" y="234" on="1"/>
        <pt x="553" y="0" on="1"/>
        <pt x="501" y="0" on="1"/>
        <pt x="500" y="-1" on="1"/>
        <pt x="461" y="-32" on="0"/>
        <pt x="413" y="-77" on="0"/>
        <pt x="387" y="-110" on="0"/>
        <pt x="379" y="-134" on="0"/>
        <pt x="379" y="-146" on="1"/>
        <pt x="379" y="-163" on="0"/>
        <pt x="403" y="-190" on="0"/>
        <pt x="431" y="-190" on="1"/>
        <pt x="446" y="-190" on="0"/>
        <pt x="478" y="-177" on="0"/>
        <pt x="491" y="-169" on="1"/>
        <pt x="511" y="-206" on="1"/>
        <pt x="489" y="-222" on="0"/>
        <pt x="436" y="-243" on="0"/>
        <pt x="407" y="-243" on="1"/>
        <pt x="361" y="-243" on="0"/>
        <pt x="303" y="-197" on="0"/>
        <pt x="303" y="-157" on="1"/>
        <pt x="303" y="-119" on="0"/>
        <pt x="363" y="-50" on="0"/>
        <pt x="438" y="0" on="1"/>
      </contour>
    </TTGlyph>
    <TTGlyph name="Eth" xMin="-24" yMin="0" xMax="708" yMax="658">
      <contour>
        <pt x="-24" y="0" on="1"/>
        <pt x="-9" y="66" on="1"/>
        <pt x="101" y="66" on="1"/>
        <pt x="162" y="310" on="1"/>
        <pt x="51" y="310" on="1"/>
        <pt x="68" y="376" on="1"/>
        <pt x="178" y="376" on="1"/>
        <pt x="232" y="592" on="1"/>
        <pt x="120" y="592" on="1"/>
        <pt x="136" y="658" on="1"/>
        <pt x="401" y="658" on="1"/>
        <pt x="475" y="658" on="0"/>
        <pt x="589" y="619" on="0"/>
        <pt x="667" y="552" on="0"/>
        <pt x="708" y="459" on="0"/>
        <pt x="708" y="405" on="1"/>
        <pt x="708" y="336" on="0"/>
        <pt x="646" y="181" on="0"/>
        <pt x="589" y="124" on="1"/>
        <pt x="532" y="67" on="0"/>
        <pt x="361" y="0" on="0"/>
        <pt x="252" y="0" on="1"/>
      </contour>
      <contour>
        <pt x="204" y="66" on="1"/>
        <pt x="262" y="66" on="1"/>
        <pt x="336" y="66" on="0"/>
        <pt x="445" y="101" on="0"/>
        <pt x="485" y="141" on="1"/>
        <pt x="508" y="164" on="0"/>
        <pt x="547" y="231" on="0"/>
        <pt x="575" y="307" on="0"/>
        <pt x="591" y="387" on="0"/>
        <pt x="591" y="423" on="1"/>
        <pt x="591" y="505" on="0"/>
        <pt x="492" y="592" on="0"/>
        <pt x="396" y="592" on="1"/>
        <pt x="335" y="592" on="1"/>
        <pt x="281" y="376" on="1"/>
        <pt x="418" y="376" on="1"/>
        <pt x="401" y="310" on="1"/>
        <pt x="265" y="310" on="1"/>
      </contour>
    </TTGlyph>
    <TTGlyph name="Euro" xMin="22" yMin="-16" xMax="662" yMax="650">
      <contour>
        <pt x="22" y="216" on="1"/>
        <pt x="36" y="273" on="1"/>
        <pt x="123" y="273" on="1"/>
        <pt x="125" y="293" on="0"/>
        <pt x="132" y="332" on="0"/>
        <pt x="137" y="351" on="1"/>
        <pt x="55" y="351" on="1"/>
        <pt x="69" y="408" on="1"/>
        <pt x="156" y="408" on="1"/>
        <pt x="178" y="463" on="0"/>
        <pt x="247" y="553" on="0"/>
        <pt x="330" y="616" on="0"/>
        <pt x="425" y="650" on="0"/>
        <pt x="473" y="650" on="1"/>
        <pt x="520" y="650" on="0"/>
        <pt x="591" y="625" on="0"/>
        <pt x="638" y="585" on="0"/>
        <pt x="662" y="532" on="0"/>
        <pt x="662" y="505" on="1"/>
        <pt x="662" y="474" on="0"/>
        <pt x="622" y="418" on="0"/>
        <pt x="588" y="418" on="1"/>
        <pt x="560" y="418" on="0"/>
        <pt x="528" y="452" on="0"/>
        <pt x="528" y="477" on="1"/>
        <pt x="528" y="501" on="0"/>
        <pt x="553" y="540" on="0"/>
        <pt x="571" y="551" on="1"/>
        <pt x="557" y="570" on="0"/>
        <pt x="510" y="589" on="0"/>
        <pt x="476" y="589" on="1"/>
        <pt x="436" y="589" on="0"/>
        <pt x="369" y="560" on="0"/>
        <pt x="316" y="511" on="0"/>
        <pt x="275" y="445" on="0"/>
        <pt x="261" y="408" on="1"/>
        <pt x="457" y="408" on="1"/>
        <pt x="443" y="351" on="1"/>
        <pt x="243" y="351" on="1"/>
        <pt x="239" y="332" on="0"/>
        <pt x="231" y="292" on="0"/>
        <pt x="230" y="273" on="1"/>
        <pt x="424" y="273" on="1"/>
        <pt x="410" y="216" on="1"/>
        <pt x="228" y="216" on="1"/>
        <pt x="232" y="134" on="0"/>
        <pt x="309" y="59" on="0"/>
        <pt x="366" y="59" on="1"/>
        <pt x="421" y="59" on="0"/>
        <pt x="507" y="129" on="0"/>
        <pt x="539" y="198" on="1"/>
        <pt x="592" y="175" on="1"/>
        <pt x="578" y="136" on="0"/>
        <pt x="532" y="66" on="0"/>
        <pt x="470" y="14" on="0"/>
        <pt x="392" y="-16" on="0"/>
        <pt x="345" y="-16" on="1"/>
        <pt x="298" y="-16" on="0"/>
        <pt x="218" y="13" on="0"/>
        <pt x="158" y="70" on="0"/>
        <pt x="123" y="158" on="0"/>
        <pt x="121" y="216" on="1"/>
      </contour>
    </TTGlyph>
    <TTGlyph name="Euro.osf" xMin="9" yMin="-16" xMax="632" yMax="568">
      <contour>
        <pt x="9" y="182" on="1"/>
        <pt x="23" y="239" on="1"/>
        <pt x="109" y="239" on="1"/>
        <pt x="110" y="257" on="0"/>
        <pt x="117" y="291" on="0"/>
        <pt x="121" y="307" on="1"/>
        <pt x="39" y="307" on="1"/>
        <pt x="53" y="364" on="1"/>
        <pt x="141" y="364" on="1"/>
        <pt x="163" y="410" on="0"/>
        <pt x="229" y="486" on="0"/>
        <pt x="308" y="539" on="0"/>
        <pt x="398" y="568" on="0"/>
        <pt x="444" y="568" on="1"/>
        <pt x="490" y="568" on="0"/>
        <pt x="561" y="544" on="0"/>
        <pt x="608" y="505" on="0"/>
        <pt x="632" y="454" on="0"/>
        <pt x="632" y="428" on="1"/>
        <pt x="632" y="400" on="0"/>
        <pt x="592" y="343" on="0"/>
        <pt x="558" y="343" on="1"/>
        <pt x="530" y="343" on="0"/>
        <pt x="499" y="376" on="0"/>
        <pt x="499" y="401" on="1"/>
        <pt x="499" y="423" on="0"/>
        <pt x="523" y="460" on="0"/>
        <pt x="541" y="470" on="1"/>
        <pt x="527" y="488" on="0"/>
        <pt x="477" y="507" on="0"/>
        <pt x="446" y="507" on="1"/>
        <pt x="372" y="507" on="0"/>
        <pt x="273" y="422" on="0"/>
        <pt x="247" y="364" on="1"/>
        <pt x="436" y="364" on="1"/>
        <pt x="422" y="307" on="1"/>
        <pt x="226" y="307" on="1"/>
        <pt x="222" y="290" on="0"/>
        <pt x="217" y="255" on="0"/>
        <pt x="216" y="239" on="1"/>
        <pt x="406" y="239" on="1"/>
        <pt x="392" y="182" on="1"/>
        <pt x="218" y="182" on="1"/>
        <pt x="227" y="118" on="0"/>
        <pt x="302" y="59" on="0"/>
        <pt x="352" y="59" on="1"/>
        <pt x="406" y="59" on="0"/>
        <pt x="493" y="127" on="0"/>
        <pt x="526" y="190" on="1"/>
        <pt x="579" y="167" on="1"/>
        <pt x="564" y="130" on="0"/>
        <pt x="519" y="63" on="0"/>
        <pt x="458" y="13" on="0"/>
        <pt x="380" y="-16" on="0"/>
        <pt x="333" y="-16" on="1"/>
        <pt x="244" y="-16" on="0"/>
        <pt x="119" y="87" on="0"/>
        <pt x="110" y="182" on="1"/>
      </contour>
    </TTGlyph>
    <TTGlyph name="Euro.tab" xMin="11" yMin="-16" xMax="576" yMax="650">
      <contour>
        <pt x="11" y="218" on="1"/>
        <pt x="25" y="274" on="1"/>
        <pt x="94" y="274" on="1"/>
        <pt x="96" y="293" on="0"/>
        <pt x="102" y="331" on="0"/>
        <pt x="106" y="349" on="1"/>
        <pt x="44" y="349" on="1"/>
        <pt x="58" y="405" on="1"/>
        <pt x="123" y="405" on="1"/>
        <pt x="143" y="460" on="0"/>
        <pt x="204" y="551" on="0"/>
        <pt x="279" y="615" on="0"/>
        <pt x="366" y="650" on="0"/>
        <pt x="410" y="650" on="1"/>
        <pt x="452" y="650" on="0"/>
        <pt x="514" y="627" on="0"/>
        <pt x="556" y="589" on="0"/>
        <pt x="576" y="538" on="0"/>
        <pt x="576" y="512" on="1"/>
        <pt x="576" y="481" on="0"/>
        <pt x="541" y="427" on="0"/>
        <pt x="508" y="427" on="1"/>
        <pt x="483" y="427" on="0"/>
        <pt x="452" y="459" on="0"/>
        <pt x="452" y="484" on="1"/>
        <pt x="452" y="507" on="0"/>
        <pt x="475" y="543" on="0"/>
        <pt x="491" y="553" on="1"/>
        <pt x="481" y="569" on="0"/>
        <pt x="443" y="589" on="0"/>
        <pt x="413" y="589" on="1"/>
        <pt x="379" y="589" on="0"/>
        <pt x="320" y="560" on="0"/>
        <pt x="273" y="510" on="0"/>
        <pt x="237" y="442" on="0"/>
        <pt x="224" y="405" on="1"/>
        <pt x="410" y="405" on="1"/>
        <pt x="396" y="349" on="1"/>
        <pt x="209" y="349" on="1"/>
        <pt x="205" y="330" on="0"/>
        <pt x="198" y="293" on="0"/>
        <pt x="197" y="274" on="1"/>
        <pt x="377" y="274" on="1"/>
        <pt x="363" y="218" on="1"/>
        <pt x="195" y="218" on="1"/>
        <pt x="197" y="133" on="0"/>
        <pt x="260" y="59" on="0"/>
        <pt x="306" y="59" on="1"/>
        <pt x="352" y="59" on="0"/>
        <pt x="424" y="119" on="0"/>
        <pt x="451" y="178" on="1"/>
        <pt x="504" y="155" on="1"/>
        <pt x="491" y="120" on="0"/>
        <pt x="451" y="57" on="0"/>
        <pt x="398" y="11" on="0"/>
        <pt x="329" y="-16" on="0"/>
        <pt x="288" y="-16" on="1"/>
        <pt x="202" y="-16" on="0"/>
        <pt x="92" y="100" on="0"/>
        <pt x="92" y="218" on="1"/>
      </contour>
    </TTGlyph>
    <TTGlyph name="F" xMin="-24" yMin="0" xMax="694" yMax="658">
      <contour>
        <pt x="-24" y="0" on="1"/>
        <pt x="-9" y="66" on="1"/>
        <pt x="101" y="66" on="1"/>
        <pt x="232" y="592" on="1"/>
        <pt x="120" y="592" on="1"/>
        <pt x="136" y="658" on="1"/>
        <pt x="694" y="658" on="1"/>
        <pt x="639" y="439" on="1"/>
        <pt x="593" y="439" on="1"/>
        <pt x="590" y="487" on="0"/>
        <pt x="578" y="547" on="0"/>
        <pt x="556" y="580" on="0"/>
        <pt x="518" y="592" on="0"/>
        <pt x="489" y="592" on="1"/>
        <pt x="335" y="592" on="1"/>
        <pt x="276" y="355" on="1"/>
        <pt x="323" y="355" on="1"/>
        <pt x="378" y="355" on="0"/>
        <pt x="425" y="394" on="0"/>
        <pt x="450" y="457" on="1"/>
        <pt x="503" y="457" on="1"/>
        <pt x="437" y="191" on="1"/>
        <pt x="384" y="191" on="1"/>
        <pt x="388" y="228" on="0"/>
        <pt x="387" y="271" on="0"/>
        <pt x="372" y="293" on="0"/>
        <pt x="338" y="299" on="0"/>
        <pt x="309" y="299" on="1"/>
        <pt x="262" y="299" on="1"/>
        <pt x="204" y="66" on="1"/>
        <pt x="326" y="66" on="1"/>
        <pt x="311" y="0" on="1"/>
      </contour>
    </TTGlyph>
    <TTGlyph name="G" xMin="65" yMin="-16" xMax="730" yMax="674">
      <contour>
        <pt x="302" y="-16" on="1"/>
        <pt x="245" y="-16" on="0"/>
        <pt x="156" y="28" on="0"/>
        <pt x="96" y="103" on="0"/>
        <pt x="65" y="204" on="0"/>
        <pt x="65" y="261" on="1"/>
        <pt x="65" y="342" on="0"/>
        <pt x="123" y="492" on="0"/>
        <pt x="223" y="605" on="0"/>
        <pt x="359" y="674" on="0"/>
        <pt x="437" y="674" on="1"/>
        <pt x="498" y="674" on="0"/>
        <pt x="589" y="632" on="0"/>
        <pt x="614" y="595" on="1"/>
        <pt x="651" y="671" on="1"/>
        <pt x="718" y="671" on="1"/>
        <pt x="654" y="413" on="1"/>
        <pt x="595" y="413" on="1"/>
        <pt x="585" y="526" on="0"/>
        <pt x="497" y="608" on="0"/>
        <pt x="433" y="608" on="1"/>
        <pt x="362" y="608" on="0"/>
        <pt x="263" y="532" on="0"/>
        <pt x="203" y="424" on="0"/>
        <pt x="176" y="305" on="0"/>
        <pt x="176" y="262" on="1"/>
        <pt x="176" y="205" on="0"/>
        <pt x="202" y="125" on="0"/>
        <pt x="243" y="76" on="0"/>
        <pt x="298" y="54" on="0"/>
        <pt x="326" y="54" on="1"/>
        <pt x="392" y="54" on="0"/>
        <pt x="495" y="154" on="0"/>
        <pt x="516" y="237" on="1"/>
        <pt x="523" y="265" on="1"/>
        <pt x="401" y="265" on="1"/>
        <pt x="418" y="331" on="1"/>
        <pt x="730" y="331" on="1"/>
        <pt x="713" y="265" on="1"/>
        <pt x="626" y="265" on="1"/>
        <pt x="556" y="-7" on="1"/>
        <pt x="492" y="-7" on="1"/>
        <pt x="486" y="80" on="1"/>
        <pt x="453" y="34" on="0"/>
        <pt x="357" y="-16" on="0"/>
      </contour>
    </TTGlyph>
    <TTGlyph name="Gbreve" xMin="65" yMin="-16" xMax="730" yMax="905">
      <component glyphName="G" x="0" y="0" flags="0x204"/>
      <component glyphName="breve" x="208" y="208" flags="0x4"/>
    </TTGlyph>
    <TTGlyph name="Gdotaccent" xMin="65" yMin="-16" xMax="730" yMax="876">
      <component glyphName="G" x="0" y="0" flags="0x204"/>
      <component glyphName="dotaccent" x="292" y="208" flags="0x4"/>
    </TTGlyph>
    <TTGlyph name="H" xMin="-24" yMin="0" xMax="853" yMax="658">
      <contour>
        <pt x="-24" y="0" on="1"/>
        <pt x="-9" y="66" on="1"/>
        <pt x="101" y="66" on="1"/>
        <pt x="232" y="592" on="1"/>
        <pt x="120" y="592" on="1"/>
        <pt x="136" y="658" on="1"/>
        <pt x="442" y="658" on="1"/>
        <pt x="426" y="592" on="1"/>
        <pt x="335" y="592" on="1"/>
        <pt x="280" y="370" on="1"/>
        <pt x="569" y="370" on="1"/>
        <pt x="624" y="592" on="1"/>
        <pt x="531" y="592" on="1"/>
        <pt x="547" y="658" on="1"/>
        <pt x="853" y="658" on="1"/>
        <pt x="837" y="592" on="1"/>
        <pt x="727" y="592" on="1"/>
        <pt x="596" y="66" on="1"/>
        <pt x="708" y="66" on="1"/>
        <pt x="693" y="0" on="1"/>
        <pt x="387" y="0" on="1"/>
        <pt x="402" y="66" on="1"/>
        <pt x="493" y="66" on="1"/>
        <pt x="555" y="312" on="1"/>
        <pt x="266" y="312" on="1"/>
        <pt x="204" y="66" on="1"/>
        <pt x="297" y="66" on="1"/>
        <pt x="282" y="0" on="1"/>
      </contour>
    </TTGlyph>
    <TTGlyph name="Hbar" xMin="-24" yMin="0" xMax="853" yMax="658">
      <contour>
        <pt x="-24" y="0" on="1"/>
        <pt x="-9" y="66" on="1"/>
        <pt x="101" y="66" on="1"/>
        <pt x="196" y="447" on="1"/>
        <pt x="85" y="447" on="1"/>
        <pt x="99" y="505" on="1"/>
        <pt x="210" y="505" on="1"/>
        <pt x="232" y="592" on="1"/>
        <pt x="120" y="592" on="1"/>
        <pt x="136" y="658" on="1"/>
        <pt x="442" y="658" on="1"/>
        <pt x="426" y="592" on="1"/>
        <pt x="335" y="592" on="1"/>
        <pt x="314" y="505" on="1"/>
        <pt x="603" y="505" on="1"/>
        <pt x="624" y="592" on="1"/>
        <pt x="531" y="592" on="1"/>
        <pt x="547" y="658" on="1"/>
        <pt x="853" y="658" on="1"/>
        <pt x="837" y="592" on="1"/>
        <pt x="727" y="592" on="1"/>
        <pt x="705" y="505" on="1"/>
        <pt x="816" y="505" on="1"/>
        <pt x="802" y="447" on="1"/>
        <pt x="691" y="447" on="1"/>
        <pt x="596" y="66" on="1"/>
        <pt x="708" y="66" on="1"/>
        <pt x="693" y="0" on="1"/>
        <pt x="387" y="0" on="1"/>
        <pt x="402" y="66" on="1"/>
        <pt x="493" y="66" on="1"/>
        <pt x="553" y="302" on="1"/>
        <pt x="264" y="302" on="1"/>
        <pt x="204" y="66" on="1"/>
        <pt x="297" y="66" on="1"/>
        <pt x="282" y="0" on="1"/>
      </contour>
      <contour>
        <pt x="278" y="360" on="1"/>
        <pt x="567" y="360" on="1"/>
        <pt x="588" y="447" on="1"/>
        <pt x="299" y="447" on="1"/>
      </contour>
    </TTGlyph>
    <TTGlyph name="I" xMin="-14" yMin="0" xMax="471" yMax="658">
      <contour>
        <pt x="-14" y="0" on="1"/>
        <pt x="1" y="66" on="1"/>
        <pt x="111" y="66" on="1"/>
        <pt x="242" y="592" on="1"/>
        <pt x="130" y="592" on="1"/>
        <pt x="146" y="658" on="1"/>
        <pt x="471" y="658" on="1"/>
        <pt x="455" y="592" on="1"/>
        <pt x="345" y="592" on="1"/>
        <pt x="214" y="66" on="1"/>
        <pt x="326" y="66" on="1"/>
        <pt x="311" y="0" on="1"/>
      </contour>
    </TTGlyph>
    <TTGlyph name="Iacute" xMin="-14" yMin="0" xMax="476" yMax="939">
      <component glyphName="I" x="0" y="0" flags="0x204"/>
      <component glyphName="acute" x="149" y="208" flags="0x4"/>
    </TTGlyph>
    <TTGlyph name="Ibreve" xMin="-14" yMin="0" xMax="497" yMax="905">
      <component glyphName="I" x="0" y="0" flags="0x204"/>
      <component glyphName="breve" x="67" y="208" flags="0x4"/>
    </TTGlyph>
    <TTGlyph name="Icircumflex" xMin="-14" yMin="0" xMax="471" yMax="925">
      <component glyphName="I" x="0" y="0" flags="0x204"/>
      <component glyphName="circumflex" x="92" y="208" flags="0x4"/>
    </TTGlyph>
    <TTGlyph name="Idieresis" xMin="-14" yMin="0" xMax="503" yMax="890">
      <component glyphName="I" x="0" y="0" flags="0x204"/>
      <component glyphName="dieresis" x="87" y="208" flags="0x4"/>
    </TTGlyph>
    <TTGlyph name="Idotaccent" xMin="-14" yMin="0" xMax="471" yMax="876">
      <component glyphName="I" x="0" y="0" flags="0x204"/>
      <component glyphName="dotaccent" x="151" y="208" flags="0x4"/>
    </TTGlyph>
    <TTGlyph name="Igrave" xMin="-14" yMin="0" xMax="471" yMax="938">
      <component glyphName="I" x="0" y="0" flags="0x204"/>
      <component glyphName="grave" x="85" y="208" flags="0x4"/>
    </TTGlyph>
    <TTGlyph name="Imacron" xMin="-14" yMin="0" xMax="479" yMax="833">
      <component glyphName="I" x="0" y="0" flags="0x204"/>
      <component glyphName="macron" x="87" y="208" flags="0x4"/>
    </TTGlyph>
    <TTGlyph name="Iogonek" xMin="-14" yMin="-243" xMax="471" yMax="658">
      <contour>
        <pt x="-14" y="0" on="1"/>
        <pt x="1" y="66" on="1"/>
        <pt x="111" y="66" on="1"/>
        <pt x="242" y="592" on="1"/>
        <pt x="130" y="592" on="1"/>
        <pt x="146" y="658" on="1"/>
        <pt x="471" y="658" on="1"/>
        <pt x="455" y="592" on="1"/>
        <pt x="345" y="592" on="1"/>
        <pt x="214" y="66" on="1"/>
        <pt x="326" y="66" on="1"/>
        <pt x="311" y="0" on="1"/>
        <pt x="195" y="0" on="1"/>
        <pt x="194" y="-1" on="1"/>
        <pt x="155" y="-32" on="0"/>
        <pt x="107" y="-77" on="0"/>
        <pt x="81" y="-110" on="0"/>
        <pt x="73" y="-134" on="0"/>
        <pt x="73" y="-146" on="1"/>
        <pt x="73" y="-163" on="0"/>
        <pt x="97" y="-190" on="0"/>
        <pt x="125" y="-190" on="1"/>
        <pt x="140" y="-190" on="0"/>
        <pt x="172" y="-177" on="0"/>
        <pt x="185" y="-169" on="1"/>
        <pt x="205" y="-206" on="1"/>
        <pt x="183" y="-222" on="0"/>
        <pt x="130" y="-243" on="0"/>
        <pt x="101" y="-243" on="1"/>
        <pt x="55" y="-243" on="0"/>
        <pt x="-3" y="-197" on="0"/>
        <pt x="-3" y="-157" on="1"/>
        <pt x="-3" y="-119" on="0"/>
        <pt x="57" y="-50" on="0"/>
        <pt x="132" y="0" on="1"/>
      </contour>
    </TTGlyph>
    <TTGlyph name="J" xMin="6" yMin="-16" xMax="642" yMax="658">
      <contour>
        <pt x="188" y="-16" on="1"/>
        <pt x="143" y="-16" on="0"/>
        <pt x="75" y="9" on="0"/>
        <pt x="29" y="49" on="0"/>
        <pt x="6" y="101" on="0"/>
        <pt x="6" y="127" on="1"/>
        <pt x="6" y="169" on="0"/>
        <pt x="55" y="234" on="0"/>
        <pt x="98" y="234" on="1"/>
        <pt x="130" y="234" on="0"/>
        <pt x="163" y="194" on="0"/>
        <pt x="163" y="169" on="1"/>
        <pt x="163" y="142" on="0"/>
        <pt x="130" y="102" on="0"/>
        <pt x="99" y="93" on="1"/>
        <pt x="105" y="77" on="0"/>
        <pt x="156" y="47" on="0"/>
        <pt x="192" y="47" on="1"/>
        <pt x="243" y="47" on="0"/>
        <pt x="302" y="121" on="0"/>
        <pt x="320" y="193" on="1"/>
        <pt x="419" y="592" on="1"/>
        <pt x="308" y="592" on="1"/>
        <pt x="324" y="658" on="1"/>
        <pt x="642" y="658" on="1"/>
        <pt x="626" y="592" on="1"/>
        <pt x="522" y="592" on="1"/>
        <pt x="417" y="170" on="1"/>
        <pt x="395" y="83" on="0"/>
        <pt x="278" y="-16" on="0"/>
      </contour>
    </TTGlyph>
    <TTGlyph name="K" xMin="-24" yMin="0" xMax="783" yMax="658">
      <contour>
        <pt x="-24" y="0" on="1"/>
        <pt x="-9" y="66" on="1"/>
        <pt x="101" y="66" on="1"/>
        <pt x="232" y="592" on="1"/>
        <pt x="120" y="592" on="1"/>
        <pt x="136" y="658" on="1"/>
        <pt x="442" y="658" on="1"/>
        <pt x="426" y="592" on="1"/>
        <pt x="335" y="592" on="1"/>
        <pt x="267" y="318" on="1"/>
        <pt x="589" y="592" on="1"/>
        <pt x="505" y="592" on="1"/>
        <pt x="521" y="658" on="1"/>
        <pt x="783" y="658" on="1"/>
        <pt x="767" y="592" on="1"/>
        <pt x="689" y="592" on="1"/>
        <pt x="426" y="378" on="1"/>
        <pt x="575" y="66" on="1"/>
        <pt x="666" y="66" on="1"/>
        <pt x="650" y="0" on="1"/>
        <pt x="358" y="0" on="1"/>
        <pt x="374" y="66" on="1"/>
        <pt x="462" y="66" on="1"/>
        <pt x="350" y="316" on="1"/>
        <pt x="245" y="230" on="1"/>
        <pt x="204" y="66" on="1"/>
        <pt x="297" y="66" on="1"/>
        <pt x="282" y="0" on="1"/>
      </contour>
    </TTGlyph>
    <TTGlyph name="L" xMin="-24" yMin="0" xMax="566" yMax="658">
      <contour>
        <pt x="-24" y="0" on="1"/>
        <pt x="-9" y="66" on="1"/>
        <pt x="101" y="66" on="1"/>
        <pt x="232" y="592" on="1"/>
        <pt x="120" y="592" on="1"/>
        <pt x="136" y="658" on="1"/>
        <pt x="461" y="658" on="1"/>
        <pt x="445" y="592" on="1"/>
        <pt x="335" y="592" on="1"/>
        <pt x="204" y="66" on="1"/>
        <pt x="338" y="66" on="1"/>
        <pt x="371" y="66" on="0"/>
        <pt x="416" y="81" on="0"/>
        <pt x="453" y="119" on="0"/>
        <pt x="490" y="184" on="0"/>
        <pt x="516" y="234" on="1"/>
        <pt x="566" y="234" on="1"/>
        <pt x="508" y="0" on="1"/>
      </contour>
    </TTGlyph>
    <TTGlyph name="Lacute" xMin="-24" yMin="0" xMax="566" yMax="939">
      <component glyphName="L" x="0" y="0" flags="0x204"/>
      <component glyphName="acute" x="139" y="208" flags="0x4"/>
    </TTGlyph>
    <TTGlyph name="Lcaron" xMin="-24" yMin="0" xMax="623" yMax="722">
      <component glyphName="L" x="0" y="0" flags="0x204"/>
      <component glyphName="caron.alt" x="339" y="-29" flags="0x4"/>
    </TTGlyph>
    <TTGlyph name="Ldot" xMin="-24" yMin="0" xMax="565" yMax="658">
      <contour>
        <pt x="-24" y="0" on="1"/>
        <pt x="-9" y="66" on="1"/>
        <pt x="101" y="66" on="1"/>
        <pt x="232" y="592" on="1"/>
        <pt x="120" y="592" on="1"/>
        <pt x="136" y="658" on="1"/>
        <pt x="461" y="658" on="1"/>
        <pt x="445" y="592" on="1"/>
        <pt x="335" y="592" on="1"/>
        <pt x="204" y="66" on="1"/>
        <pt x="338" y="66" on="1"/>
        <pt x="371" y="66" on="0"/>
        <pt x="415" y="81" on="0"/>
        <pt x="452" y="118" on="0"/>
        <pt x="489" y="181" on="0"/>
        <pt x="515" y="229" on="1"/>
        <pt x="565" y="229" on="1"/>
        <pt x="508" y="0" on="1"/>
      </contour>
      <contour>
        <pt x="484" y="297" on="1"/>
        <pt x="464" y="297" on="0"/>
        <pt x="435" y="325" on="0"/>
        <pt x="435" y="350" on="1"/>
        <pt x="435" y="377" on="0"/>
        <pt x="473" y="428" on="0"/>
        <pt x="506" y="428" on="1"/>
        <pt x="529" y="428" on="0"/>
        <pt x="558" y="399" on="0"/>
        <pt x="558" y="374" on="1"/>
        <pt x="558" y="348" on="0"/>
        <pt x="518" y="297" on="0"/>
      </contour>
    </TTGlyph>
    <TTGlyph name="Lslash" xMin="-24" yMin="0" xMax="566" yMax="658">
      <contour>
        <pt x="-24" y="0" on="1"/>
        <pt x="-9" y="66" on="1"/>
        <pt x="101" y="66" on="1"/>
        <pt x="154" y="278" on="1"/>
        <pt x="60" y="249" on="1"/>
        <pt x="76" y="315" on="1"/>
        <pt x="170" y="344" on="1"/>
        <pt x="232" y="592" on="1"/>
        <pt x="120" y="592" on="1"/>
        <pt x="136" y="658" on="1"/>
        <pt x="461" y="658" on="1"/>
        <pt x="445" y="592" on="1"/>
        <pt x="335" y="592" on="1"/>
        <pt x="282" y="378" on="1"/>
        <pt x="463" y="434" on="1"/>
        <pt x="448" y="370" on="1"/>
        <pt x="266" y="313" on="1"/>
        <pt x="204" y="66" on="1"/>
        <pt x="338" y="66" on="1"/>
        <pt x="371" y="66" on="0"/>
        <pt x="416" y="81" on="0"/>
        <pt x="453" y="119" on="0"/>
        <pt x="490" y="184" on="0"/>
        <pt x="516" y="234" on="1"/>
        <pt x="566" y="234" on="1"/>
        <pt x="508" y="0" on="1"/>
      </contour>
    </TTGlyph>
    <TTGlyph name="M" xMin="-18" yMin="0" xMax="1004" yMax="658">
      <contour>
        <pt x="-18" y="0" on="1"/>
        <pt x="-3" y="66" on="1"/>
        <pt x="97" y="66" on="1"/>
        <pt x="228" y="592" on="1"/>
        <pt x="126" y="592" on="1"/>
        <pt x="142" y="658" on="1"/>
        <pt x="403" y="658" on="1"/>
        <pt x="444" y="166" on="1"/>
        <pt x="447" y="166" on="1"/>
        <pt x="732" y="658" on="1"/>
        <pt x="1004" y="658" on="1"/>
        <pt x="988" y="592" on="1"/>
        <pt x="883" y="592" on="1"/>
        <pt x="752" y="66" on="1"/>
        <pt x="859" y="66" on="1"/>
        <pt x="844" y="0" on="1"/>
        <pt x="550" y="0" on="1"/>
        <pt x="565" y="66" on="1"/>
        <pt x="649" y="66" on="1"/>
        <pt x="778" y="584" on="1"/>
        <pt x="767" y="584" on="1"/>
        <pt x="416" y="0" on="1"/>
        <pt x="366" y="0" on="1"/>
        <pt x="308" y="584" on="1"/>
        <pt x="299" y="584" on="1"/>
        <pt x="170" y="66" on="1"/>
        <pt x="262" y="66" on="1"/>
        <pt x="247" y="0" on="1"/>
      </contour>
    </TTGlyph>
    <TTGlyph name="N" xMin="-18" yMin="-16" xMax="860" yMax="658">
      <contour>
        <pt x="524" y="-16" on="1"/>
        <pt x="295" y="532" on="1"/>
        <pt x="286" y="532" on="1"/>
        <pt x="170" y="66" on="1"/>
        <pt x="272" y="66" on="1"/>
        <pt x="257" y="0" on="1"/>
        <pt x="-18" y="0" on="1"/>
        <pt x="-3" y="66" on="1"/>
        <pt x="96" y="66" on="1"/>
        <pt x="227" y="592" on="1"/>
        <pt x="126" y="592" on="1"/>
        <pt x="142" y="658" on="1"/>
        <pt x="353" y="658" on="1"/>
        <pt x="557" y="174" on="1"/>
        <pt x="566" y="174" on="1"/>
        <pt x="670" y="592" on="1"/>
        <pt x="568" y="592" on="1"/>
        <pt x="584" y="658" on="1"/>
        <pt x="860" y="658" on="1"/>
        <pt x="844" y="592" on="1"/>
        <pt x="744" y="592" on="1"/>
        <pt x="592" y="-16" on="1"/>
      </contour>
    </TTGlyph>
    <TTGlyph name="Nacute" xMin="-18" yMin="-16" xMax="860" yMax="939">
      <component glyphName="N" x="0" y="0" flags="0x204"/>
      <component glyphName="acute" x="328" y="208" flags="0x4"/>
    </TTGlyph>
    <TTGlyph name="Ncaron" xMin="-18" yMin="-16" xMax="860" yMax="934">
      <component glyphName="N" x="0" y="0" flags="0x204"/>
      <component glyphName="caron" x="259" y="208" flags="0x4"/>
    </TTGlyph>
    <TTGlyph name="Ntilde" xMin="-18" yMin="-16" xMax="860" yMax="878">
      <component glyphName="N" x="0" y="0" flags="0x204"/>
      <component glyphName="tilde" x="261" y="208" flags="0x4"/>
    </TTGlyph>
    <TTGlyph name="O" xMin="65" yMin="-16" xMax="697" yMax="674">
      <contour>
        <pt x="335" y="-16" on="1"/>
        <pt x="276" y="-16" on="0"/>
        <pt x="176" y="26" on="0"/>
        <pt x="105" y="101" on="0"/>
        <pt x="65" y="208" on="0"/>
        <pt x="65" y="271" on="1"/>
        <pt x="65" y="349" on="0"/>
        <pt x="122" y="495" on="0"/>
        <pt x="219" y="607" on="0"/>
        <pt x="352" y="674" on="0"/>
        <pt x="427" y="674" on="1"/>
        <pt x="486" y="674" on="0"/>
        <pt x="586" y="632" on="0"/>
        <pt x="657" y="557" on="0"/>
        <pt x="697" y="450" on="0"/>
        <pt x="697" y="387" on="1"/>
        <pt x="697" y="309" on="0"/>
        <pt x="640" y="163" on="0"/>
        <pt x="543" y="51" on="0"/>
        <pt x="410" y="-16" on="0"/>
      </contour>
      <contour>
        <pt x="343" y="50" on="1"/>
        <pt x="407" y="50" on="0"/>
        <pt x="500" y="128" on="0"/>
        <pt x="558" y="241" on="0"/>
        <pt x="586" y="371" on="0"/>
        <pt x="586" y="422" on="1"/>
        <pt x="586" y="514" on="0"/>
        <pt x="497" y="608" on="0"/>
        <pt x="419" y="608" on="1"/>
        <pt x="355" y="608" on="0"/>
        <pt x="262" y="530" on="0"/>
        <pt x="204" y="417" on="0"/>
        <pt x="176" y="287" on="0"/>
        <pt x="176" y="236" on="1"/>
        <pt x="176" y="144" on="0"/>
        <pt x="265" y="50" on="0"/>
      </contour>
    </TTGlyph>
    <TTGlyph name="OE" xMin="51" yMin="0" xMax="1031" yMax="658">
      <contour>
        <pt x="358" y="0" on="1"/>
        <pt x="284" y="0" on="0"/>
        <pt x="170" y="39" on="0"/>
        <pt x="92" y="106" on="0"/>
        <pt x="51" y="199" on="0"/>
        <pt x="51" y="253" on="1"/>
        <pt x="51" y="322" on="0"/>
        <pt x="113" y="477" on="0"/>
        <pt x="170" y="534" on="1"/>
        <pt x="227" y="591" on="0"/>
        <pt x="398" y="658" on="0"/>
        <pt x="507" y="658" on="1"/>
        <pt x="1031" y="658" on="1"/>
        <pt x="978" y="444" on="1"/>
        <pt x="932" y="444" on="1"/>
        <pt x="929" y="488" on="0"/>
        <pt x="922" y="546" on="0"/>
        <pt x="903" y="579" on="0"/>
        <pt x="868" y="592" on="0"/>
        <pt x="838" y="592" on="1"/>
        <pt x="658" y="592" on="1"/>
        <pt x="602" y="366" on="1"/>
        <pt x="657" y="366" on="1"/>
        <pt x="685" y="366" on="0"/>
        <pt x="721" y="372" on="0"/>
        <pt x="748" y="393" on="0"/>
        <pt x="772" y="433" on="0"/>
        <pt x="787" y="467" on="1"/>
        <pt x="841" y="467" on="1"/>
        <pt x="776" y="205" on="1"/>
        <pt x="724" y="205" on="1"/>
        <pt x="729" y="274" on="0"/>
        <pt x="704" y="310" on="0"/>
        <pt x="651" y="310" on="1"/>
        <pt x="588" y="310" on="1"/>
        <pt x="527" y="66" on="1"/>
        <pt x="713" y="66" on="1"/>
        <pt x="745" y="66" on="0"/>
        <pt x="786" y="80" on="0"/>
        <pt x="821" y="117" on="0"/>
        <pt x="858" y="183" on="0"/>
        <pt x="884" y="234" on="1"/>
        <pt x="934" y="234" on="1"/>
        <pt x="876" y="0" on="1"/>
      </contour>
      <contour>
        <pt x="363" y="66" on="1"/>
        <pt x="424" y="66" on="1"/>
        <pt x="555" y="592" on="1"/>
        <pt x="497" y="592" on="1"/>
        <pt x="423" y="592" on="0"/>
        <pt x="314" y="557" on="0"/>
        <pt x="274" y="517" on="1"/>
        <pt x="251" y="494" on="0"/>
        <pt x="212" y="427" on="0"/>
        <pt x="184" y="351" on="0"/>
        <pt x="168" y="271" on="0"/>
        <pt x="168" y="235" on="1"/>
        <pt x="168" y="153" on="0"/>
        <pt x="267" y="66" on="0"/>
      </contour>
    </TTGlyph>
    <TTGlyph name="Oacute" xMin="65" yMin="-16" xMax="697" yMax="939">
      <component glyphName="O" x="0" y="0" flags="0x204"/>
      <component glyphName="acute" x="296" y="208" flags="0x4"/>
    </TTGlyph>
    <TTGlyph name="Obreve" xMin="65" yMin="-16" xMax="697" yMax="905">
      <component glyphName="O" x="0" y="0" flags="0x204"/>
      <component glyphName="breve" x="213" y="208" flags="0x4"/>
    </TTGlyph>
    <TTGlyph name="Ocircumflex" xMin="65" yMin="-16" xMax="697" yMax="925">
      <component glyphName="O" x="0" y="0" flags="0x204"/>
      <component glyphName="circumflex" x="238" y="208" flags="0x4"/>
    </TTGlyph>
    <TTGlyph name="Odieresis" xMin="65" yMin="-16" xMax="697" yMax="890">
      <component glyphName="O" x="0" y="0" flags="0x204"/>
      <component glyphName="dieresis" x="233" y="208" flags="0x4"/>
    </TTGlyph>
    <TTGlyph name="Ograve" xMin="65" yMin="-16" xMax="697" yMax="938">
      <component glyphName="O" x="0" y="0" flags="0x204"/>
      <component glyphName="grave" x="231" y="208" flags="0x4"/>
    </TTGlyph>
    <TTGlyph name="Ohungarumlaut" xMin="65" yMin="-16" xMax="716" yMax="939">
      <component glyphName="O" x="0" y="0" flags="0x204"/>
      <component glyphName="hungarumlaut" x="296" y="208" flags="0x4"/>
    </TTGlyph>
    <TTGlyph name="Omacron" xMin="65" yMin="-16" xMax="697" yMax="833">
      <component glyphName="O" x="0" y="0" flags="0x204"/>
      <component glyphName="macron" x="233" y="208" flags="0x4"/>
    </TTGlyph>
    <TTGlyph name="Oslash" xMin="12" yMin="-53" xMax="750" yMax="711">
      <contour>
        <pt x="57" y="-53" on="1"/>
        <pt x="12" y="-14" on="1"/>
        <pt x="116" y="95" on="1"/>
        <pt x="91" y="130" on="0"/>
        <pt x="65" y="220" on="0"/>
        <pt x="65" y="271" on="1"/>
        <pt x="65" y="349" on="0"/>
        <pt x="122" y="495" on="0"/>
        <pt x="219" y="607" on="0"/>
        <pt x="352" y="674" on="0"/>
        <pt x="427" y="674" on="1"/>
        <pt x="481" y="674" on="0"/>
        <pt x="574" y="639" on="0"/>
        <pt x="609" y="607" on="1"/>
        <pt x="705" y="711" on="1"/>
        <pt x="750" y="672" on="1"/>
        <pt x="646" y="563" on="1"/>
        <pt x="671" y="528" on="0"/>
        <pt x="697" y="438" on="0"/>
        <pt x="697" y="387" on="1"/>
        <pt x="697" y="309" on="0"/>
        <pt x="640" y="163" on="0"/>
        <pt x="543" y="51" on="0"/>
        <pt x="410" y="-16" on="0"/>
        <pt x="335" y="-16" on="1"/>
        <pt x="281" y="-16" on="0"/>
        <pt x="188" y="19" on="0"/>
        <pt x="153" y="51" on="1"/>
      </contour>
      <contour>
        <pt x="176" y="236" on="1"/>
        <pt x="176" y="215" on="0"/>
        <pt x="181" y="176" on="0"/>
        <pt x="186" y="160" on="1"/>
        <pt x="551" y="550" on="1"/>
        <pt x="530" y="578" on="0"/>
        <pt x="463" y="608" on="0"/>
        <pt x="419" y="608" on="1"/>
        <pt x="355" y="608" on="0"/>
        <pt x="262" y="530" on="0"/>
        <pt x="204" y="417" on="0"/>
        <pt x="176" y="287" on="0"/>
      </contour>
      <contour>
        <pt x="343" y="50" on="1"/>
        <pt x="407" y="50" on="0"/>
        <pt x="500" y="128" on="0"/>
        <pt x="558" y="241" on="0"/>
        <pt x="586" y="371" on="0"/>
        <pt x="586" y="422" on="1"/>
        <pt x="586" y="444" on="0"/>
        <pt x="581" y="482" on="0"/>
        <pt x="576" y="498" on="1"/>
        <pt x="211" y="108" on="1"/>
        <pt x="232" y="80" on="0"/>
        <pt x="299" y="50" on="0"/>
      </contour>
    </TTGlyph>
    <TTGlyph name="Oslashacute" xMin="12" yMin="-53" xMax="750" yMax="939">
      <component glyphName="Oslash" x="0" y="0" flags="0x204"/>
      <component glyphName="acute" x="295" y="208" flags="0x4"/>
    </TTGlyph>
    <TTGlyph name="Otilde" xMin="65" yMin="-16" xMax="697" yMax="878">
      <component glyphName="O" x="0" y="0" flags="0x204"/>
      <component glyphName="tilde" x="229" y="208" flags="0x4"/>
    </TTGlyph>
    <TTGlyph name="P" xMin="-24" yMin="0" xMax="646" yMax="658">
      <contour>
        <pt x="-24" y="0" on="1"/>
        <pt x="-9" y="66" on="1"/>
        <pt x="101" y="66" on="1"/>
        <pt x="232" y="592" on="1"/>
        <pt x="120" y="592" on="1"/>
        <pt x="136" y="658" on="1"/>
        <pt x="404" y="658" on="1"/>
        <pt x="468" y="658" on="0"/>
        <pt x="560" y="631" on="0"/>
        <pt x="619" y="585" on="0"/>
        <pt x="646" y="525" on="0"/>
        <pt x="646" y="493" on="1"/>
        <pt x="646" y="458" on="0"/>
        <pt x="618" y="380" on="0"/>
        <pt x="548" y="314" on="0"/>
        <pt x="426" y="270" on="0"/>
        <pt x="333" y="270" on="1"/>
        <pt x="255" y="270" on="1"/>
        <pt x="204" y="66" on="1"/>
        <pt x="324" y="66" on="1"/>
        <pt x="309" y="0" on="1"/>
      </contour>
      <contour>
        <pt x="270" y="330" on="1"/>
        <pt x="341" y="330" on="1"/>
        <pt x="391" y="330" on="0"/>
        <pt x="462" y="356" on="0"/>
        <pt x="507" y="400" on="0"/>
        <pt x="528" y="459" on="0"/>
        <pt x="528" y="491" on="1"/>
        <pt x="528" y="534" on="0"/>
        <pt x="466" y="592" on="0"/>
        <pt x="383" y="592" on="1"/>
        <pt x="335" y="592" on="1"/>
      </contour>
    </TTGlyph>
    <TTGlyph name="Q" xMin="65" yMin="-107" xMax="697" yMax="674">
      <contour>
        <pt x="335" y="-16" on="1"/>
        <pt x="276" y="-16" on="0"/>
        <pt x="176" y="26" on="0"/>
        <pt x="105" y="101" on="0"/>
        <pt x="65" y="208" on="0"/>
        <pt x="65" y="271" on="1"/>
        <pt x="65" y="349" on="0"/>
        <pt x="122" y="495" on="0"/>
        <pt x="219" y="607" on="0"/>
        <pt x="352" y="674" on="0"/>
        <pt x="427" y="674" on="1"/>
        <pt x="486" y="674" on="0"/>
        <pt x="586" y="632" on="0"/>
        <pt x="657" y="557" on="0"/>
        <pt x="697" y="450" on="0"/>
        <pt x="697" y="387" on="1"/>
        <pt x="697" y="333" on="0"/>
        <pt x="670" y="229" on="0"/>
        <pt x="620" y="138" on="0"/>
        <pt x="550" y="61" on="0"/>
        <pt x="508" y="35" on="1"/>
        <pt x="517" y="10" on="0"/>
        <pt x="542" y="-24" on="0"/>
        <pt x="564" y="-24" on="1"/>
        <pt x="588" y="-24" on="0"/>
        <pt x="621" y="7" on="0"/>
        <pt x="643" y="59" on="1"/>
        <pt x="692" y="42" on="1"/>
        <pt x="670" y="-27" on="0"/>
        <pt x="597" y="-107" on="0"/>
        <pt x="547" y="-107" on="1"/>
        <pt x="493" y="-107" on="0"/>
        <pt x="440" y="-45" on="0"/>
        <pt x="426" y="-2" on="1"/>
        <pt x="404" y="-9" on="0"/>
        <pt x="359" y="-16" on="0"/>
      </contour>
      <contour>
        <pt x="333" y="244" on="1"/>
        <pt x="369" y="244" on="0"/>
        <pt x="420" y="222" on="0"/>
        <pt x="455" y="187" on="0"/>
        <pt x="477" y="140" on="0"/>
        <pt x="485" y="116" on="1"/>
        <pt x="511" y="146" on="0"/>
        <pt x="549" y="224" on="0"/>
        <pt x="574" y="307" on="0"/>
        <pt x="586" y="388" on="0"/>
        <pt x="586" y="422" on="1"/>
        <pt x="586" y="514" on="0"/>
        <pt x="497" y="608" on="0"/>
        <pt x="419" y="608" on="1"/>
        <pt x="355" y="608" on="0"/>
        <pt x="262" y="530" on="0"/>
        <pt x="204" y="417" on="0"/>
        <pt x="176" y="287" on="0"/>
        <pt x="176" y="236" on="1"/>
        <pt x="176" y="210" on="0"/>
        <pt x="186" y="155" on="0"/>
        <pt x="194" y="142" on="1"/>
        <pt x="210" y="189" on="0"/>
        <pt x="276" y="244" on="0"/>
      </contour>
      <contour>
        <pt x="244" y="116" on="1"/>
        <pt x="244" y="87" on="0"/>
        <pt x="302" y="48" on="0"/>
        <pt x="343" y="48" on="1"/>
        <pt x="360" y="48" on="0"/>
        <pt x="393" y="54" on="0"/>
        <pt x="408" y="60" on="1"/>
        <pt x="395" y="107" on="0"/>
        <pt x="357" y="179" on="0"/>
        <pt x="312" y="179" on="1"/>
        <pt x="281" y="179" on="0"/>
        <pt x="244" y="139" on="0"/>
      </contour>
    </TTGlyph>
    <TTGlyph name="R" xMin="-24" yMin="-11" xMax="660" yMax="658">
      <contour>
        <pt x="543" y="-11" on="1"/>
        <pt x="494" y="-11" on="0"/>
        <pt x="437" y="32" on="0"/>
        <pt x="437" y="77" on="1"/>
        <pt x="437" y="109" on="0"/>
        <pt x="458" y="192" on="0"/>
        <pt x="458" y="229" on="1"/>
        <pt x="458" y="257" on="0"/>
        <pt x="420" y="290" on="0"/>
        <pt x="366" y="290" on="1"/>
        <pt x="260" y="290" on="1"/>
        <pt x="204" y="66" on="1"/>
        <pt x="310" y="66" on="1"/>
        <pt x="295" y="0" on="1"/>
        <pt x="-24" y="0" on="1"/>
        <pt x="-9" y="66" on="1"/>
        <pt x="101" y="66" on="1"/>
        <pt x="232" y="592" on="1"/>
        <pt x="120" y="592" on="1"/>
        <pt x="136" y="658" on="1"/>
        <pt x="448" y="658" on="1"/>
        <pt x="510" y="658" on="0"/>
        <pt x="592" y="632" on="0"/>
        <pt x="640" y="589" on="0"/>
        <pt x="660" y="535" on="0"/>
        <pt x="660" y="508" on="1"/>
        <pt x="660" y="476" on="0"/>
        <pt x="638" y="413" on="0"/>
        <pt x="589" y="362" on="0"/>
        <pt x="511" y="327" on="0"/>
        <pt x="457" y="322" on="1"/>
        <pt x="454" y="313" on="1"/>
        <pt x="512" y="298" on="0"/>
        <pt x="557" y="243" on="0"/>
        <pt x="557" y="195" on="1"/>
        <pt x="557" y="171" on="0"/>
        <pt x="548" y="116" on="0"/>
        <pt x="548" y="94" on="1"/>
        <pt x="548" y="70" on="0"/>
        <pt x="569" y="54" on="0"/>
        <pt x="589" y="54" on="1"/>
        <pt x="600" y="54" on="0"/>
        <pt x="628" y="62" on="0"/>
        <pt x="644" y="69" on="1"/>
        <pt x="660" y="25" on="1"/>
        <pt x="636" y="9" on="0"/>
        <pt x="573" y="-11" on="0"/>
      </contour>
      <contour>
        <pt x="275" y="350" on="1"/>
        <pt x="369" y="350" on="1"/>
        <pt x="416" y="350" on="0"/>
        <pt x="481" y="372" on="0"/>
        <pt x="500" y="391" on="1"/>
        <pt x="520" y="411" on="0"/>
        <pt x="544" y="479" on="0"/>
        <pt x="544" y="510" on="1"/>
        <pt x="543" y="547" on="0"/>
        <pt x="493" y="592" on="0"/>
        <pt x="434" y="592" on="1"/>
        <pt x="335" y="592" on="1"/>
      </contour>
    </TTGlyph>
    <TTGlyph name="R_p" xMin="-24" yMin="-143" xMax="1052" yMax="634">
      <contour>
        <pt x="519" y="-11" on="1"/>
        <pt x="479" y="-11" on="0"/>
        <pt x="422" y="28" on="0"/>
        <pt x="422" y="74" on="1"/>
        <pt x="422" y="105" on="0"/>
        <pt x="445" y="183" on="0"/>
        <pt x="445" y="218" on="1"/>
        <pt x="445" y="246" on="0"/>
        <pt x="406" y="277" on="0"/>
        <pt x="354" y="277" on="1"/>
        <pt x="251" y="277" on="1"/>
        <pt x="198" y="65" on="1"/>
        <pt x="300" y="65" on="1"/>
        <pt x="284" y="0" on="1"/>
        <pt x="-24" y="0" on="1"/>
        <pt x="-8" y="65" on="1"/>
        <pt x="99" y="65" on="1"/>
        <pt x="225" y="570" on="1"/>
        <pt x="117" y="570" on="1"/>
        <pt x="133" y="634" on="1"/>
        <pt x="426" y="634" on="1"/>
        <pt x="483" y="634" on="0"/>
        <pt x="560" y="609" on="0"/>
        <pt x="605" y="568" on="0"/>
        <pt x="623" y="515" on="0"/>
        <pt x="623" y="489" on="1"/>
        <pt x="623" y="458" on="0"/>
        <pt x="602" y="397" on="0"/>
        <pt x="558" y="348" on="0"/>
        <pt x="486" y="313" on="0"/>
        <pt x="436" y="308" on="1"/>
        <pt x="433" y="299" on="1"/>
        <pt x="492" y="285" on="0"/>
        <pt x="538" y="232" on="0"/>
        <pt x="538" y="195" on="1"/>
        <pt x="538" y="168" on="0"/>
        <pt x="527" y="116" on="0"/>
        <pt x="527" y="94" on="1"/>
        <pt x="527" y="71" on="0"/>
        <pt x="548" y="55" on="0"/>
        <pt x="564" y="55" on="1"/>
        <pt x="598" y="55" on="0"/>
        <pt x="656" y="128" on="0"/>
        <pt x="677" y="206" on="1"/>
        <pt x="716" y="362" on="1"/>
        <pt x="651" y="362" on="1"/>
        <pt x="667" y="428" on="1"/>
        <pt x="813" y="428" on="1"/>
        <pt x="789" y="336" on="1"/>
        <pt x="797" y="333" on="1"/>
        <pt x="822" y="382" on="0"/>
        <pt x="897" y="436" on="0"/>
        <pt x="933" y="436" on="1"/>
        <pt x="987" y="436" on="0"/>
        <pt x="1052" y="350" on="0"/>
        <pt x="1052" y="287" on="1"/>
        <pt x="1052" y="227" on="0"/>
        <pt x="1013" y="121" on="0"/>
        <pt x="950" y="44" on="0"/>
        <pt x="870" y="-1" on="0"/>
        <pt x="830" y="-1" on="1"/>
        <pt x="795" y="-1" on="0"/>
        <pt x="743" y="35" on="0"/>
        <pt x="730" y="61" on="1"/>
        <pt x="695" y="-77" on="1"/>
        <pt x="784" y="-77" on="1"/>
        <pt x="768" y="-143" on="1"/>
        <pt x="523" y="-143" on="1"/>
        <pt x="539" y="-77" on="1"/>
        <pt x="606" y="-77" on="1"/>
        <pt x="644" y="75" on="1"/>
        <pt x="624" y="36" on="0"/>
        <pt x="562" y="-11" on="0"/>
      </contour>
      <contour>
        <pt x="265" y="335" on="1"/>
        <pt x="352" y="335" on="1"/>
        <pt x="395" y="335" on="0"/>
        <pt x="454" y="356" on="0"/>
        <pt x="471" y="375" on="1"/>
        <pt x="490" y="394" on="0"/>
        <pt x="512" y="459" on="0"/>
        <pt x="512" y="489" on="1"/>
        <pt x="511" y="525" on="0"/>
        <pt x="466" y="568" on="0"/>
        <pt x="413" y="568" on="1"/>
        <pt x="324" y="568" on="1"/>
      </contour>
      <contour>
        <pt x="823" y="54" on="1"/>
        <pt x="855" y="54" on="0"/>
        <pt x="904" y="107" on="0"/>
        <pt x="937" y="180" on="0"/>
        <pt x="954" y="260" on="0"/>
        <pt x="954" y="286" on="1"/>
        <pt x="954" y="326" on="0"/>
        <pt x="928" y="368" on="0"/>
        <pt x="900" y="368" on="1"/>
        <pt x="873" y="368" on="0"/>
        <pt x="821" y="316" on="0"/>
        <pt x="781" y="244" on="0"/>
        <pt x="756" y="163" on="0"/>
        <pt x="756" y="135" on="1"/>
        <pt x="756" y="100" on="0"/>
        <pt x="788" y="54" on="0"/>
      </contour>
    </TTGlyph>
    <TTGlyph name="Racute" xMin="-24" yMin="-11" xMax="660" yMax="939">
      <component glyphName="R" x="0" y="0" flags="0x204"/>
      <component glyphName="acute" x="288" y="208" flags="0x4"/>
    </TTGlyph>
    <TTGlyph name="Rcaron" xMin="-24" yMin="-11" xMax="660" yMax="934">
      <component glyphName="R" x="0" y="0" flags="0x204"/>
      <component glyphName="caron" x="219" y="208" flags="0x4"/>
    </TTGlyph>
    <TTGlyph name="S" xMin="-8" yMin="-16" xMax="619" yMax="674">
      <contour>
        <pt x="282" y="-16" on="1"/>
        <pt x="220" y="-16" on="0"/>
        <pt x="127" y="27" on="0"/>
        <pt x="102" y="61" on="1"/>
        <pt x="58" y="-13" on="1"/>
        <pt x="-8" y="-13" on="1"/>
        <pt x="52" y="230" on="1"/>
        <pt x="111" y="230" on="1"/>
        <pt x="129" y="137" on="0"/>
        <pt x="224" y="46" on="0"/>
        <pt x="287" y="46" on="1"/>
        <pt x="320" y="46" on="0"/>
        <pt x="371" y="67" on="0"/>
        <pt x="405" y="99" on="0"/>
        <pt x="423" y="140" on="0"/>
        <pt x="423" y="160" on="1"/>
        <pt x="423" y="183" on="0"/>
        <pt x="400" y="219" on="0"/>
        <pt x="362" y="248" on="0"/>
        <pt x="311" y="273" on="0"/>
        <pt x="285" y="286" on="1"/>
        <pt x="255" y="300" on="0"/>
        <pt x="196" y="332" on="0"/>
        <pt x="148" y="374" on="0"/>
        <pt x="119" y="430" on="0"/>
        <pt x="119" y="467" on="1"/>
        <pt x="119" y="505" on="0"/>
        <pt x="153" y="579" on="0"/>
        <pt x="214" y="638" on="0"/>
        <pt x="300" y="674" on="0"/>
        <pt x="350" y="674" on="1"/>
        <pt x="401" y="674" on="0"/>
        <pt x="491" y="633" on="0"/>
        <pt x="513" y="599" on="1"/>
        <pt x="553" y="671" on="1"/>
        <pt x="619" y="671" on="1"/>
        <pt x="560" y="437" on="1"/>
        <pt x="502" y="437" on="1"/>
        <pt x="482" y="536" on="0"/>
        <pt x="407" y="613" on="0"/>
        <pt x="343" y="613" on="1"/>
        <pt x="291" y="613" on="0"/>
        <pt x="225" y="544" on="0"/>
        <pt x="225" y="503" on="1"/>
        <pt x="225" y="478" on="0"/>
        <pt x="249" y="440" on="0"/>
        <pt x="287" y="411" on="0"/>
        <pt x="338" y="387" on="0"/>
        <pt x="365" y="375" on="1"/>
        <pt x="394" y="362" on="0"/>
        <pt x="453" y="332" on="0"/>
        <pt x="499" y="291" on="0"/>
        <pt x="528" y="235" on="0"/>
        <pt x="528" y="197" on="1"/>
        <pt x="528" y="154" on="0"/>
        <pt x="490" y="76" on="0"/>
        <pt x="424" y="18" on="0"/>
        <pt x="333" y="-16" on="0"/>
      </contour>
    </TTGlyph>
    <TTGlyph name="Sacute" xMin="-8" yMin="-16" xMax="619" yMax="939">
      <component glyphName="S" x="0" y="0" flags="0x204"/>
      <component glyphName="acute" x="241" y="208" flags="0x4"/>
    </TTGlyph>
    <TTGlyph name="Scaron" xMin="-8" yMin="-16" xMax="619" yMax="934">
      <component glyphName="S" x="0" y="0" flags="0x204"/>
      <component glyphName="caron" x="172" y="208" flags="0x4"/>
    </TTGlyph>
    <TTGlyph name="Scedilla" xMin="-8" yMin="-243" xMax="619" yMax="674">
      <contour>
        <pt x="212" y="-243" on="1"/>
        <pt x="185" y="-243" on="0"/>
        <pt x="125" y="-222" on="0"/>
        <pt x="103" y="-201" on="1"/>
        <pt x="131" y="-167" on="1"/>
        <pt x="150" y="-181" on="0"/>
        <pt x="185" y="-195" on="0"/>
        <pt x="208" y="-195" on="1"/>
        <pt x="229" y="-195" on="0"/>
        <pt x="256" y="-174" on="0"/>
        <pt x="256" y="-155" on="1"/>
        <pt x="256" y="-130" on="0"/>
        <pt x="203" y="-111" on="0"/>
        <pt x="169" y="-114" on="1"/>
        <pt x="158" y="-91" on="1"/>
        <pt x="246" y="-14" on="1"/>
        <pt x="197" y="-8" on="0"/>
        <pt x="124" y="33" on="0"/>
        <pt x="102" y="61" on="1"/>
        <pt x="58" y="-13" on="1"/>
        <pt x="-8" y="-13" on="1"/>
        <pt x="52" y="230" on="1"/>
        <pt x="111" y="230" on="1"/>
        <pt x="129" y="137" on="0"/>
        <pt x="224" y="46" on="0"/>
        <pt x="287" y="46" on="1"/>
        <pt x="320" y="46" on="0"/>
        <pt x="371" y="67" on="0"/>
        <pt x="405" y="99" on="0"/>
        <pt x="423" y="140" on="0"/>
        <pt x="423" y="160" on="1"/>
        <pt x="423" y="183" on="0"/>
        <pt x="400" y="219" on="0"/>
        <pt x="362" y="248" on="0"/>
        <pt x="311" y="273" on="0"/>
        <pt x="285" y="286" on="1"/>
        <pt x="255" y="300" on="0"/>
        <pt x="196" y="332" on="0"/>
        <pt x="148" y="374" on="0"/>
        <pt x="119" y="430" on="0"/>
        <pt x="119" y="467" on="1"/>
        <pt x="119" y="505" on="0"/>
        <pt x="153" y="579" on="0"/>
        <pt x="214" y="638" on="0"/>
        <pt x="300" y="674" on="0"/>
        <pt x="350" y="674" on="1"/>
        <pt x="401" y="674" on="0"/>
        <pt x="491" y="633" on="0"/>
        <pt x="513" y="599" on="1"/>
        <pt x="553" y="671" on="1"/>
        <pt x="619" y="671" on="1"/>
        <pt x="560" y="437" on="1"/>
        <pt x="502" y="437" on="1"/>
        <pt x="482" y="536" on="0"/>
        <pt x="407" y="613" on="0"/>
        <pt x="343" y="613" on="1"/>
        <pt x="291" y="613" on="0"/>
        <pt x="225" y="544" on="0"/>
        <pt x="225" y="503" on="1"/>
        <pt x="225" y="478" on="0"/>
        <pt x="249" y="440" on="0"/>
        <pt x="287" y="411" on="0"/>
        <pt x="338" y="387" on="0"/>
        <pt x="365" y="375" on="1"/>
        <pt x="394" y="362" on="0"/>
        <pt x="453" y="332" on="0"/>
        <pt x="499" y="291" on="0"/>
        <pt x="528" y="235" on="0"/>
        <pt x="528" y="197" on="1"/>
        <pt x="528" y="156" on="0"/>
        <pt x="494" y="82" on="0"/>
        <pt x="434" y="25" on="0"/>
        <pt x="351" y="-12" on="0"/>
        <pt x="304" y="-15" on="1"/>
        <pt x="245" y="-66" on="1"/>
        <pt x="245" y="-70" on="1"/>
        <pt x="277" y="-75" on="0"/>
        <pt x="324" y="-115" on="0"/>
        <pt x="324" y="-148" on="1"/>
        <pt x="324" y="-182" on="0"/>
        <pt x="272" y="-243" on="0"/>
      </contour>
    </TTGlyph>
    <TTGlyph name="T" xMin="84" yMin="0" xMax="726" yMax="658">
      <contour>
        <pt x="107" y="0" on="1"/>
        <pt x="122" y="66" on="1"/>
        <pt x="235" y="66" on="1"/>
        <pt x="369" y="602" on="1"/>
        <pt x="328" y="602" on="1"/>
        <pt x="297" y="602" on="0"/>
        <pt x="254" y="589" on="0"/>
        <pt x="212" y="551" on="0"/>
        <pt x="166" y="481" on="0"/>
        <pt x="132" y="424" on="1"/>
        <pt x="84" y="424" on="1"/>
        <pt x="143" y="658" on="1"/>
        <pt x="726" y="658" on="1"/>
        <pt x="667" y="424" on="1"/>
        <pt x="621" y="424" on="1"/>
        <pt x="618" y="478" on="0"/>
        <pt x="607" y="548" on="0"/>
        <pt x="585" y="587" on="0"/>
        <pt x="546" y="602" on="0"/>
        <pt x="515" y="602" on="1"/>
        <pt x="472" y="602" on="1"/>
        <pt x="338" y="66" on="1"/>
        <pt x="453" y="66" on="1"/>
        <pt x="438" y="0" on="1"/>
      </contour>
    </TTGlyph>
    <TTGlyph name="Tcaron" xMin="84" yMin="0" xMax="726" yMax="934">
      <component glyphName="T" x="0" y="0" flags="0x204"/>
      <component glyphName="caron" x="205" y="208" flags="0x4"/>
    </TTGlyph>
    <TTGlyph name="Thorn" xMin="-24" yMin="0" xMax="615" yMax="658">
      <contour>
        <pt x="-24" y="0" on="1"/>
        <pt x="-9" y="66" on="1"/>
        <pt x="101" y="66" on="1"/>
        <pt x="232" y="592" on="1"/>
        <pt x="120" y="592" on="1"/>
        <pt x="136" y="658" on="1"/>
        <pt x="455" y="658" on="1"/>
        <pt x="439" y="592" on="1"/>
        <pt x="335" y="592" on="1"/>
        <pt x="319" y="527" on="1"/>
        <pt x="379" y="527" on="1"/>
        <pt x="504" y="527" on="0"/>
        <pt x="615" y="432" on="0"/>
        <pt x="615" y="360" on="1"/>
        <pt x="615" y="331" on="0"/>
        <pt x="589" y="260" on="0"/>
        <pt x="522" y="198" on="0"/>
        <pt x="403" y="155" on="0"/>
        <pt x="311" y="155" on="1"/>
        <pt x="226" y="155" on="1"/>
        <pt x="204" y="66" on="1"/>
        <pt x="310" y="66" on="1"/>
        <pt x="295" y="0" on="1"/>
      </contour>
      <contour>
        <pt x="242" y="218" on="1"/>
        <pt x="319" y="218" on="1"/>
        <pt x="368" y="218" on="0"/>
        <pt x="436" y="242" on="0"/>
        <pt x="478" y="282" on="0"/>
        <pt x="497" y="334" on="0"/>
        <pt x="497" y="361" on="1"/>
        <pt x="497" y="410" on="0"/>
        <pt x="437" y="464" on="0"/>
        <pt x="358" y="464" on="1"/>
        <pt x="303" y="464" on="1"/>
      </contour>
    </TTGlyph>
    <TTGlyph name="U" xMin="110" yMin="-17" xMax="825" yMax="658">
      <contour>
        <pt x="361" y="-17" on="1"/>
        <pt x="238" y="-17" on="0"/>
        <pt x="111" y="89" on="0"/>
        <pt x="111" y="166" on="1"/>
        <pt x="111" y="186" on="0"/>
        <pt x="117" y="230" on="0"/>
        <pt x="122" y="251" on="1"/>
        <pt x="207" y="592" on="1"/>
        <pt x="110" y="592" on="1"/>
        <pt x="126" y="658" on="1"/>
        <pt x="420" y="658" on="1"/>
        <pt x="404" y="592" on="1"/>
        <pt x="310" y="592" on="1"/>
        <pt x="224" y="247" on="1"/>
        <pt x="220" y="228" on="0"/>
        <pt x="216" y="193" on="0"/>
        <pt x="216" y="176" on="1"/>
        <pt x="216" y="117" on="0"/>
        <pt x="301" y="53" on="0"/>
        <pt x="370" y="53" on="1"/>
        <pt x="404" y="53" on="0"/>
        <pt x="468" y="76" on="0"/>
        <pt x="490" y="98" on="1"/>
        <pt x="509" y="117" on="0"/>
        <pt x="539" y="177" on="0"/>
        <pt x="548" y="214" on="1"/>
        <pt x="642" y="592" on="1"/>
        <pt x="541" y="592" on="1"/>
        <pt x="557" y="658" on="1"/>
        <pt x="825" y="658" on="1"/>
        <pt x="809" y="592" on="1"/>
        <pt x="716" y="592" on="1"/>
        <pt x="615" y="186" on="1"/>
        <pt x="606" y="150" on="0"/>
        <pt x="575" y="79" on="0"/>
        <pt x="544" y="48" on="1"/>
        <pt x="516" y="20" on="0"/>
        <pt x="426" y="-17" on="0"/>
      </contour>
    </TTGlyph>
    <TTGlyph name="Uacute" xMin="110" yMin="-17" xMax="825" yMax="939">
      <component glyphName="U" x="0" y="0" flags="0x204"/>
      <component glyphName="acute" x="309" y="208" flags="0x4"/>
    </TTGlyph>
    <TTGlyph name="Ubreve" xMin="110" yMin="-17" xMax="825" yMax="905">
      <component glyphName="U" x="0" y="0" flags="0x204"/>
      <component glyphName="breve" x="225" y="208" flags="0x4"/>
    </TTGlyph>
    <TTGlyph name="Ucircumflex" xMin="110" yMin="-17" xMax="825" yMax="925">
      <component glyphName="U" x="0" y="0" flags="0x204"/>
      <component glyphName="circumflex" x="251" y="208" flags="0x4"/>
    </TTGlyph>
    <TTGlyph name="Udieresis" xMin="110" yMin="-17" xMax="825" yMax="890">
      <component glyphName="U" x="0" y="0" flags="0x204"/>
      <component glyphName="dieresis" x="246" y="208" flags="0x4"/>
    </TTGlyph>
    <TTGlyph name="Ugrave" xMin="110" yMin="-17" xMax="825" yMax="938">
      <component glyphName="U" x="0" y="0" flags="0x204"/>
      <component glyphName="grave" x="244" y="208" flags="0x4"/>
    </TTGlyph>
    <TTGlyph name="Uhungarumlaut" xMin="110" yMin="-17" xMax="825" yMax="939">
      <component glyphName="U" x="0" y="0" flags="0x204"/>
      <component glyphName="hungarumlaut" x="310" y="208" flags="0x4"/>
    </TTGlyph>
    <TTGlyph name="Umacron" xMin="110" yMin="-17" xMax="825" yMax="833">
      <component glyphName="U" x="0" y="0" flags="0x204"/>
      <component glyphName="macron" x="246" y="208" flags="0x4"/>
    </TTGlyph>
    <TTGlyph name="Uogonek" xMin="110" yMin="-243" xMax="825" yMax="658">
      <contour>
        <pt x="361" y="-17" on="1"/>
        <pt x="360" y="-17" on="0"/>
        <pt x="356" y="-17" on="0"/>
        <pt x="355" y="-17" on="1"/>
        <pt x="290" y="-71" on="0"/>
        <pt x="254" y="-124" on="0"/>
        <pt x="254" y="-146" on="1"/>
        <pt x="254" y="-163" on="0"/>
        <pt x="278" y="-190" on="0"/>
        <pt x="306" y="-190" on="1"/>
        <pt x="321" y="-190" on="0"/>
        <pt x="353" y="-177" on="0"/>
        <pt x="366" y="-169" on="1"/>
        <pt x="386" y="-206" on="1"/>
        <pt x="364" y="-222" on="0"/>
        <pt x="311" y="-243" on="0"/>
        <pt x="282" y="-243" on="1"/>
        <pt x="236" y="-243" on="0"/>
        <pt x="178" y="-197" on="0"/>
        <pt x="178" y="-157" on="1"/>
        <pt x="178" y="-122" on="0"/>
        <pt x="229" y="-58" on="0"/>
        <pt x="295" y="-12" on="1"/>
        <pt x="204" y="1" on="0"/>
        <pt x="111" y="100" on="0"/>
        <pt x="111" y="166" on="1"/>
        <pt x="111" y="186" on="0"/>
        <pt x="117" y="230" on="0"/>
        <pt x="122" y="251" on="1"/>
        <pt x="207" y="592" on="1"/>
        <pt x="110" y="592" on="1"/>
        <pt x="126" y="658" on="1"/>
        <pt x="420" y="658" on="1"/>
        <pt x="404" y="592" on="1"/>
        <pt x="310" y="592" on="1"/>
        <pt x="224" y="247" on="1"/>
        <pt x="220" y="228" on="0"/>
        <pt x="216" y="193" on="0"/>
        <pt x="216" y="176" on="1"/>
        <pt x="216" y="117" on="0"/>
        <pt x="301" y="53" on="0"/>
        <pt x="370" y="53" on="1"/>
        <pt x="404" y="53" on="0"/>
        <pt x="468" y="76" on="0"/>
        <pt x="490" y="98" on="1"/>
        <pt x="509" y="117" on="0"/>
        <pt x="539" y="177" on="0"/>
        <pt x="548" y="214" on="1"/>
        <pt x="642" y="592" on="1"/>
        <pt x="541" y="592" on="1"/>
        <pt x="557" y="658" on="1"/>
        <pt x="825" y="658" on="1"/>
        <pt x="809" y="592" on="1"/>
        <pt x="716" y="592" on="1"/>
        <pt x="615" y="186" on="1"/>
        <pt x="606" y="150" on="0"/>
        <pt x="575" y="79" on="0"/>
        <pt x="544" y="48" on="1"/>
        <pt x="516" y="20" on="0"/>
        <pt x="426" y="-17" on="0"/>
      </contour>
    </TTGlyph>
    <TTGlyph name="Uring" xMin="110" yMin="-17" xMax="825" yMax="939">
      <component glyphName="U" x="0" y="0" flags="0x204"/>
      <component glyphName="ring" x="279" y="208" flags="0x4"/>
    </TTGlyph>
    <TTGlyph name="V" xMin="66" yMin="-4" xMax="779" yMax="658">
      <contour>
        <pt x="225" y="-4" on="1"/>
        <pt x="157" y="592" on="1"/>
        <pt x="66" y="592" on="1"/>
        <pt x="82" y="658" on="1"/>
        <pt x="382" y="658" on="1"/>
        <pt x="366" y="592" on="1"/>
        <pt x="262" y="592" on="1"/>
        <pt x="310" y="100" on="1"/>
        <pt x="314" y="100" on="1"/>
        <pt x="608" y="592" on="1"/>
        <pt x="525" y="592" on="1"/>
        <pt x="541" y="658" on="1"/>
        <pt x="779" y="658" on="1"/>
        <pt x="763" y="592" on="1"/>
        <pt x="692" y="592" on="1"/>
        <pt x="319" y="-4" on="1"/>
      </contour>
    </TTGlyph>
    <TTGlyph name="W" xMin="66" yMin="-4" xMax="1076" yMax="658">
      <contour>
        <pt x="196" y="-4" on="1"/>
        <pt x="155" y="592" on="1"/>
        <pt x="66" y="592" on="1"/>
        <pt x="82" y="658" on="1"/>
        <pt x="374" y="658" on="1"/>
        <pt x="358" y="592" on="1"/>
        <pt x="260" y="592" on="1"/>
        <pt x="284" y="107" on="1"/>
        <pt x="288" y="107" on="1"/>
        <pt x="531" y="529" on="1"/>
        <pt x="529" y="592" on="1"/>
        <pt x="435" y="592" on="1"/>
        <pt x="451" y="658" on="1"/>
        <pt x="749" y="658" on="1"/>
        <pt x="733" y="592" on="1"/>
        <pt x="629" y="592" on="1"/>
        <pt x="641" y="107" on="1"/>
        <pt x="645" y="107" on="1"/>
        <pt x="907" y="592" on="1"/>
        <pt x="823" y="592" on="1"/>
        <pt x="839" y="658" on="1"/>
        <pt x="1076" y="658" on="1"/>
        <pt x="1060" y="592" on="1"/>
        <pt x="991" y="592" on="1"/>
        <pt x="649" y="-4" on="1"/>
        <pt x="553" y="-4" on="1"/>
        <pt x="536" y="419" on="1"/>
        <pt x="292" y="-4" on="1"/>
      </contour>
    </TTGlyph>
    <TTGlyph name="Wacute" xMin="66" yMin="-4" xMax="1076" yMax="939">
      <component glyphName="W" x="0" y="0" flags="0x204"/>
      <component glyphName="acute" x="427" y="208" flags="0x4"/>
    </TTGlyph>
    <TTGlyph name="Wcircumflex" xMin="66" yMin="-4" xMax="1076" yMax="925">
      <component glyphName="W" x="0" y="0" flags="0x204"/>
      <component glyphName="circumflex" x="369" y="208" flags="0x4"/>
    </TTGlyph>
    <TTGlyph name="Wdieresis" xMin="66" yMin="-4" xMax="1076" yMax="890">
      <component glyphName="W" x="0" y="0" flags="0x204"/>
      <component glyphName="dieresis" x="364" y="208" flags="0x4"/>
    </TTGlyph>
    <TTGlyph name="Wgrave" xMin="66" yMin="-4" xMax="1076" yMax="938">
      <component glyphName="W" x="0" y="0" flags="0x204"/>
      <component glyphName="grave" x="362" y="208" flags="0x4"/>
    </TTGlyph>
    <TTGlyph name="X" xMin="-46" yMin="0" xMax="758" yMax="658">
      <contour>
        <pt x="-46" y="0" on="1"/>
        <pt x="-30" y="66" on="1"/>
        <pt x="48" y="66" on="1"/>
        <pt x="310" y="337" on="1"/>
        <pt x="200" y="592" on="1"/>
        <pt x="110" y="592" on="1"/>
        <pt x="126" y="658" on="1"/>
        <pt x="413" y="658" on="1"/>
        <pt x="397" y="592" on="1"/>
        <pt x="307" y="592" on="1"/>
        <pt x="388" y="391" on="1"/>
        <pt x="576" y="592" on="1"/>
        <pt x="495" y="592" on="1"/>
        <pt x="511" y="658" on="1"/>
        <pt x="758" y="658" on="1"/>
        <pt x="742" y="592" on="1"/>
        <pt x="664" y="592" on="1"/>
        <pt x="419" y="337" on="1"/>
        <pt x="533" y="66" on="1"/>
        <pt x="623" y="66" on="1"/>
        <pt x="607" y="0" on="1"/>
        <pt x="319" y="0" on="1"/>
        <pt x="335" y="66" on="1"/>
        <pt x="428" y="66" on="1"/>
        <pt x="341" y="283" on="1"/>
        <pt x="134" y="66" on="1"/>
        <pt x="217" y="66" on="1"/>
        <pt x="201" y="0" on="1"/>
      </contour>
    </TTGlyph>
    <TTGlyph name="Y" xMin="102" yMin="0" xMax="738" yMax="658">
      <contour>
        <pt x="110" y="0" on="1"/>
        <pt x="125" y="66" on="1"/>
        <pt x="225" y="66" on="1"/>
        <pt x="279" y="281" on="1"/>
        <pt x="182" y="592" on="1"/>
        <pt x="102" y="592" on="1"/>
        <pt x="118" y="658" on="1"/>
        <pt x="400" y="658" on="1"/>
        <pt x="384" y="592" on="1"/>
        <pt x="292" y="592" on="1"/>
        <pt x="367" y="334" on="1"/>
        <pt x="576" y="592" on="1"/>
        <pt x="496" y="592" on="1"/>
        <pt x="512" y="658" on="1"/>
        <pt x="738" y="658" on="1"/>
        <pt x="722" y="592" on="1"/>
        <pt x="649" y="592" on="1"/>
        <pt x="378" y="268" on="1"/>
        <pt x="328" y="66" on="1"/>
        <pt x="430" y="66" on="1"/>
        <pt x="415" y="0" on="1"/>
      </contour>
    </TTGlyph>
    <TTGlyph name="Yacute" xMin="102" yMin="0" xMax="738" yMax="939">
      <component glyphName="Y" x="0" y="0" flags="0x204"/>
      <component glyphName="acute" x="267" y="208" flags="0x4"/>
    </TTGlyph>
    <TTGlyph name="Ycircumflex" xMin="102" yMin="0" xMax="738" yMax="925">
      <component glyphName="Y" x="0" y="0" flags="0x204"/>
      <component glyphName="circumflex" x="209" y="208" flags="0x4"/>
    </TTGlyph>
    <TTGlyph name="Ydieresis" xMin="102" yMin="0" xMax="738" yMax="890">
      <component glyphName="Y" x="0" y="0" flags="0x204"/>
      <component glyphName="dieresis" x="203" y="208" flags="0x4"/>
    </TTGlyph>
    <TTGlyph name="Ygrave" xMin="102" yMin="0" xMax="738" yMax="938">
      <component glyphName="Y" x="0" y="0" flags="0x204"/>
      <component glyphName="grave" x="202" y="208" flags="0x4"/>
    </TTGlyph>
    <TTGlyph name="Z" xMin="-15" yMin="0" xMax="669" yMax="658">
      <contour>
        <pt x="-15" y="0" on="1"/>
        <pt x="-2" y="51" on="1"/>
        <pt x="518" y="592" on="1"/>
        <pt x="342" y="592" on="1"/>
        <pt x="313" y="592" on="0"/>
        <pt x="271" y="584" on="0"/>
        <pt x="232" y="550" on="0"/>
        <pt x="187" y="480" on="0"/>
        <pt x="154" y="420" on="1"/>
        <pt x="108" y="420" on="1"/>
        <pt x="167" y="658" on="1"/>
        <pt x="669" y="658" on="1"/>
        <pt x="656" y="607" on="1"/>
        <pt x="139" y="66" on="1"/>
        <pt x="335" y="66" on="1"/>
        <pt x="364" y="66" on="0"/>
        <pt x="406" y="76" on="0"/>
        <pt x="445" y="113" on="0"/>
        <pt x="490" y="185" on="0"/>
        <pt x="523" y="245" on="1"/>
        <pt x="569" y="245" on="1"/>
        <pt x="508" y="0" on="1"/>
      </contour>
    </TTGlyph>
    <TTGlyph name="Zacute" xMin="-15" yMin="0" xMax="669" yMax="939">
      <component glyphName="Z" x="0" y="0" flags="0x204"/>
      <component glyphName="acute" x="241" y="208" flags="0x4"/>
    </TTGlyph>
    <TTGlyph name="Zcaron" xMin="-15" yMin="0" xMax="669" yMax="934">
      <component glyphName="Z" x="0" y="0" flags="0x204"/>
      <component glyphName="caron" x="172" y="208" flags="0x4"/>
    </TTGlyph>
    <TTGlyph name="Zdotaccent" xMin="-15" yMin="0" xMax="669" yMax="876">
      <component glyphName="Z" x="0" y="0" flags="0x204"/>
      <component glyphName="dotaccent" x="242" y="208" flags="0x4"/>
    </TTGlyph>
    <TTGlyph name="a" xMin="32" yMin="-9" xMax="529" yMax="466">
      <contour>
        <pt x="158" y="-9" on="1"/>
        <pt x="101" y="-9" on="0"/>
        <pt x="32" y="80" on="0"/>
        <pt x="32" y="146" on="1"/>
        <pt x="32" y="221" on="0"/>
        <pt x="85" y="344" on="0"/>
        <pt x="125" y="384" on="1"/>
        <pt x="162" y="421" on="0"/>
        <pt x="247" y="466" on="0"/>
        <pt x="288" y="466" on="1"/>
        <pt x="328" y="466" on="0"/>
        <pt x="371" y="419" on="0"/>
        <pt x="375" y="388" on="1"/>
        <pt x="394" y="460" on="1"/>
        <pt x="486" y="460" on="1"/>
        <pt x="403" y="153" on="1"/>
        <pt x="397" y="131" on="0"/>
        <pt x="391" y="100" on="0"/>
        <pt x="391" y="89" on="1"/>
        <pt x="391" y="77" on="0"/>
        <pt x="402" y="63" on="0"/>
        <pt x="415" y="63" on="1"/>
        <pt x="434" y="63" on="0"/>
        <pt x="468" y="119" on="0"/>
        <pt x="485" y="166" on="1"/>
        <pt x="529" y="153" on="1"/>
        <pt x="499" y="60" on="0"/>
        <pt x="425" y="-9" on="0"/>
        <pt x="386" y="-9" on="1"/>
        <pt x="355" y="-9" on="0"/>
        <pt x="312" y="33" on="0"/>
        <pt x="312" y="73" on="1"/>
        <pt x="312" y="78" on="0"/>
        <pt x="312" y="87" on="0"/>
        <pt x="313" y="94" on="1"/>
        <pt x="306" y="97" on="1"/>
        <pt x="278" y="46" on="0"/>
        <pt x="198" y="-9" on="0"/>
      </contour>
      <contour>
        <pt x="195" y="62" on="1"/>
        <pt x="227" y="62" on="0"/>
        <pt x="284" y="122" on="0"/>
        <pt x="325" y="206" on="0"/>
        <pt x="349" y="297" on="0"/>
        <pt x="349" y="327" on="1"/>
        <pt x="349" y="367" on="0"/>
        <pt x="318" y="410" on="0"/>
        <pt x="290" y="410" on="1"/>
        <pt x="253" y="410" on="0"/>
        <pt x="194" y="354" on="0"/>
        <pt x="153" y="276" on="0"/>
        <pt x="130" y="190" on="0"/>
        <pt x="130" y="161" on="1"/>
        <pt x="130" y="115" on="0"/>
        <pt x="162" y="62" on="0"/>
      </contour>
    </TTGlyph>
    <TTGlyph name="aacute" xMin="32" yMin="-9" xMax="529" yMax="731">
      <component glyphName="a" x="0" y="0" flags="0x204"/>
      <component glyphName="acute" x="147" y="0" flags="0x4"/>
    </TTGlyph>
    <TTGlyph name="abreve" xMin="32" yMin="-9" xMax="529" yMax="697">
      <component glyphName="a" x="0" y="0" flags="0x204"/>
      <component glyphName="breve" x="64" y="0" flags="0x4"/>
    </TTGlyph>
    <TTGlyph name="acircumflex" xMin="32" yMin="-9" xMax="529" yMax="717">
      <component glyphName="a" x="0" y="0" flags="0x204"/>
      <component glyphName="circumflex" x="89" y="0" flags="0x4"/>
    </TTGlyph>
    <TTGlyph name="acute" xMin="132" yMin="533" xMax="327" yMax="731">
      <contour>
        <pt x="132" y="533" on="1"/>
        <pt x="215" y="668" on="1"/>
        <pt x="234" y="699" on="0"/>
        <pt x="264" y="731" on="0"/>
        <pt x="285" y="731" on="1"/>
        <pt x="304" y="731" on="0"/>
        <pt x="327" y="703" on="0"/>
        <pt x="327" y="688" on="1"/>
        <pt x="327" y="671" on="0"/>
        <pt x="308" y="644" on="0"/>
        <pt x="274" y="614" on="1"/>
        <pt x="182" y="533" on="1"/>
      </contour>
    </TTGlyph>
    <TTGlyph name="adieresis" xMin="32" yMin="-9" xMax="529" yMax="682">
      <component glyphName="a" x="0" y="0" flags="0x204"/>
      <component glyphName="dieresis" x="84" y="0" flags="0x4"/>
    </TTGlyph>
    <TTGlyph name="ae" xMin="11" yMin="-9" xMax="680" yMax="466">
      <contour>
        <pt x="449" y="-9" on="1"/>
        <pt x="392" y="-9" on="0"/>
        <pt x="318" y="44" on="0"/>
        <pt x="303" y="89" on="1"/>
        <pt x="277" y="47" on="0"/>
        <pt x="189" y="-4" on="0"/>
        <pt x="131" y="-4" on="1"/>
        <pt x="71" y="-4" on="0"/>
        <pt x="11" y="54" on="0"/>
        <pt x="11" y="99" on="1"/>
        <pt x="11" y="166" on="0"/>
        <pt x="158" y="262" on="0"/>
        <pt x="314" y="269" on="1"/>
        <pt x="322" y="294" on="0"/>
        <pt x="333" y="335" on="0"/>
        <pt x="333" y="345" on="1"/>
        <pt x="333" y="379" on="0"/>
        <pt x="284" y="418" on="0"/>
        <pt x="244" y="418" on="1"/>
        <pt x="228" y="418" on="0"/>
        <pt x="199" y="412" on="0"/>
        <pt x="185" y="407" on="1"/>
        <pt x="192" y="400" on="0"/>
        <pt x="201" y="379" on="0"/>
        <pt x="201" y="367" on="1"/>
        <pt x="201" y="345" on="0"/>
        <pt x="171" y="305" on="0"/>
        <pt x="137" y="305" on="1"/>
        <pt x="115" y="305" on="0"/>
        <pt x="86" y="335" on="0"/>
        <pt x="86" y="360" on="1"/>
        <pt x="86" y="376" on="0"/>
        <pt x="104" y="413" on="0"/>
        <pt x="145" y="444" on="0"/>
        <pt x="211" y="465" on="0"/>
        <pt x="258" y="465" on="1"/>
        <pt x="309" y="465" on="0"/>
        <pt x="381" y="431" on="0"/>
        <pt x="397" y="400" on="1"/>
        <pt x="432" y="431" on="0"/>
        <pt x="516" y="466" on="0"/>
        <pt x="561" y="466" on="1"/>
        <pt x="618" y="466" on="0"/>
        <pt x="680" y="412" on="0"/>
        <pt x="680" y="369" on="1"/>
        <pt x="680" y="304" on="0"/>
        <pt x="533" y="198" on="0"/>
        <pt x="379" y="185" on="1"/>
        <pt x="378" y="176" on="0"/>
        <pt x="376" y="159" on="0"/>
        <pt x="376" y="152" on="1"/>
        <pt x="376" y="94" on="0"/>
        <pt x="430" y="47" on="0"/>
        <pt x="468" y="47" on="1"/>
        <pt x="507" y="47" on="0"/>
        <pt x="582" y="102" on="0"/>
        <pt x="611" y="147" on="1"/>
        <pt x="652" y="123" on="1"/>
        <pt x="615" y="66" on="0"/>
        <pt x="519" y="-9" on="0"/>
      </contour>
      <contour>
        <pt x="545" y="416" on="1"/>
        <pt x="517" y="416" on="0"/>
        <pt x="467" y="382" on="0"/>
        <pt x="427" y="330" on="0"/>
        <pt x="397" y="263" on="0"/>
        <pt x="388" y="230" on="1"/>
        <pt x="498" y="245" on="0"/>
        <pt x="594" y="317" on="0"/>
        <pt x="594" y="367" on="1"/>
        <pt x="594" y="386" on="0"/>
        <pt x="570" y="416" on="0"/>
      </contour>
      <contour>
        <pt x="170" y="54" on="1"/>
        <pt x="199" y="54" on="0"/>
        <pt x="260" y="88" on="0"/>
        <pt x="294" y="131" on="1"/>
        <pt x="293" y="136" on="0"/>
        <pt x="293" y="148" on="0"/>
        <pt x="293" y="154" on="1"/>
        <pt x="293" y="172" on="0"/>
        <pt x="296" y="210" on="0"/>
        <pt x="300" y="228" on="1"/>
        <pt x="197" y="214" on="0"/>
        <pt x="113" y="153" on="0"/>
        <pt x="113" y="107" on="1"/>
        <pt x="113" y="87" on="0"/>
        <pt x="142" y="54" on="0"/>
      </contour>
    </TTGlyph>
    <TTGlyph name="aeacute" xMin="11" yMin="-9" xMax="680" yMax="731">
      <component glyphName="ae" x="0" y="0" flags="0x204"/>
      <component glyphName="acute" x="270" y="0" flags="0x4"/>
    </TTGlyph>
    <TTGlyph name="agrave" xMin="32" yMin="-9" xMax="529" yMax="730">
      <component glyphName="a" x="0" y="0" flags="0x204"/>
      <component glyphName="grave" x="82" y="0" flags="0x4"/>
    </TTGlyph>
    <TTGlyph name="amacron" xMin="32" yMin="-9" xMax="529" yMax="625">
      <component glyphName="a" x="0" y="0" flags="0x204"/>
      <component glyphName="macron" x="84" y="0" flags="0x4"/>
    </TTGlyph>
    <TTGlyph name="ampersand" xMin="20" yMin="-16" xMax="667" yMax="630">
      <contour>
        <pt x="194" y="-16" on="1"/>
        <pt x="116" y="-16" on="0"/>
        <pt x="20" y="65" on="0"/>
        <pt x="20" y="132" on="1"/>
        <pt x="20" y="201" on="0"/>
        <pt x="124" y="313" on="0"/>
        <pt x="231" y="345" on="1"/>
        <pt x="207" y="382" on="0"/>
        <pt x="187" y="435" on="0"/>
        <pt x="187" y="465" on="1"/>
        <pt x="187" y="504" on="0"/>
        <pt x="217" y="566" on="0"/>
        <pt x="266" y="608" on="0"/>
        <pt x="329" y="630" on="0"/>
        <pt x="362" y="630" on="1"/>
        <pt x="428" y="630" on="0"/>
        <pt x="507" y="559" on="0"/>
        <pt x="507" y="504" on="1"/>
        <pt x="507" y="464" on="0"/>
        <pt x="443" y="374" on="0"/>
        <pt x="348" y="337" on="1"/>
        <pt x="369" y="304" on="0"/>
        <pt x="404" y="241" on="0"/>
        <pt x="417" y="208" on="1"/>
        <pt x="438" y="241" on="0"/>
        <pt x="477" y="306" on="0"/>
        <pt x="519" y="357" on="0"/>
        <pt x="567" y="389" on="0"/>
        <pt x="596" y="389" on="1"/>
        <pt x="627" y="389" on="0"/>
        <pt x="667" y="352" on="0"/>
        <pt x="667" y="323" on="1"/>
        <pt x="667" y="290" on="0"/>
        <pt x="632" y="238" on="0"/>
        <pt x="605" y="238" on="1"/>
        <pt x="575" y="238" on="0"/>
        <pt x="550" y="288" on="0"/>
        <pt x="563" y="319" on="1"/>
        <pt x="531" y="300" on="0"/>
        <pt x="473" y="209" on="0"/>
        <pt x="442" y="160" on="1"/>
        <pt x="464" y="106" on="0"/>
        <pt x="496" y="53" on="0"/>
        <pt x="512" y="53" on="1"/>
        <pt x="529" y="53" on="0"/>
        <pt x="558" y="85" on="0"/>
        <pt x="586" y="136" on="1"/>
        <pt x="627" y="114" on="1"/>
        <pt x="593" y="37" on="0"/>
        <pt x="527" y="-14" on="0"/>
        <pt x="494" y="-14" on="1"/>
        <pt x="447" y="-14" on="0"/>
        <pt x="398" y="36" on="0"/>
        <pt x="373" y="85" on="1"/>
        <pt x="335" y="40" on="0"/>
        <pt x="250" y="-16" on="0"/>
      </contour>
      <contour>
        <pt x="278" y="486" on="1"/>
        <pt x="278" y="464" on="0"/>
        <pt x="297" y="417" on="0"/>
        <pt x="324" y="374" on="1"/>
        <pt x="384" y="402" on="0"/>
        <pt x="424" y="474" on="0"/>
        <pt x="424" y="505" on="1"/>
        <pt x="424" y="534" on="0"/>
        <pt x="390" y="576" on="0"/>
        <pt x="356" y="576" on="1"/>
        <pt x="325" y="576" on="0"/>
        <pt x="278" y="529" on="0"/>
      </contour>
      <contour>
        <pt x="613" y="329" on="1"/>
        <pt x="612" y="329" on="0"/>
        <pt x="609" y="329" on="0"/>
        <pt x="608" y="330" on="1"/>
      </contour>
      <contour>
        <pt x="127" y="149" on="1"/>
        <pt x="127" y="105" on="0"/>
        <pt x="173" y="57" on="0"/>
        <pt x="216" y="57" on="1"/>
        <pt x="259" y="57" on="0"/>
        <pt x="321" y="97" on="0"/>
        <pt x="348" y="131" on="1"/>
        <pt x="330" y="180" on="0"/>
        <pt x="287" y="262" on="0"/>
        <pt x="257" y="307" on="1"/>
        <pt x="180" y="276" on="0"/>
        <pt x="127" y="192" on="0"/>
      </contour>
    </TTGlyph>
    <TTGlyph name="aogonek" xMin="32" yMin="-243" xMax="529" yMax="466">
      <contour>
        <pt x="346" y="-243" on="1"/>
        <pt x="300" y="-243" on="0"/>
        <pt x="242" y="-197" on="0"/>
        <pt x="242" y="-157" on="1"/>
        <pt x="242" y="-121" on="0"/>
        <pt x="296" y="-55" on="0"/>
        <pt x="367" y="-7" on="1"/>
        <pt x="350" y="-4" on="0"/>
        <pt x="312" y="33" on="0"/>
        <pt x="312" y="73" on="1"/>
        <pt x="312" y="78" on="0"/>
        <pt x="312" y="87" on="0"/>
        <pt x="313" y="94" on="1"/>
        <pt x="306" y="97" on="1"/>
        <pt x="278" y="46" on="0"/>
        <pt x="198" y="-9" on="0"/>
        <pt x="158" y="-9" on="1"/>
        <pt x="101" y="-9" on="0"/>
        <pt x="32" y="80" on="0"/>
        <pt x="32" y="146" on="1"/>
        <pt x="32" y="221" on="0"/>
        <pt x="85" y="344" on="0"/>
        <pt x="125" y="384" on="1"/>
        <pt x="162" y="421" on="0"/>
        <pt x="247" y="466" on="0"/>
        <pt x="288" y="466" on="1"/>
        <pt x="328" y="466" on="0"/>
        <pt x="371" y="419" on="0"/>
        <pt x="375" y="388" on="1"/>
        <pt x="394" y="460" on="1"/>
        <pt x="486" y="460" on="1"/>
        <pt x="403" y="153" on="1"/>
        <pt x="397" y="131" on="0"/>
        <pt x="391" y="100" on="0"/>
        <pt x="391" y="89" on="1"/>
        <pt x="391" y="77" on="0"/>
        <pt x="402" y="63" on="0"/>
        <pt x="415" y="63" on="1"/>
        <pt x="434" y="63" on="0"/>
        <pt x="468" y="119" on="0"/>
        <pt x="485" y="166" on="1"/>
        <pt x="529" y="153" on="1"/>
        <pt x="511" y="100" on="0"/>
        <pt x="472" y="30" on="0"/>
        <pt x="431" y="-4" on="1"/>
        <pt x="358" y="-64" on="0"/>
        <pt x="318" y="-125" on="0"/>
        <pt x="318" y="-146" on="1"/>
        <pt x="318" y="-163" on="0"/>
        <pt x="342" y="-190" on="0"/>
        <pt x="370" y="-190" on="1"/>
        <pt x="385" y="-190" on="0"/>
        <pt x="417" y="-177" on="0"/>
        <pt x="430" y="-169" on="1"/>
        <pt x="450" y="-206" on="1"/>
        <pt x="428" y="-222" on="0"/>
        <pt x="375" y="-243" on="0"/>
      </contour>
      <contour>
        <pt x="195" y="62" on="1"/>
        <pt x="227" y="62" on="0"/>
        <pt x="284" y="122" on="0"/>
        <pt x="325" y="206" on="0"/>
        <pt x="349" y="297" on="0"/>
        <pt x="349" y="327" on="1"/>
        <pt x="349" y="367" on="0"/>
        <pt x="318" y="410" on="0"/>
        <pt x="290" y="410" on="1"/>
        <pt x="253" y="410" on="0"/>
        <pt x="194" y="354" on="0"/>
        <pt x="153" y="276" on="0"/>
        <pt x="130" y="190" on="0"/>
        <pt x="130" y="161" on="1"/>
        <pt x="130" y="115" on="0"/>
        <pt x="162" y="62" on="0"/>
      </contour>
    </TTGlyph>
    <TTGlyph name="aring" xMin="32" yMin="-9" xMax="529" yMax="731">
      <component glyphName="a" x="0" y="0" flags="0x204"/>
      <component glyphName="ring" x="116" y="0" flags="0x4"/>
    </TTGlyph>
    <TTGlyph name="aringacute" xMin="32" yMin="-9" xMax="533" yMax="969">
      <component glyphName="a" x="0" y="0" flags="0x204"/>
      <component glyphName="ring" x="116" y="0" flags="0x4"/>
      <component glyphName="acute" x="206" y="238" flags="0x4"/>
    </TTGlyph>
    <TTGlyph name="asciicircum" xMin="56" yMin="282" xMax="496" yMax="652">
      <contour>
        <pt x="56" y="282" on="1"/>
        <pt x="339" y="652" on="1"/>
        <pt x="398" y="652" on="1"/>
        <pt x="496" y="282" on="1"/>
        <pt x="428" y="282" on="1"/>
        <pt x="356" y="578" on="1"/>
        <pt x="137" y="282" on="1"/>
      </contour>
    </TTGlyph>
    <TTGlyph name="asciicircum.osf" xMin="52" yMin="268" xMax="492" yMax="638">
      <contour>
        <pt x="52" y="268" on="1"/>
        <pt x="335" y="638" on="1"/>
        <pt x="394" y="638" on="1"/>
        <pt x="492" y="268" on="1"/>
        <pt x="424" y="268" on="1"/>
        <pt x="352" y="564" on="1"/>
        <pt x="133" y="268" on="1"/>
      </contour>
    </TTGlyph>
    <TTGlyph name="asciicircum.tab" xMin="62" yMin="275" xMax="502" yMax="645">
      <contour>
        <pt x="62" y="275" on="1"/>
        <pt x="345" y="645" on="1"/>
        <pt x="404" y="645" on="1"/>
        <pt x="502" y="275" on="1"/>
        <pt x="434" y="275" on="1"/>
        <pt x="362" y="571" on="1"/>
        <pt x="143" y="275" on="1"/>
      </contour>
    </TTGlyph>
    <TTGlyph name="asciitilde" xMin="72" yMin="204" xMax="681" yMax="430">
      <contour>
        <pt x="131" y="204" on="1"/>
        <pt x="72" y="232" on="1"/>
        <pt x="126" y="337" on="0"/>
        <pt x="225" y="427" on="0"/>
        <pt x="281" y="427" on="1"/>
        <pt x="321" y="427" on="0"/>
        <pt x="373" y="381" on="0"/>
        <pt x="414" y="325" on="0"/>
        <pt x="453" y="279" on="0"/>
        <pt x="479" y="279" on="1"/>
        <pt x="517" y="279" on="0"/>
        <pt x="585" y="361" on="0"/>
        <pt x="622" y="430" on="1"/>
        <pt x="681" y="402" on="1"/>
        <pt x="627" y="297" on="0"/>
        <pt x="528" y="207" on="0"/>
        <pt x="472" y="207" on="1"/>
        <pt x="432" y="207" on="0"/>
        <pt x="380" y="253" on="0"/>
        <pt x="339" y="309" on="0"/>
        <pt x="300" y="355" on="0"/>
        <pt x="274" y="355" on="1"/>
        <pt x="236" y="355" on="0"/>
        <pt x="168" y="273" on="0"/>
      </contour>
    </TTGlyph>
    <TTGlyph name="asciitilde.osf" xMin="63" yMin="168" xMax="672" yMax="394">
      <contour>
        <pt x="122" y="168" on="1"/>
        <pt x="63" y="196" on="1"/>
        <pt x="117" y="301" on="0"/>
        <pt x="216" y="391" on="0"/>
        <pt x="272" y="391" on="1"/>
        <pt x="312" y="391" on="0"/>
        <pt x="364" y="345" on="0"/>
        <pt x="405" y="289" on="0"/>
        <pt x="444" y="243" on="0"/>
        <pt x="470" y="243" on="1"/>
        <pt x="508" y="243" on="0"/>
        <pt x="576" y="325" on="0"/>
        <pt x="613" y="394" on="1"/>
        <pt x="672" y="366" on="1"/>
        <pt x="618" y="261" on="0"/>
        <pt x="519" y="171" on="0"/>
        <pt x="463" y="171" on="1"/>
        <pt x="423" y="171" on="0"/>
        <pt x="371" y="217" on="0"/>
        <pt x="330" y="273" on="0"/>
        <pt x="291" y="319" on="0"/>
        <pt x="265" y="319" on="1"/>
        <pt x="227" y="319" on="0"/>
        <pt x="159" y="237" on="0"/>
      </contour>
    </TTGlyph>
    <TTGlyph name="asciitilde.tab" xMin="30" yMin="191" xMax="555" yMax="443">
      <contour>
        <pt x="87" y="191" on="1"/>
        <pt x="30" y="216" on="1"/>
        <pt x="81" y="332" on="0"/>
        <pt x="172" y="442" on="0"/>
        <pt x="223" y="442" on="1"/>
        <pt x="261" y="442" on="0"/>
        <pt x="301" y="386" on="0"/>
        <pt x="327" y="320" on="0"/>
        <pt x="351" y="264" on="0"/>
        <pt x="372" y="264" on="1"/>
        <pt x="405" y="264" on="0"/>
        <pt x="464" y="368" on="0"/>
        <pt x="498" y="443" on="1"/>
        <pt x="555" y="418" on="1"/>
        <pt x="504" y="302" on="0"/>
        <pt x="413" y="192" on="0"/>
        <pt x="362" y="192" on="1"/>
        <pt x="324" y="192" on="0"/>
        <pt x="284" y="248" on="0"/>
        <pt x="258" y="314" on="0"/>
        <pt x="234" y="370" on="0"/>
        <pt x="213" y="370" on="1"/>
        <pt x="180" y="370" on="0"/>
        <pt x="121" y="266" on="0"/>
      </contour>
    </TTGlyph>
    <TTGlyph name="asterisk" xMin="142" yMin="328" xMax="504" yMax="701">
      <contour>
        <pt x="384" y="336" on="1"/>
        <pt x="366" y="328" on="0"/>
        <pt x="340" y="342" on="0"/>
        <pt x="331" y="365" on="1"/>
        <pt x="328" y="373" on="0"/>
        <pt x="323" y="403" on="0"/>
        <pt x="319" y="438" on="0"/>
        <pt x="316" y="474" on="0"/>
        <pt x="314" y="488" on="1"/>
        <pt x="301" y="491" on="1"/>
        <pt x="285" y="467" on="0"/>
        <pt x="241" y="402" on="0"/>
        <pt x="228" y="391" on="1"/>
        <pt x="209" y="375" on="0"/>
        <pt x="179" y="376" on="0"/>
        <pt x="167" y="390" on="1"/>
        <pt x="154" y="405" on="0"/>
        <pt x="159" y="435" on="0"/>
        <pt x="178" y="451" on="1"/>
        <pt x="185" y="457" on="0"/>
        <pt x="211" y="470" on="0"/>
        <pt x="243" y="484" on="0"/>
        <pt x="276" y="498" on="0"/>
        <pt x="289" y="504" on="1"/>
        <pt x="287" y="517" on="1"/>
        <pt x="274" y="521" on="0"/>
        <pt x="239" y="531" on="0"/>
        <pt x="206" y="540" on="0"/>
        <pt x="178" y="550" on="0"/>
        <pt x="171" y="555" on="1"/>
        <pt x="150" y="569" on="0"/>
        <pt x="142" y="597" on="0"/>
        <pt x="152" y="614" on="1"/>
        <pt x="162" y="630" on="0"/>
        <pt x="191" y="635" on="0"/>
        <pt x="212" y="621" on="1"/>
        <pt x="226" y="611" on="0"/>
        <pt x="277" y="554" on="0"/>
        <pt x="296" y="533" on="1"/>
        <pt x="309" y="539" on="1"/>
        <pt x="309" y="554" on="0"/>
        <pt x="308" y="590" on="0"/>
        <pt x="307" y="624" on="0"/>
        <pt x="308" y="653" on="0"/>
        <pt x="310" y="661" on="1"/>
        <pt x="316" y="686" on="0"/>
        <pt x="340" y="701" on="0"/>
        <pt x="359" y="697" on="1"/>
        <pt x="378" y="693" on="0"/>
        <pt x="392" y="667" on="0"/>
        <pt x="385" y="642" on="1"/>
        <pt x="381" y="626" on="0"/>
        <pt x="341" y="560" on="0"/>
        <pt x="328" y="535" on="1"/>
        <pt x="336" y="524" on="1"/>
        <pt x="363" y="533" on="0"/>
        <pt x="436" y="560" on="0"/>
        <pt x="453" y="561" on="1"/>
        <pt x="478" y="563" on="0"/>
        <pt x="502" y="545" on="0"/>
        <pt x="503" y="526" on="1"/>
        <pt x="504" y="507" on="0"/>
        <pt x="483" y="486" on="0"/>
        <pt x="458" y="484" on="1"/>
        <pt x="441" y="483" on="0"/>
        <pt x="366" y="500" on="0"/>
        <pt x="338" y="505" on="1"/>
        <pt x="330" y="494" on="1"/>
        <pt x="346" y="472" on="0"/>
        <pt x="396" y="410" on="0"/>
        <pt x="403" y="394" on="1"/>
        <pt x="413" y="371" on="0"/>
        <pt x="403" y="344" on="0"/>
      </contour>
    </TTGlyph>
    <TTGlyph name="at" xMin="52" yMin="-146" xMax="857" yMax="684">
      <contour>
        <pt x="416" y="-146" on="1"/>
        <pt x="339" y="-146" on="0"/>
        <pt x="205" y="-97" on="0"/>
        <pt x="108" y="-5" on="0"/>
        <pt x="52" y="125" on="0"/>
        <pt x="52" y="206" on="1"/>
        <pt x="52" y="304" on="0"/>
        <pt x="128" y="479" on="0"/>
        <pt x="256" y="608" on="0"/>
        <pt x="429" y="684" on="0"/>
        <pt x="526" y="684" on="1"/>
        <pt x="596" y="684" on="0"/>
        <pt x="717" y="642" on="0"/>
        <pt x="806" y="565" on="0"/>
        <pt x="857" y="451" on="0"/>
        <pt x="857" y="379" on="1"/>
        <pt x="857" y="320" on="0"/>
        <pt x="825" y="205" on="0"/>
        <pt x="765" y="114" on="0"/>
        <pt x="678" y="57" on="0"/>
        <pt x="624" y="57" on="1"/>
        <pt x="573" y="57" on="0"/>
        <pt x="511" y="115" on="0"/>
        <pt x="521" y="171" on="1"/>
        <pt x="519" y="171" on="1"/>
        <pt x="492" y="120" on="0"/>
        <pt x="415" y="69" on="0"/>
        <pt x="380" y="69" on="1"/>
        <pt x="327" y="69" on="0"/>
        <pt x="250" y="147" on="0"/>
        <pt x="250" y="221" on="1"/>
        <pt x="250" y="270" on="0"/>
        <pt x="289" y="363" on="0"/>
        <pt x="354" y="434" on="0"/>
        <pt x="439" y="477" on="0"/>
        <pt x="484" y="477" on="1"/>
        <pt x="520" y="477" on="0"/>
        <pt x="572" y="435" on="0"/>
        <pt x="575" y="395" on="1"/>
        <pt x="600" y="472" on="1"/>
        <pt x="676" y="472" on="1"/>
        <pt x="593" y="219" on="1"/>
        <pt x="571" y="153" on="0"/>
        <pt x="603" y="104" on="0"/>
        <pt x="638" y="104" on="1"/>
        <pt x="663" y="104" on="0"/>
        <pt x="722" y="142" on="0"/>
        <pt x="770" y="212" on="0"/>
        <pt x="803" y="313" on="0"/>
        <pt x="803" y="376" on="1"/>
        <pt x="803" y="437" on="0"/>
        <pt x="762" y="536" on="0"/>
        <pt x="688" y="603" on="0"/>
        <pt x="584" y="640" on="0"/>
        <pt x="522" y="640" on="1"/>
        <pt x="438" y="640" on="0"/>
        <pt x="286" y="570" on="0"/>
        <pt x="173" y="452" on="0"/>
        <pt x="106" y="294" on="0"/>
        <pt x="106" y="208" on="1"/>
        <pt x="106" y="141" on="0"/>
        <pt x="152" y="27" on="0"/>
        <pt x="234" y="-56" on="0"/>
        <pt x="351" y="-102" on="0"/>
        <pt x="422" y="-102" on="1"/>
        <pt x="480" y="-102" on="0"/>
        <pt x="584" y="-75" on="0"/>
        <pt x="633" y="-47" on="1"/>
        <pt x="652" y="-83" on="1"/>
        <pt x="598" y="-116" on="0"/>
        <pt x="479" y="-146" on="0"/>
      </contour>
      <contour>
        <pt x="398" y="124" on="1"/>
        <pt x="433" y="124" on="0"/>
        <pt x="486" y="173" on="0"/>
        <pt x="522" y="242" on="0"/>
        <pt x="541" y="320" on="0"/>
        <pt x="541" y="348" on="1"/>
        <pt x="541" y="385" on="0"/>
        <pt x="517" y="431" on="0"/>
        <pt x="483" y="431" on="1"/>
        <pt x="447" y="431" on="0"/>
        <pt x="392" y="383" on="0"/>
        <pt x="356" y="313" on="0"/>
        <pt x="337" y="233" on="0"/>
        <pt x="337" y="202" on="1"/>
        <pt x="337" y="168" on="0"/>
        <pt x="366" y="124" on="0"/>
      </contour>
    </TTGlyph>
    <TTGlyph name="atilde" xMin="32" yMin="-9" xMax="529" yMax="670">
      <component glyphName="a" x="0" y="0" flags="0x204"/>
      <component glyphName="tilde" x="80" y="0" flags="0x4"/>
    </TTGlyph>
    <TTGlyph name="b" xMin="52" yMin="-9" xMax="467" yMax="687">
      <contour>
        <pt x="199" y="-9" on="1"/>
        <pt x="123" y="-9" on="0"/>
        <pt x="52" y="75" on="0"/>
        <pt x="52" y="138" on="1"/>
        <pt x="52" y="167" on="0"/>
        <pt x="70" y="251" on="0"/>
        <pt x="80" y="288" on="1"/>
        <pt x="171" y="615" on="1"/>
        <pt x="80" y="615" on="1"/>
        <pt x="99" y="687" on="1"/>
        <pt x="282" y="687" on="1"/>
        <pt x="186" y="360" on="1"/>
        <pt x="193" y="357" on="1"/>
        <pt x="221" y="408" on="0"/>
        <pt x="301" y="466" on="0"/>
        <pt x="341" y="466" on="1"/>
        <pt x="401" y="466" on="0"/>
        <pt x="467" y="371" on="0"/>
        <pt x="467" y="305" on="1"/>
        <pt x="467" y="237" on="0"/>
        <pt x="418" y="121" on="0"/>
        <pt x="341" y="38" on="0"/>
        <pt x="245" y="-9" on="0"/>
      </contour>
      <contour>
        <pt x="217" y="50" on="1"/>
        <pt x="254" y="50" on="0"/>
        <pt x="311" y="108" on="0"/>
        <pt x="349" y="189" on="0"/>
        <pt x="369" y="277" on="0"/>
        <pt x="369" y="306" on="1"/>
        <pt x="369" y="349" on="0"/>
        <pt x="342" y="398" on="0"/>
        <pt x="311" y="398" on="1"/>
        <pt x="279" y="398" on="0"/>
        <pt x="220" y="345" on="0"/>
        <pt x="175" y="268" on="0"/>
        <pt x="148" y="180" on="0"/>
        <pt x="148" y="145" on="1"/>
        <pt x="148" y="96" on="0"/>
        <pt x="182" y="50" on="0"/>
      </contour>
    </TTGlyph>
    <TTGlyph name="backslash" xMin="138" yMin="-208" xMax="360" yMax="709">
      <contour>
        <pt x="297" y="-208" on="1"/>
        <pt x="138" y="698" on="1"/>
        <pt x="201" y="709" on="1"/>
        <pt x="360" y="-197" on="1"/>
      </contour>
    </TTGlyph>
    <TTGlyph name="bar" xMin="3" yMin="-207" xMax="294" yMax="709">
      <contour>
        <pt x="67" y="-207" on="1"/>
        <pt x="3" y="-198" on="1"/>
        <pt x="230" y="709" on="1"/>
        <pt x="294" y="700" on="1"/>
      </contour>
    </TTGlyph>
    <TTGlyph name="bar.tab" xMin="13" yMin="-141" xMax="304" yMax="775">
      <component glyphName="bar" x="10" y="66" flags="0x4"/>
    </TTGlyph>
    <TTGlyph name="braceleft" xMin="25" yMin="-156" xMax="521" yMax="726">
      <contour>
        <pt x="302" y="-156" on="1"/>
        <pt x="206" y="-146" on="0"/>
        <pt x="118" y="-80" on="0"/>
        <pt x="118" y="-17" on="1"/>
        <pt x="118" y="11" on="0"/>
        <pt x="134" y="71" on="0"/>
        <pt x="154" y="128" on="0"/>
        <pt x="170" y="179" on="0"/>
        <pt x="170" y="198" on="1"/>
        <pt x="170" y="220" on="0"/>
        <pt x="129" y="253" on="0"/>
        <pt x="65" y="253" on="1"/>
        <pt x="25" y="253" on="1"/>
        <pt x="40" y="312" on="1"/>
        <pt x="70" y="312" on="1"/>
        <pt x="113" y="312" on="0"/>
        <pt x="172" y="328" on="0"/>
        <pt x="191" y="347" on="1"/>
        <pt x="218" y="374" on="0"/>
        <pt x="236" y="457" on="0"/>
        <pt x="248" y="547" on="0"/>
        <pt x="271" y="634" on="0"/>
        <pt x="302" y="665" on="1"/>
        <pt x="332" y="695" on="0"/>
        <pt x="437" y="726" on="0"/>
        <pt x="521" y="721" on="1"/>
        <pt x="506" y="662" on="1"/>
        <pt x="460" y="663" on="0"/>
        <pt x="402" y="648" on="0"/>
        <pt x="384" y="630" on="1"/>
        <pt x="362" y="608" on="0"/>
        <pt x="343" y="531" on="0"/>
        <pt x="327" y="445" on="0"/>
        <pt x="301" y="361" on="0"/>
        <pt x="272" y="332" on="1"/>
        <pt x="251" y="311" on="0"/>
        <pt x="191" y="288" on="0"/>
        <pt x="147" y="284" on="1"/>
        <pt x="146" y="279" on="1"/>
        <pt x="202" y="272" on="0"/>
        <pt x="255" y="225" on="0"/>
        <pt x="255" y="185" on="1"/>
        <pt x="255" y="162" on="0"/>
        <pt x="241" y="109" on="0"/>
        <pt x="225" y="56" on="0"/>
        <pt x="211" y="6" on="0"/>
        <pt x="211" y="-14" on="1"/>
        <pt x="211" y="-46" on="0"/>
        <pt x="257" y="-87" on="0"/>
        <pt x="317" y="-97" on="1"/>
      </contour>
    </TTGlyph>
    <TTGlyph name="braceright" xMin="-106" yMin="-161" xMax="390" yMax="721">
      <contour>
        <pt x="113" y="721" on="1"/>
        <pt x="209" y="711" on="0"/>
        <pt x="297" y="645" on="0"/>
        <pt x="297" y="582" on="1"/>
        <pt x="297" y="554" on="0"/>
        <pt x="281" y="494" on="0"/>
        <pt x="261" y="437" on="0"/>
        <pt x="245" y="386" on="0"/>
        <pt x="245" y="367" on="1"/>
        <pt x="245" y="345" on="0"/>
        <pt x="286" y="312" on="0"/>
        <pt x="350" y="312" on="1"/>
        <pt x="390" y="312" on="1"/>
        <pt x="375" y="253" on="1"/>
        <pt x="345" y="253" on="1"/>
        <pt x="302" y="253" on="0"/>
        <pt x="243" y="237" on="0"/>
        <pt x="224" y="218" on="1"/>
        <pt x="197" y="191" on="0"/>
        <pt x="179" y="108" on="0"/>
        <pt x="167" y="18" on="0"/>
        <pt x="144" y="-69" on="0"/>
        <pt x="113" y="-100" on="1"/>
        <pt x="83" y="-130" on="0"/>
        <pt x="-22" y="-161" on="0"/>
        <pt x="-106" y="-156" on="1"/>
        <pt x="-91" y="-97" on="1"/>
        <pt x="-45" y="-98" on="0"/>
        <pt x="13" y="-83" on="0"/>
        <pt x="31" y="-65" on="1"/>
        <pt x="53" y="-43" on="0"/>
        <pt x="72" y="34" on="0"/>
        <pt x="88" y="120" on="0"/>
        <pt x="114" y="204" on="0"/>
        <pt x="143" y="233" on="1"/>
        <pt x="164" y="254" on="0"/>
        <pt x="224" y="277" on="0"/>
        <pt x="268" y="281" on="1"/>
        <pt x="269" y="286" on="1"/>
        <pt x="213" y="293" on="0"/>
        <pt x="160" y="340" on="0"/>
        <pt x="160" y="380" on="1"/>
        <pt x="160" y="403" on="0"/>
        <pt x="174" y="456" on="0"/>
        <pt x="190" y="509" on="0"/>
        <pt x="204" y="559" on="0"/>
        <pt x="204" y="579" on="1"/>
        <pt x="204" y="611" on="0"/>
        <pt x="158" y="652" on="0"/>
        <pt x="98" y="662" on="1"/>
      </contour>
    </TTGlyph>
    <TTGlyph name="bracketleft" xMin="-6" yMin="-156" xMax="478" yMax="721">
      <contour>
        <pt x="-6" y="-156" on="1"/>
        <pt x="213" y="721" on="1"/>
        <pt x="478" y="721" on="1"/>
        <pt x="462" y="659" on="1"/>
        <pt x="291" y="659" on="1"/>
        <pt x="104" y="-94" on="1"/>
        <pt x="275" y="-94" on="1"/>
        <pt x="259" y="-156" on="1"/>
      </contour>
    </TTGlyph>
    <TTGlyph name="bracketright" xMin="-108" yMin="-156" xMax="376" yMax="721">
      <contour>
        <pt x="376" y="721" on="1"/>
        <pt x="157" y="-156" on="1"/>
        <pt x="-108" y="-156" on="1"/>
        <pt x="-92" y="-94" on="1"/>
        <pt x="79" y="-94" on="1"/>
        <pt x="266" y="659" on="1"/>
        <pt x="95" y="659" on="1"/>
        <pt x="111" y="721" on="1"/>
      </contour>
    </TTGlyph>
    <TTGlyph name="breve" xMin="139" yMin="540" xMax="430" yMax="697">
      <contour>
        <pt x="264" y="540" on="1"/>
        <pt x="201" y="540" on="0"/>
        <pt x="139" y="623" on="0"/>
        <pt x="154" y="697" on="1"/>
        <pt x="194" y="697" on="1"/>
        <pt x="195" y="657" on="0"/>
        <pt x="232" y="610" on="0"/>
        <pt x="275" y="610" on="1"/>
        <pt x="311" y="610" on="0"/>
        <pt x="366" y="657" on="0"/>
        <pt x="388" y="697" on="1"/>
        <pt x="430" y="697" on="1"/>
        <pt x="411" y="624" on="0"/>
        <pt x="320" y="540" on="0"/>
      </contour>
    </TTGlyph>
    <TTGlyph name="bullet" xMin="131" yMin="179" xMax="405" yMax="458">
      <contour>
        <pt x="253" y="179" on="1"/>
        <pt x="203" y="179" on="0"/>
        <pt x="131" y="248" on="0"/>
        <pt x="131" y="302" on="1"/>
        <pt x="131" y="333" on="0"/>
        <pt x="156" y="390" on="0"/>
        <pt x="197" y="432" on="0"/>
        <pt x="253" y="458" on="0"/>
        <pt x="283" y="458" on="1"/>
        <pt x="333" y="458" on="0"/>
        <pt x="405" y="389" on="0"/>
        <pt x="405" y="335" on="1"/>
        <pt x="405" y="304" on="0"/>
        <pt x="380" y="247" on="0"/>
        <pt x="339" y="205" on="0"/>
        <pt x="283" y="179" on="0"/>
      </contour>
    </TTGlyph>
    <TTGlyph name="c" xMin="32" yMin="-9" xMax="433" yMax="466">
      <contour>
        <pt x="205" y="-9" on="1"/>
        <pt x="128" y="-9" on="0"/>
        <pt x="32" y="93" on="0"/>
        <pt x="32" y="171" on="1"/>
        <pt x="32" y="227" on="0"/>
        <pt x="77" y="334" on="0"/>
        <pt x="152" y="416" on="0"/>
        <pt x="248" y="466" on="0"/>
        <pt x="299" y="466" on="1"/>
        <pt x="360" y="466" on="0"/>
        <pt x="433" y="401" on="0"/>
        <pt x="433" y="357" on="1"/>
        <pt x="433" y="331" on="0"/>
        <pt x="402" y="280" on="0"/>
        <pt x="372" y="280" on="1"/>
        <pt x="348" y="280" on="0"/>
        <pt x="319" y="309" on="0"/>
        <pt x="319" y="329" on="1"/>
        <pt x="319" y="345" on="0"/>
        <pt x="335" y="379" on="0"/>
        <pt x="353" y="395" on="1"/>
        <pt x="347" y="402" on="0"/>
        <pt x="319" y="416" on="0"/>
        <pt x="297" y="416" on="1"/>
        <pt x="257" y="416" on="0"/>
        <pt x="194" y="359" on="0"/>
        <pt x="151" y="280" on="0"/>
        <pt x="129" y="193" on="0"/>
        <pt x="129" y="164" on="1"/>
        <pt x="129" y="102" on="0"/>
        <pt x="184" y="51" on="0"/>
        <pt x="220" y="51" on="1"/>
        <pt x="255" y="51" on="0"/>
        <pt x="322" y="105" on="0"/>
        <pt x="351" y="154" on="1"/>
        <pt x="392" y="130" on="1"/>
        <pt x="360" y="70" on="0"/>
        <pt x="273" y="-9" on="0"/>
      </contour>
    </TTGlyph>
    <TTGlyph name="cacute" xMin="32" yMin="-9" xMax="467" yMax="731">
      <component glyphName="c" x="0" y="0" flags="0x204"/>
      <component glyphName="acute" x="140" y="0" flags="0x4"/>
    </TTGlyph>
    <TTGlyph name="caron" xMin="150" yMin="543" xMax="413" yMax="726">
      <contour>
        <pt x="214" y="543" on="1"/>
        <pt x="150" y="726" on="1"/>
        <pt x="197" y="726" on="1"/>
        <pt x="250" y="633" on="1"/>
        <pt x="362" y="726" on="1"/>
        <pt x="413" y="726" on="1"/>
        <pt x="255" y="543" on="1"/>
      </contour>
    </TTGlyph>
    <TTGlyph name="caron.alt" xMin="150" yMin="523" xMax="284" yMax="751">
      <contour>
        <pt x="150" y="523" on="1"/>
        <pt x="186" y="682" on="1"/>
        <pt x="194" y="719" on="0"/>
        <pt x="221" y="751" on="0"/>
        <pt x="241" y="751" on="1"/>
        <pt x="260" y="751" on="0"/>
        <pt x="284" y="725" on="0"/>
        <pt x="284" y="708" on="1"/>
        <pt x="284" y="692" on="0"/>
        <pt x="270" y="661" on="0"/>
        <pt x="255" y="635" on="1"/>
        <pt x="191" y="523" on="1"/>
      </contour>
    </TTGlyph>
    <TTGlyph name="ccaron" xMin="32" yMin="-9" xMax="484" yMax="726">
      <component glyphName="c" x="0" y="0" flags="0x204"/>
      <component glyphName="caron" x="71" y="0" flags="0x4"/>
    </TTGlyph>
    <TTGlyph name="ccedilla" xMin="24" yMin="-243" xMax="433" yMax="466">
      <contour>
        <pt x="133" y="-243" on="1"/>
        <pt x="106" y="-243" on="0"/>
        <pt x="46" y="-222" on="0"/>
        <pt x="24" y="-201" on="1"/>
        <pt x="52" y="-167" on="1"/>
        <pt x="71" y="-181" on="0"/>
        <pt x="106" y="-195" on="0"/>
        <pt x="129" y="-195" on="1"/>
        <pt x="150" y="-195" on="0"/>
        <pt x="177" y="-174" on="0"/>
        <pt x="177" y="-155" on="1"/>
        <pt x="177" y="-130" on="0"/>
        <pt x="124" y="-111" on="0"/>
        <pt x="90" y="-114" on="1"/>
        <pt x="79" y="-91" on="1"/>
        <pt x="175" y="-7" on="1"/>
        <pt x="111" y="3" on="0"/>
        <pt x="32" y="101" on="0"/>
        <pt x="32" y="171" on="1"/>
        <pt x="32" y="227" on="0"/>
        <pt x="77" y="334" on="0"/>
        <pt x="152" y="416" on="0"/>
        <pt x="248" y="466" on="0"/>
        <pt x="299" y="466" on="1"/>
        <pt x="360" y="466" on="0"/>
        <pt x="433" y="401" on="0"/>
        <pt x="433" y="357" on="1"/>
        <pt x="433" y="331" on="0"/>
        <pt x="402" y="280" on="0"/>
        <pt x="372" y="280" on="1"/>
        <pt x="348" y="280" on="0"/>
        <pt x="319" y="309" on="0"/>
        <pt x="319" y="329" on="1"/>
        <pt x="319" y="345" on="0"/>
        <pt x="335" y="379" on="0"/>
        <pt x="353" y="395" on="1"/>
        <pt x="347" y="402" on="0"/>
        <pt x="319" y="416" on="0"/>
        <pt x="297" y="416" on="1"/>
        <pt x="257" y="416" on="0"/>
        <pt x="194" y="359" on="0"/>
        <pt x="151" y="280" on="0"/>
        <pt x="129" y="193" on="0"/>
        <pt x="129" y="164" on="1"/>
        <pt x="129" y="102" on="0"/>
        <pt x="184" y="51" on="0"/>
        <pt x="220" y="51" on="1"/>
        <pt x="255" y="51" on="0"/>
        <pt x="322" y="105" on="0"/>
        <pt x="351" y="154" on="1"/>
        <pt x="392" y="130" on="1"/>
        <pt x="364" y="77" on="0"/>
        <pt x="289" y="2" on="0"/>
        <pt x="234" y="-7" on="1"/>
        <pt x="166" y="-66" on="1"/>
        <pt x="166" y="-70" on="1"/>
        <pt x="198" y="-75" on="0"/>
        <pt x="245" y="-115" on="0"/>
        <pt x="245" y="-148" on="1"/>
        <pt x="245" y="-182" on="0"/>
        <pt x="193" y="-243" on="0"/>
      </contour>
    </TTGlyph>
    <TTGlyph name="cdotaccent" xMin="32" yMin="-9" xMax="433" yMax="668">
      <component glyphName="c" x="0" y="0" flags="0x204"/>
      <component glyphName="dotaccent" x="141" y="0" flags="0x4"/>
    </TTGlyph>
    <TTGlyph name="cedilla" xMin="-86" yMin="-243" xMax="138" yMax="5">
      <contour>
        <pt x="23" y="-243" on="1"/>
        <pt x="-4" y="-243" on="0"/>
        <pt x="-64" y="-222" on="0"/>
        <pt x="-86" y="-201" on="1"/>
        <pt x="-58" y="-167" on="1"/>
        <pt x="-39" y="-181" on="0"/>
        <pt x="-4" y="-195" on="0"/>
        <pt x="19" y="-195" on="1"/>
        <pt x="40" y="-195" on="0"/>
        <pt x="67" y="-174" on="0"/>
        <pt x="67" y="-155" on="1"/>
        <pt x="67" y="-130" on="0"/>
        <pt x="14" y="-111" on="0"/>
        <pt x="-20" y="-114" on="1"/>
        <pt x="-31" y="-91" on="1"/>
        <pt x="78" y="5" on="1"/>
        <pt x="138" y="5" on="1"/>
        <pt x="56" y="-66" on="1"/>
        <pt x="56" y="-70" on="1"/>
        <pt x="88" y="-75" on="0"/>
        <pt x="135" y="-115" on="0"/>
        <pt x="135" y="-148" on="1"/>
        <pt x="135" y="-182" on="0"/>
        <pt x="83" y="-243" on="0"/>
      </contour>
    </TTGlyph>
    <TTGlyph name="cent" xMin="37" yMin="-104" xMax="461" yMax="551">
      <contour>
        <pt x="195" y="-104" on="1"/>
        <pt x="141" y="-94" on="1"/>
        <pt x="164" y="-3" on="1"/>
        <pt x="103" y="10" on="0"/>
        <pt x="37" y="102" on="0"/>
        <pt x="37" y="171" on="1"/>
        <pt x="37" y="225" on="0"/>
        <pt x="76" y="327" on="0"/>
        <pt x="143" y="407" on="0"/>
        <pt x="234" y="459" on="0"/>
        <pt x="284" y="465" on="1"/>
        <pt x="305" y="551" on="1"/>
        <pt x="359" y="541" on="1"/>
        <pt x="341" y="464" on="1"/>
        <pt x="398" y="456" on="0"/>
        <pt x="461" y="390" on="0"/>
        <pt x="461" y="351" on="1"/>
        <pt x="461" y="325" on="0"/>
        <pt x="430" y="274" on="0"/>
        <pt x="400" y="274" on="1"/>
        <pt x="376" y="274" on="0"/>
        <pt x="347" y="303" on="0"/>
        <pt x="347" y="323" on="1"/>
        <pt x="347" y="339" on="0"/>
        <pt x="363" y="373" on="0"/>
        <pt x="381" y="389" on="1"/>
        <pt x="376" y="396" on="0"/>
        <pt x="349" y="413" on="0"/>
        <pt x="325" y="415" on="1"/>
        <pt x="234" y="51" on="1"/>
        <pt x="278" y="51" on="0"/>
        <pt x="346" y="104" on="0"/>
        <pt x="376" y="154" on="1"/>
        <pt x="417" y="130" on="1"/>
        <pt x="385" y="70" on="0"/>
        <pt x="297" y="-9" on="0"/>
        <pt x="219" y="-9" on="1"/>
      </contour>
      <contour>
        <pt x="134" y="164" on="1"/>
        <pt x="134" y="119" on="0"/>
        <pt x="160" y="69" on="0"/>
        <pt x="184" y="59" on="1"/>
        <pt x="270" y="409" on="1"/>
        <pt x="235" y="397" on="0"/>
        <pt x="183" y="338" on="0"/>
        <pt x="150" y="266" on="0"/>
        <pt x="134" y="192" on="0"/>
      </contour>
    </TTGlyph>
    <TTGlyph name="cent.tab" xMin="74" yMin="-104" xMax="510" yMax="551">
      <contour>
        <pt x="242" y="-104" on="1"/>
        <pt x="185" y="-94" on="1"/>
        <pt x="207" y="-4" on="1"/>
        <pt x="144" y="10" on="0"/>
        <pt x="75" y="102" on="0"/>
        <pt x="74" y="171" on="1"/>
        <pt x="74" y="225" on="0"/>
        <pt x="113" y="326" on="0"/>
        <pt x="180" y="406" on="0"/>
        <pt x="272" y="458" on="0"/>
        <pt x="324" y="464" on="1"/>
        <pt x="345" y="551" on="1"/>
        <pt x="402" y="541" on="1"/>
        <pt x="384" y="464" on="1"/>
        <pt x="444" y="457" on="0"/>
        <pt x="510" y="393" on="0"/>
        <pt x="510" y="351" on="1"/>
        <pt x="510" y="325" on="0"/>
        <pt x="480" y="276" on="0"/>
        <pt x="449" y="276" on="1"/>
        <pt x="424" y="276" on="0"/>
        <pt x="396" y="306" on="0"/>
        <pt x="396" y="328" on="1"/>
        <pt x="396" y="343" on="0"/>
        <pt x="409" y="377" on="0"/>
        <pt x="427" y="392" on="1"/>
        <pt x="419" y="399" on="0"/>
        <pt x="393" y="414" on="0"/>
        <pt x="368" y="416" on="1"/>
        <pt x="280" y="51" on="1"/>
        <pt x="325" y="52" on="0"/>
        <pt x="392" y="105" on="0"/>
        <pt x="422" y="154" on="1"/>
        <pt x="466" y="130" on="1"/>
        <pt x="433" y="70" on="0"/>
        <pt x="343" y="-9" on="0"/>
        <pt x="265" y="-9" on="1"/>
      </contour>
      <contour>
        <pt x="176" y="168" on="1"/>
        <pt x="176" y="122" on="0"/>
        <pt x="202" y="70" on="0"/>
        <pt x="227" y="60" on="1"/>
        <pt x="310" y="408" on="1"/>
        <pt x="275" y="396" on="0"/>
        <pt x="224" y="338" on="0"/>
        <pt x="192" y="269" on="0"/>
        <pt x="176" y="196" on="0"/>
      </contour>
    </TTGlyph>
    <TTGlyph name="circumflex" xMin="101" yMin="534" xMax="364" yMax="717">
      <contour>
        <pt x="101" y="534" on="1"/>
        <pt x="259" y="717" on="1"/>
        <pt x="300" y="717" on="1"/>
        <pt x="364" y="534" on="1"/>
        <pt x="317" y="534" on="1"/>
        <pt x="264" y="627" on="1"/>
        <pt x="152" y="534" on="1"/>
      </contour>
    </TTGlyph>
    <TTGlyph name="colon" xMin="20" yMin="-16" xMax="222" yMax="406">
      <contour>
        <pt x="157" y="272" on="1"/>
        <pt x="133" y="272" on="0"/>
        <pt x="98" y="304" on="0"/>
        <pt x="98" y="335" on="1"/>
        <pt x="98" y="357" on="0"/>
        <pt x="132" y="406" on="0"/>
        <pt x="163" y="406" on="1"/>
        <pt x="187" y="406" on="0"/>
        <pt x="222" y="374" on="0"/>
        <pt x="222" y="343" on="1"/>
        <pt x="222" y="321" on="0"/>
        <pt x="188" y="272" on="0"/>
      </contour>
      <contour>
        <pt x="79" y="-16" on="1"/>
        <pt x="55" y="-16" on="0"/>
        <pt x="20" y="16" on="0"/>
        <pt x="20" y="47" on="1"/>
        <pt x="20" y="69" on="0"/>
        <pt x="54" y="118" on="0"/>
        <pt x="85" y="118" on="1"/>
        <pt x="109" y="118" on="0"/>
        <pt x="144" y="86" on="0"/>
        <pt x="144" y="55" on="1"/>
        <pt x="144" y="33" on="0"/>
        <pt x="110" y="-16" on="0"/>
      </contour>
    </TTGlyph>
    <TTGlyph name="colon.fig" xMin="37" yMin="107" xMax="239" yMax="529">
      <component glyphName="colon" x="17" y="123" flags="0x4"/>
    </TTGlyph>
    <TTGlyph name="colon.tab" xMin="30" yMin="-16" xMax="232" yMax="406">
      <component glyphName="colon" x="10" y="0" flags="0x4"/>
    </TTGlyph>
    <TTGlyph name="colonmonetary" xMin="71" yMin="-147" xMax="665" yMax="768">
      <contour>
        <pt x="140" y="-147" on="1"/>
        <pt x="79" y="-132" on="1"/>
        <pt x="145" y="28" on="1"/>
        <pt x="149" y="33" on="1"/>
        <pt x="113" y="62" on="0"/>
        <pt x="71" y="160" on="0"/>
        <pt x="71" y="229" on="1"/>
        <pt x="71" y="317" on="0"/>
        <pt x="128" y="470" on="0"/>
        <pt x="222" y="582" on="0"/>
        <pt x="343" y="648" on="0"/>
        <pt x="406" y="650" on="1"/>
        <pt x="454" y="768" on="1"/>
        <pt x="515" y="753" on="1"/>
        <pt x="470" y="645" on="1"/>
        <pt x="491" y="641" on="0"/>
        <pt x="527" y="625" on="0"/>
        <pt x="541" y="615" on="1"/>
        <pt x="604" y="768" on="1"/>
        <pt x="665" y="753" on="1"/>
        <pt x="586" y="563" on="1"/>
        <pt x="593" y="549" on="0"/>
        <pt x="600" y="520" on="0"/>
        <pt x="600" y="505" on="1"/>
        <pt x="600" y="471" on="0"/>
        <pt x="558" y="409" on="0"/>
        <pt x="522" y="409" on="1"/>
        <pt x="520" y="409" on="0"/>
        <pt x="516" y="409" on="0"/>
        <pt x="515" y="409" on="1"/>
        <pt x="368" y="64" on="1"/>
        <pt x="402" y="77" on="0"/>
        <pt x="455" y="145" on="0"/>
        <pt x="477" y="198" on="1"/>
        <pt x="530" y="175" on="1"/>
        <pt x="506" y="108" on="0"/>
        <pt x="414" y="4" on="0"/>
        <pt x="344" y="-11" on="1"/>
        <pt x="288" y="-147" on="1"/>
        <pt x="227" y="-132" on="1"/>
        <pt x="275" y="-15" on="1"/>
        <pt x="255" y="-14" on="0"/>
        <pt x="217" y="-5" on="0"/>
        <pt x="200" y="2" on="1"/>
      </contour>
      <contour>
        <pt x="513" y="554" on="1"/>
        <pt x="501" y="570" on="0"/>
        <pt x="465" y="587" on="0"/>
        <pt x="440" y="589" on="1"/>
        <pt x="229" y="88" on="1"/>
        <pt x="246" y="71" on="0"/>
        <pt x="288" y="55" on="0"/>
        <pt x="312" y="55" on="1"/>
        <pt x="472" y="433" on="1"/>
        <pt x="466" y="441" on="0"/>
        <pt x="459" y="461" on="0"/>
        <pt x="459" y="472" on="1"/>
        <pt x="459" y="499" on="0"/>
        <pt x="491" y="541" on="0"/>
      </contour>
      <contour>
        <pt x="178" y="226" on="1"/>
        <pt x="178" y="196" on="0"/>
        <pt x="187" y="149" on="0"/>
        <pt x="195" y="131" on="1"/>
        <pt x="386" y="587" on="1"/>
        <pt x="333" y="577" on="0"/>
        <pt x="255" y="502" on="0"/>
        <pt x="203" y="399" on="0"/>
        <pt x="178" y="280" on="0"/>
      </contour>
    </TTGlyph>
    <TTGlyph name="comma" xMin="-56" yMin="-146" xMax="147" yMax="116">
      <contour>
        <pt x="-46" y="-146" on="1"/>
        <pt x="-56" y="-108" on="1"/>
        <pt x="1" y="-89" on="0"/>
        <pt x="69" y="-37" on="0"/>
        <pt x="80" y="-7" on="1"/>
        <pt x="75" y="-3" on="1"/>
        <pt x="71" y="-5" on="0"/>
        <pt x="63" y="-8" on="0"/>
        <pt x="59" y="-8" on="1"/>
        <pt x="40" y="-8" on="0"/>
        <pt x="11" y="17" on="0"/>
        <pt x="11" y="42" on="1"/>
        <pt x="11" y="68" on="0"/>
        <pt x="47" y="116" on="0"/>
        <pt x="77" y="116" on="1"/>
        <pt x="113" y="116" on="0"/>
        <pt x="147" y="69" on="0"/>
        <pt x="147" y="39" on="1"/>
        <pt x="147" y="-15" on="0"/>
        <pt x="58" y="-118" on="0"/>
      </contour>
    </TTGlyph>
    <TTGlyph name="comma.tab" xMin="-42" yMin="-146" xMax="161" yMax="116">
      <component glyphName="comma" x="14" y="0" flags="0x4"/>
    </TTGlyph>
    <TTGlyph name="copyright" xMin="59" yMin="-32" xMax="782" yMax="690">
      <contour>
        <pt x="420" y="-32" on="1"/>
        <pt x="344" y="-32" on="0"/>
        <pt x="212" y="24" on="0"/>
        <pt x="115" y="121" on="0"/>
        <pt x="59" y="254" on="0"/>
        <pt x="59" y="330" on="1"/>
        <pt x="59" y="406" on="0"/>
        <pt x="115" y="538" on="0"/>
        <pt x="212" y="634" on="0"/>
        <pt x="344" y="690" on="0"/>
        <pt x="420" y="690" on="1"/>
        <pt x="496" y="690" on="0"/>
        <pt x="629" y="634" on="0"/>
        <pt x="726" y="538" on="0"/>
        <pt x="782" y="406" on="0"/>
        <pt x="782" y="330" on="1"/>
        <pt x="782" y="254" on="0"/>
        <pt x="726" y="121" on="0"/>
        <pt x="629" y="24" on="0"/>
        <pt x="496" y="-32" on="0"/>
      </contour>
      <contour>
        <pt x="420" y="6" on="1"/>
        <pt x="488" y="6" on="0"/>
        <pt x="605" y="56" on="0"/>
        <pt x="690" y="143" on="0"/>
        <pt x="739" y="262" on="0"/>
        <pt x="739" y="330" on="1"/>
        <pt x="739" y="397" on="0"/>
        <pt x="690" y="515" on="0"/>
        <pt x="605" y="602" on="0"/>
        <pt x="488" y="652" on="0"/>
        <pt x="420" y="652" on="1"/>
        <pt x="353" y="652" on="0"/>
        <pt x="237" y="602" on="0"/>
        <pt x="151" y="515" on="0"/>
        <pt x="102" y="397" on="0"/>
        <pt x="102" y="330" on="1"/>
        <pt x="102" y="262" on="0"/>
        <pt x="151" y="143" on="0"/>
        <pt x="237" y="56" on="0"/>
        <pt x="353" y="6" on="0"/>
      </contour>
      <contour>
        <pt x="424" y="141" on="1"/>
        <pt x="385" y="141" on="0"/>
        <pt x="318" y="172" on="0"/>
        <pt x="270" y="224" on="0"/>
        <pt x="243" y="296" on="0"/>
        <pt x="243" y="336" on="1"/>
        <pt x="243" y="375" on="0"/>
        <pt x="273" y="444" on="0"/>
        <pt x="323" y="494" on="0"/>
        <pt x="390" y="524" on="0"/>
        <pt x="425" y="524" on="1"/>
        <pt x="458" y="524" on="0"/>
        <pt x="506" y="500" on="0"/>
        <pt x="523" y="481" on="1"/>
        <pt x="533" y="523" on="1"/>
        <pt x="575" y="523" on="1"/>
        <pt x="575" y="383" on="1"/>
        <pt x="536" y="383" on="1"/>
        <pt x="517" y="431" on="0"/>
        <pt x="465" y="482" on="0"/>
        <pt x="428" y="482" on="1"/>
        <pt x="383" y="482" on="0"/>
        <pt x="321" y="416" on="0"/>
        <pt x="321" y="339" on="1"/>
        <pt x="321" y="264" on="0"/>
        <pt x="377" y="186" on="0"/>
        <pt x="433" y="186" on="1"/>
        <pt x="483" y="186" on="0"/>
        <pt x="534" y="250" on="0"/>
        <pt x="540" y="298" on="1"/>
        <pt x="585" y="298" on="1"/>
        <pt x="578" y="224" on="0"/>
        <pt x="489" y="141" on="0"/>
      </contour>
    </TTGlyph>
    <TTGlyph name="d" xMin="32" yMin="-9" xMax="547" yMax="687">
      <contour>
        <pt x="158" y="-9" on="1"/>
        <pt x="101" y="-9" on="0"/>
        <pt x="32" y="80" on="0"/>
        <pt x="32" y="146" on="1"/>
        <pt x="32" y="221" on="0"/>
        <pt x="85" y="344" on="0"/>
        <pt x="125" y="384" on="1"/>
        <pt x="162" y="421" on="0"/>
        <pt x="247" y="466" on="0"/>
        <pt x="288" y="466" on="1"/>
        <pt x="327" y="466" on="0"/>
        <pt x="369" y="428" on="0"/>
        <pt x="377" y="396" on="1"/>
        <pt x="436" y="615" on="1"/>
        <pt x="345" y="615" on="1"/>
        <pt x="364" y="687" on="1"/>
        <pt x="547" y="687" on="1"/>
        <pt x="403" y="153" on="1"/>
        <pt x="397" y="131" on="0"/>
        <pt x="391" y="100" on="0"/>
        <pt x="391" y="89" on="1"/>
        <pt x="391" y="77" on="0"/>
        <pt x="402" y="63" on="0"/>
        <pt x="415" y="63" on="1"/>
        <pt x="434" y="63" on="0"/>
        <pt x="468" y="119" on="0"/>
        <pt x="485" y="166" on="1"/>
        <pt x="529" y="153" on="1"/>
        <pt x="499" y="60" on="0"/>
        <pt x="425" y="-9" on="0"/>
        <pt x="386" y="-9" on="1"/>
        <pt x="355" y="-9" on="0"/>
        <pt x="312" y="34" on="0"/>
        <pt x="312" y="74" on="1"/>
        <pt x="312" y="78" on="0"/>
        <pt x="312" y="86" on="0"/>
        <pt x="313" y="94" on="1"/>
        <pt x="306" y="97" on="1"/>
        <pt x="278" y="46" on="0"/>
        <pt x="198" y="-9" on="0"/>
      </contour>
      <contour>
        <pt x="195" y="62" on="1"/>
        <pt x="227" y="62" on="0"/>
        <pt x="284" y="121" on="0"/>
        <pt x="326" y="206" on="0"/>
        <pt x="350" y="300" on="0"/>
        <pt x="350" y="335" on="1"/>
        <pt x="350" y="372" on="0"/>
        <pt x="323" y="410" on="0"/>
        <pt x="292" y="410" on="1"/>
        <pt x="254" y="410" on="0"/>
        <pt x="193" y="354" on="0"/>
        <pt x="152" y="276" on="0"/>
        <pt x="130" y="190" on="0"/>
        <pt x="130" y="161" on="1"/>
        <pt x="130" y="115" on="0"/>
        <pt x="162" y="62" on="0"/>
      </contour>
    </TTGlyph>
    <TTGlyph name="dagger" xMin="78" yMin="-105" xMax="546" yMax="703">
      <contour>
        <pt x="178" y="-103" on="1"/>
        <pt x="168" y="-101" on="0"/>
        <pt x="149" y="-38" on="0"/>
        <pt x="157" y="-2" on="1"/>
        <pt x="195" y="147" on="1"/>
        <pt x="289" y="424" on="1"/>
        <pt x="260" y="434" on="0"/>
        <pt x="198" y="451" on="0"/>
        <pt x="184" y="451" on="1"/>
        <pt x="183" y="451" on="0"/>
        <pt x="175" y="451" on="0"/>
        <pt x="173" y="450" on="1"/>
        <pt x="180" y="423" on="0"/>
        <pt x="150" y="375" on="0"/>
        <pt x="122" y="375" on="1"/>
        <pt x="106" y="375" on="0"/>
        <pt x="78" y="399" on="0"/>
        <pt x="78" y="421" on="1"/>
        <pt x="78" y="448" on="0"/>
        <pt x="123" y="495" on="0"/>
        <pt x="169" y="495" on="1"/>
        <pt x="200" y="495" on="0"/>
        <pt x="251" y="480" on="0"/>
        <pt x="299" y="464" on="1"/>
        <pt x="311" y="655" on="1"/>
        <pt x="326" y="675" on="1"/>
        <pt x="336" y="688" on="0"/>
        <pt x="356" y="703" on="0"/>
        <pt x="369" y="703" on="1"/>
        <pt x="388" y="703" on="0"/>
        <pt x="408" y="674" on="0"/>
        <pt x="411" y="653" on="1"/>
        <pt x="414" y="629" on="1"/>
        <pt x="334" y="452" on="1"/>
        <pt x="362" y="443" on="0"/>
        <pt x="426" y="425" on="0"/>
        <pt x="440" y="425" on="1"/>
        <pt x="441" y="425" on="0"/>
        <pt x="449" y="425" on="0"/>
        <pt x="451" y="426" on="1"/>
        <pt x="444" y="453" on="0"/>
        <pt x="474" y="501" on="0"/>
        <pt x="502" y="501" on="1"/>
        <pt x="518" y="501" on="0"/>
        <pt x="546" y="477" on="0"/>
        <pt x="546" y="455" on="1"/>
        <pt x="546" y="428" on="0"/>
        <pt x="501" y="381" on="0"/>
        <pt x="455" y="381" on="1"/>
        <pt x="425" y="381" on="0"/>
        <pt x="373" y="395" on="0"/>
        <pt x="327" y="411" on="1"/>
        <pt x="279" y="126" on="1"/>
        <pt x="242" y="-23" on="1"/>
        <pt x="233" y="-59" on="0"/>
        <pt x="186" y="-105" on="0"/>
      </contour>
    </TTGlyph>
    <TTGlyph name="daggerdbl" xMin="10" yMin="-104" xMax="546" yMax="703">
      <contour>
        <pt x="187" y="-104" on="1"/>
        <pt x="168" y="-104" on="0"/>
        <pt x="148" y="-75" on="0"/>
        <pt x="145" y="-54" on="1"/>
        <pt x="142" y="-30" on="1"/>
        <pt x="222" y="147" on="1"/>
        <pt x="194" y="156" on="0"/>
        <pt x="130" y="174" on="0"/>
        <pt x="118" y="174" on="1"/>
        <pt x="115" y="174" on="0"/>
        <pt x="107" y="174" on="0"/>
        <pt x="105" y="173" on="1"/>
        <pt x="112" y="146" on="0"/>
        <pt x="82" y="98" on="0"/>
        <pt x="54" y="98" on="1"/>
        <pt x="38" y="98" on="0"/>
        <pt x="10" y="122" on="0"/>
        <pt x="10" y="144" on="1"/>
        <pt x="10" y="171" on="0"/>
        <pt x="55" y="218" on="0"/>
        <pt x="101" y="218" on="1"/>
        <pt x="131" y="218" on="0"/>
        <pt x="181" y="205" on="0"/>
        <pt x="226" y="189" on="1"/>
        <pt x="238" y="312" on="1"/>
        <pt x="287" y="425" on="1"/>
        <pt x="259" y="434" on="0"/>
        <pt x="197" y="451" on="0"/>
        <pt x="186" y="451" on="1"/>
        <pt x="183" y="451" on="0"/>
        <pt x="175" y="451" on="0"/>
        <pt x="173" y="450" on="1"/>
        <pt x="180" y="423" on="0"/>
        <pt x="150" y="375" on="0"/>
        <pt x="122" y="375" on="1"/>
        <pt x="106" y="375" on="0"/>
        <pt x="78" y="399" on="0"/>
        <pt x="78" y="421" on="1"/>
        <pt x="78" y="448" on="0"/>
        <pt x="123" y="495" on="0"/>
        <pt x="169" y="495" on="1"/>
        <pt x="200" y="495" on="0"/>
        <pt x="251" y="480" on="0"/>
        <pt x="299" y="464" on="1"/>
        <pt x="311" y="655" on="1"/>
        <pt x="326" y="675" on="1"/>
        <pt x="336" y="688" on="0"/>
        <pt x="356" y="703" on="0"/>
        <pt x="369" y="703" on="1"/>
        <pt x="388" y="703" on="0"/>
        <pt x="408" y="674" on="0"/>
        <pt x="411" y="653" on="1"/>
        <pt x="414" y="629" on="1"/>
        <pt x="334" y="452" on="1"/>
        <pt x="362" y="443" on="0"/>
        <pt x="426" y="425" on="0"/>
        <pt x="438" y="425" on="1"/>
        <pt x="441" y="425" on="0"/>
        <pt x="449" y="425" on="0"/>
        <pt x="451" y="426" on="1"/>
        <pt x="444" y="453" on="0"/>
        <pt x="474" y="501" on="0"/>
        <pt x="502" y="501" on="1"/>
        <pt x="518" y="501" on="0"/>
        <pt x="546" y="477" on="0"/>
        <pt x="546" y="455" on="1"/>
        <pt x="546" y="428" on="0"/>
        <pt x="501" y="381" on="0"/>
        <pt x="455" y="381" on="1"/>
        <pt x="425" y="381" on="0"/>
        <pt x="375" y="395" on="0"/>
        <pt x="329" y="410" on="1"/>
        <pt x="316" y="286" on="1"/>
        <pt x="268" y="175" on="1"/>
        <pt x="296" y="165" on="0"/>
        <pt x="359" y="148" on="0"/>
        <pt x="370" y="148" on="1"/>
        <pt x="373" y="148" on="0"/>
        <pt x="381" y="148" on="0"/>
        <pt x="383" y="149" on="1"/>
        <pt x="376" y="176" on="0"/>
        <pt x="406" y="224" on="0"/>
        <pt x="434" y="224" on="1"/>
        <pt x="450" y="224" on="0"/>
        <pt x="478" y="200" on="0"/>
        <pt x="478" y="178" on="1"/>
        <pt x="478" y="151" on="0"/>
        <pt x="433" y="104" on="0"/>
        <pt x="387" y="104" on="1"/>
        <pt x="356" y="104" on="0"/>
        <pt x="305" y="119" on="0"/>
        <pt x="257" y="135" on="1"/>
        <pt x="245" y="-56" on="1"/>
        <pt x="230" y="-76" on="1"/>
        <pt x="220" y="-89" on="0"/>
        <pt x="200" y="-104" on="0"/>
      </contour>
    </TTGlyph>
    <TTGlyph name="dcaron" xMin="32" yMin="-9" xMax="713" yMax="751">
      <component glyphName="d" x="0" y="0" flags="0x204"/>
      <component glyphName="caron.alt" x="429" y="0" flags="0x4"/>
    </TTGlyph>
    <TTGlyph name="dcroat" xMin="32" yMin="-9" xMax="583" yMax="687">
      <contour>
        <pt x="158" y="-9" on="1"/>
        <pt x="101" y="-9" on="0"/>
        <pt x="32" y="80" on="0"/>
        <pt x="32" y="146" on="1"/>
        <pt x="32" y="221" on="0"/>
        <pt x="85" y="344" on="0"/>
        <pt x="125" y="384" on="1"/>
        <pt x="162" y="421" on="0"/>
        <pt x="247" y="466" on="0"/>
        <pt x="288" y="466" on="1"/>
        <pt x="331" y="466" on="0"/>
        <pt x="371" y="424" on="0"/>
        <pt x="377" y="396" on="1"/>
        <pt x="406" y="504" on="1"/>
        <pt x="278" y="504" on="1"/>
        <pt x="293" y="560" on="1"/>
        <pt x="421" y="560" on="1"/>
        <pt x="436" y="615" on="1"/>
        <pt x="345" y="615" on="1"/>
        <pt x="364" y="687" on="1"/>
        <pt x="547" y="687" on="1"/>
        <pt x="513" y="560" on="1"/>
        <pt x="583" y="560" on="1"/>
        <pt x="568" y="504" on="1"/>
        <pt x="498" y="504" on="1"/>
        <pt x="403" y="153" on="1"/>
        <pt x="397" y="131" on="0"/>
        <pt x="391" y="100" on="0"/>
        <pt x="391" y="89" on="1"/>
        <pt x="391" y="77" on="0"/>
        <pt x="402" y="63" on="0"/>
        <pt x="415" y="63" on="1"/>
        <pt x="434" y="63" on="0"/>
        <pt x="468" y="119" on="0"/>
        <pt x="485" y="166" on="1"/>
        <pt x="529" y="153" on="1"/>
        <pt x="499" y="60" on="0"/>
        <pt x="425" y="-9" on="0"/>
        <pt x="386" y="-9" on="1"/>
        <pt x="355" y="-9" on="0"/>
        <pt x="312" y="34" on="0"/>
        <pt x="312" y="74" on="1"/>
        <pt x="312" y="78" on="0"/>
        <pt x="312" y="86" on="0"/>
        <pt x="313" y="94" on="1"/>
        <pt x="306" y="97" on="1"/>
        <pt x="278" y="46" on="0"/>
        <pt x="198" y="-9" on="0"/>
      </contour>
      <contour>
        <pt x="195" y="62" on="1"/>
        <pt x="227" y="62" on="0"/>
        <pt x="284" y="121" on="0"/>
        <pt x="326" y="206" on="0"/>
        <pt x="350" y="300" on="0"/>
        <pt x="350" y="335" on="1"/>
        <pt x="350" y="372" on="0"/>
        <pt x="323" y="410" on="0"/>
        <pt x="292" y="410" on="1"/>
        <pt x="254" y="410" on="0"/>
        <pt x="193" y="354" on="0"/>
        <pt x="152" y="276" on="0"/>
        <pt x="130" y="190" on="0"/>
        <pt x="130" y="161" on="1"/>
        <pt x="130" y="115" on="0"/>
        <pt x="162" y="62" on="0"/>
      </contour>
    </TTGlyph>
    <TTGlyph name="degree" xMin="103" yMin="354" xMax="425" yMax="673">
      <contour>
        <pt x="249" y="354" on="1"/>
        <pt x="177" y="354" on="0"/>
        <pt x="103" y="437" on="0"/>
        <pt x="103" y="490" on="1"/>
        <pt x="103" y="527" on="0"/>
        <pt x="129" y="594" on="0"/>
        <pt x="176" y="644" on="0"/>
        <pt x="241" y="673" on="0"/>
        <pt x="279" y="673" on="1"/>
        <pt x="351" y="673" on="0"/>
        <pt x="425" y="590" on="0"/>
        <pt x="425" y="537" on="1"/>
        <pt x="425" y="500" on="0"/>
        <pt x="399" y="433" on="0"/>
        <pt x="352" y="383" on="0"/>
        <pt x="287" y="354" on="0"/>
      </contour>
      <contour>
        <pt x="252" y="409" on="1"/>
        <pt x="278" y="409" on="0"/>
        <pt x="315" y="435" on="0"/>
        <pt x="339" y="474" on="0"/>
        <pt x="350" y="519" on="0"/>
        <pt x="350" y="538" on="1"/>
        <pt x="350" y="576" on="0"/>
        <pt x="311" y="618" on="0"/>
        <pt x="276" y="618" on="1"/>
        <pt x="250" y="618" on="0"/>
        <pt x="213" y="592" on="0"/>
        <pt x="189" y="553" on="0"/>
        <pt x="178" y="508" on="0"/>
        <pt x="178" y="489" on="1"/>
        <pt x="178" y="451" on="0"/>
        <pt x="218" y="409" on="0"/>
      </contour>
    </TTGlyph>
    <TTGlyph name="degree.tab" xMin="138" yMin="294" xMax="530" yMax="674">
      <contour>
        <pt x="316" y="294" on="1"/>
        <pt x="274" y="294" on="0"/>
        <pt x="208" y="320" on="0"/>
        <pt x="162" y="364" on="0"/>
        <pt x="138" y="424" on="0"/>
        <pt x="138" y="457" on="1"/>
        <pt x="138" y="501" on="0"/>
        <pt x="171" y="580" on="0"/>
        <pt x="229" y="639" on="0"/>
        <pt x="308" y="674" on="0"/>
        <pt x="353" y="674" on="1"/>
        <pt x="394" y="674" on="0"/>
        <pt x="460" y="648" on="0"/>
        <pt x="506" y="604" on="0"/>
        <pt x="530" y="544" on="0"/>
        <pt x="530" y="511" on="1"/>
        <pt x="530" y="467" on="0"/>
        <pt x="497" y="388" on="0"/>
        <pt x="439" y="329" on="0"/>
        <pt x="361" y="294" on="0"/>
      </contour>
      <contour>
        <pt x="316" y="351" on="1"/>
        <pt x="351" y="351" on="0"/>
        <pt x="401" y="384" on="0"/>
        <pt x="433" y="433" on="0"/>
        <pt x="448" y="491" on="0"/>
        <pt x="448" y="515" on="1"/>
        <pt x="448" y="564" on="0"/>
        <pt x="395" y="617" on="0"/>
        <pt x="352" y="617" on="1"/>
        <pt x="317" y="617" on="0"/>
        <pt x="267" y="584" on="0"/>
        <pt x="235" y="535" on="0"/>
        <pt x="220" y="477" on="0"/>
        <pt x="220" y="453" on="1"/>
        <pt x="220" y="404" on="0"/>
        <pt x="273" y="351" on="0"/>
      </contour>
    </TTGlyph>
    <TTGlyph name="dieresis" xMin="115" yMin="556" xMax="416" yMax="682">
      <contour>
        <pt x="163" y="556" on="1"/>
        <pt x="143" y="556" on="0"/>
        <pt x="115" y="583" on="0"/>
        <pt x="115" y="607" on="1"/>
        <pt x="115" y="633" on="0"/>
        <pt x="152" y="682" on="0"/>
        <pt x="183" y="682" on="1"/>
        <pt x="205" y="682" on="0"/>
        <pt x="234" y="655" on="0"/>
        <pt x="234" y="631" on="1"/>
        <pt x="234" y="606" on="0"/>
        <pt x="194" y="556" on="0"/>
      </contour>
      <contour>
        <pt x="345" y="556" on="1"/>
        <pt x="325" y="556" on="0"/>
        <pt x="297" y="583" on="0"/>
        <pt x="297" y="607" on="1"/>
        <pt x="297" y="633" on="0"/>
        <pt x="334" y="682" on="0"/>
        <pt x="365" y="682" on="1"/>
        <pt x="387" y="682" on="0"/>
        <pt x="416" y="655" on="0"/>
        <pt x="416" y="631" on="1"/>
        <pt x="416" y="606" on="0"/>
        <pt x="376" y="556" on="0"/>
      </contour>
    </TTGlyph>
    <TTGlyph name="divide" xMin="61" yMin="98" xMax="506" yMax="536">
      <contour>
        <pt x="319" y="408" on="1"/>
        <pt x="296" y="408" on="0"/>
        <pt x="262" y="439" on="0"/>
        <pt x="262" y="468" on="1"/>
        <pt x="262" y="489" on="0"/>
        <pt x="295" y="536" on="0"/>
        <pt x="325" y="536" on="1"/>
        <pt x="348" y="536" on="0"/>
        <pt x="382" y="505" on="0"/>
        <pt x="382" y="476" on="1"/>
        <pt x="382" y="455" on="0"/>
        <pt x="349" y="408" on="0"/>
      </contour>
      <contour>
        <pt x="61" y="286" on="1"/>
        <pt x="76" y="348" on="1"/>
        <pt x="506" y="348" on="1"/>
        <pt x="491" y="286" on="1"/>
      </contour>
      <contour>
        <pt x="242" y="98" on="1"/>
        <pt x="219" y="98" on="0"/>
        <pt x="185" y="129" on="0"/>
        <pt x="185" y="158" on="1"/>
        <pt x="185" y="179" on="0"/>
        <pt x="218" y="226" on="0"/>
        <pt x="248" y="226" on="1"/>
        <pt x="271" y="226" on="0"/>
        <pt x="305" y="195" on="0"/>
        <pt x="305" y="166" on="1"/>
        <pt x="305" y="145" on="0"/>
        <pt x="272" y="98" on="0"/>
      </contour>
    </TTGlyph>
    <TTGlyph name="divide.osf" xMin="52" yMin="62" xMax="497" yMax="500">
      <contour>
        <pt x="310" y="372" on="1"/>
        <pt x="287" y="372" on="0"/>
        <pt x="253" y="403" on="0"/>
        <pt x="253" y="432" on="1"/>
        <pt x="253" y="453" on="0"/>
        <pt x="286" y="500" on="0"/>
        <pt x="316" y="500" on="1"/>
        <pt x="339" y="500" on="0"/>
        <pt x="373" y="469" on="0"/>
        <pt x="373" y="440" on="1"/>
        <pt x="373" y="419" on="0"/>
        <pt x="340" y="372" on="0"/>
      </contour>
      <contour>
        <pt x="52" y="250" on="1"/>
        <pt x="67" y="312" on="1"/>
        <pt x="497" y="312" on="1"/>
        <pt x="482" y="250" on="1"/>
      </contour>
      <contour>
        <pt x="233" y="62" on="1"/>
        <pt x="210" y="62" on="0"/>
        <pt x="176" y="93" on="0"/>
        <pt x="176" y="122" on="1"/>
        <pt x="176" y="143" on="0"/>
        <pt x="209" y="190" on="0"/>
        <pt x="239" y="190" on="1"/>
        <pt x="262" y="190" on="0"/>
        <pt x="296" y="159" on="0"/>
        <pt x="296" y="130" on="1"/>
        <pt x="296" y="109" on="0"/>
        <pt x="263" y="62" on="0"/>
      </contour>
    </TTGlyph>
    <TTGlyph name="divide.tab" xMin="70" yMin="98" xMax="515" yMax="536">
      <contour>
        <pt x="328" y="408" on="1"/>
        <pt x="305" y="408" on="0"/>
        <pt x="271" y="439" on="0"/>
        <pt x="271" y="468" on="1"/>
        <pt x="271" y="489" on="0"/>
        <pt x="304" y="536" on="0"/>
        <pt x="334" y="536" on="1"/>
        <pt x="357" y="536" on="0"/>
        <pt x="391" y="505" on="0"/>
        <pt x="391" y="476" on="1"/>
        <pt x="391" y="455" on="0"/>
        <pt x="358" y="408" on="0"/>
      </contour>
      <contour>
        <pt x="70" y="286" on="1"/>
        <pt x="85" y="348" on="1"/>
        <pt x="515" y="348" on="1"/>
        <pt x="500" y="286" on="1"/>
      </contour>
      <contour>
        <pt x="251" y="98" on="1"/>
        <pt x="228" y="98" on="0"/>
        <pt x="194" y="129" on="0"/>
        <pt x="194" y="158" on="1"/>
        <pt x="194" y="179" on="0"/>
        <pt x="227" y="226" on="0"/>
        <pt x="257" y="226" on="1"/>
        <pt x="280" y="226" on="0"/>
        <pt x="314" y="195" on="0"/>
        <pt x="314" y="166" on="1"/>
        <pt x="314" y="145" on="0"/>
        <pt x="281" y="98" on="0"/>
      </contour>
    </TTGlyph>
    <TTGlyph name="dollar" xMin="34" yMin="-86" xMax="557" yMax="707">
      <contour>
        <pt x="232" y="-86" on="1"/>
        <pt x="174" y="-76" on="1"/>
        <pt x="194" y="7" on="1"/>
        <pt x="122" y="22" on="0"/>
        <pt x="34" y="102" on="0"/>
        <pt x="34" y="146" on="1"/>
        <pt x="34" y="180" on="0"/>
        <pt x="77" y="229" on="0"/>
        <pt x="107" y="229" on="1"/>
        <pt x="132" y="229" on="0"/>
        <pt x="163" y="195" on="0"/>
        <pt x="163" y="175" on="1"/>
        <pt x="163" y="155" on="0"/>
        <pt x="134" y="118" on="0"/>
        <pt x="116" y="111" on="1"/>
        <pt x="123" y="94" on="0"/>
        <pt x="176" y="64" on="0"/>
        <pt x="208" y="57" on="1"/>
        <pt x="264" y="286" on="1"/>
        <pt x="238" y="299" on="0"/>
        <pt x="188" y="328" on="0"/>
        <pt x="149" y="365" on="0"/>
        <pt x="125" y="411" on="0"/>
        <pt x="125" y="442" on="1"/>
        <pt x="125" y="486" on="0"/>
        <pt x="163" y="558" on="0"/>
        <pt x="225" y="608" on="0"/>
        <pt x="307" y="636" on="0"/>
        <pt x="351" y="636" on="1"/>
        <pt x="369" y="707" on="1"/>
        <pt x="427" y="697" on="1"/>
        <pt x="411" y="631" on="1"/>
        <pt x="449" y="624" on="0"/>
        <pt x="504" y="594" on="0"/>
        <pt x="540" y="558" on="0"/>
        <pt x="557" y="519" on="0"/>
        <pt x="557" y="503" on="1"/>
        <pt x="557" y="469" on="0"/>
        <pt x="519" y="422" on="0"/>
        <pt x="491" y="422" on="1"/>
        <pt x="466" y="422" on="0"/>
        <pt x="439" y="451" on="0"/>
        <pt x="439" y="470" on="1"/>
        <pt x="439" y="489" on="0"/>
        <pt x="461" y="523" on="0"/>
        <pt x="476" y="531" on="1"/>
        <pt x="469" y="545" on="0"/>
        <pt x="428" y="574" on="0"/>
        <pt x="398" y="581" on="1"/>
        <pt x="344" y="363" on="1"/>
        <pt x="370" y="350" on="0"/>
        <pt x="421" y="319" on="0"/>
        <pt x="460" y="281" on="0"/>
        <pt x="484" y="231" on="0"/>
        <pt x="484" y="198" on="1"/>
        <pt x="484" y="163" on="0"/>
        <pt x="458" y="92" on="0"/>
        <pt x="403" y="36" on="0"/>
        <pt x="320" y="0" on="0"/>
        <pt x="263" y="0" on="1"/>
        <pt x="261" y="0" on="0"/>
        <pt x="255" y="0" on="0"/>
        <pt x="253" y="0" on="1"/>
      </contour>
      <contour>
        <pt x="220" y="477" on="1"/>
        <pt x="220" y="447" on="0"/>
        <pt x="261" y="406" on="0"/>
        <pt x="290" y="390" on="1"/>
        <pt x="339" y="585" on="1"/>
        <pt x="285" y="581" on="0"/>
        <pt x="220" y="516" on="0"/>
      </contour>
      <contour>
        <pt x="397" y="159" on="1"/>
        <pt x="397" y="193" on="0"/>
        <pt x="351" y="239" on="0"/>
        <pt x="318" y="258" on="1"/>
        <pt x="266" y="50" on="1"/>
        <pt x="332" y="51" on="0"/>
        <pt x="397" y="115" on="0"/>
      </contour>
    </TTGlyph>
    <TTGlyph name="dollar.osf" xMin="31" yMin="-84" xMax="526" yMax="633">
      <contour>
        <pt x="225" y="-84" on="1"/>
        <pt x="167" y="-74" on="1"/>
        <pt x="187" y="6" on="1"/>
        <pt x="116" y="21" on="0"/>
        <pt x="31" y="100" on="0"/>
        <pt x="31" y="145" on="1"/>
        <pt x="31" y="178" on="0"/>
        <pt x="74" y="227" on="0"/>
        <pt x="103" y="227" on="1"/>
        <pt x="129" y="227" on="0"/>
        <pt x="159" y="194" on="0"/>
        <pt x="159" y="173" on="1"/>
        <pt x="159" y="154" on="0"/>
        <pt x="131" y="116" on="0"/>
        <pt x="112" y="109" on="1"/>
        <pt x="120" y="93" on="0"/>
        <pt x="169" y="64" on="0"/>
        <pt x="200" y="57" on="1"/>
        <pt x="247" y="247" on="1"/>
        <pt x="222" y="259" on="0"/>
        <pt x="173" y="285" on="0"/>
        <pt x="135" y="317" on="0"/>
        <pt x="112" y="359" on="0"/>
        <pt x="112" y="387" on="1"/>
        <pt x="112" y="426" on="0"/>
        <pt x="149" y="491" on="0"/>
        <pt x="208" y="537" on="0"/>
        <pt x="286" y="562" on="0"/>
        <pt x="326" y="562" on="1"/>
        <pt x="344" y="633" on="1"/>
        <pt x="402" y="623" on="1"/>
        <pt x="385" y="557" on="1"/>
        <pt x="421" y="550" on="0"/>
        <pt x="475" y="521" on="0"/>
        <pt x="509" y="486" on="0"/>
        <pt x="526" y="448" on="0"/>
        <pt x="526" y="432" on="1"/>
        <pt x="526" y="398" on="0"/>
        <pt x="488" y="350" on="0"/>
        <pt x="460" y="350" on="1"/>
        <pt x="435" y="350" on="0"/>
        <pt x="408" y="379" on="0"/>
        <pt x="408" y="398" on="1"/>
        <pt x="408" y="417" on="0"/>
        <pt x="430" y="451" on="0"/>
        <pt x="446" y="459" on="1"/>
        <pt x="439" y="472" on="0"/>
        <pt x="400" y="499" on="0"/>
        <pt x="373" y="506" on="1"/>
        <pt x="326" y="322" on="1"/>
        <pt x="351" y="310" on="0"/>
        <pt x="400" y="284" on="0"/>
        <pt x="438" y="250" on="0"/>
        <pt x="462" y="206" on="0"/>
        <pt x="462" y="177" on="1"/>
        <pt x="462" y="145" on="0"/>
        <pt x="437" y="82" on="0"/>
        <pt x="385" y="32" on="0"/>
        <pt x="306" y="0" on="0"/>
        <pt x="253" y="0" on="1"/>
        <pt x="252" y="0" on="0"/>
        <pt x="247" y="0" on="0"/>
        <pt x="246" y="0" on="1"/>
      </contour>
      <contour>
        <pt x="207" y="422" on="1"/>
        <pt x="207" y="397" on="0"/>
        <pt x="245" y="363" on="0"/>
        <pt x="273" y="348" on="1"/>
        <pt x="314" y="511" on="1"/>
        <pt x="266" y="507" on="0"/>
        <pt x="207" y="453" on="0"/>
      </contour>
      <contour>
        <pt x="375" y="135" on="1"/>
        <pt x="375" y="164" on="0"/>
        <pt x="332" y="205" on="0"/>
        <pt x="301" y="221" on="1"/>
        <pt x="259" y="50" on="1"/>
        <pt x="316" y="51" on="0"/>
        <pt x="375" y="101" on="0"/>
      </contour>
    </TTGlyph>
    <TTGlyph name="dollar.tab" xMin="47" yMin="-86" xMax="541" yMax="707">
      <contour>
        <pt x="226" y="-86" on="1"/>
        <pt x="172" y="-76" on="1"/>
        <pt x="192" y="6" on="1"/>
        <pt x="130" y="18" on="0"/>
        <pt x="47" y="90" on="0"/>
        <pt x="47" y="146" on="1"/>
        <pt x="47" y="172" on="0"/>
        <pt x="81" y="224" on="0"/>
        <pt x="115" y="224" on="1"/>
        <pt x="134" y="224" on="0"/>
        <pt x="165" y="196" on="0"/>
        <pt x="165" y="170" on="1"/>
        <pt x="165" y="151" on="0"/>
        <pt x="142" y="114" on="0"/>
        <pt x="126" y="107" on="1"/>
        <pt x="135" y="91" on="0"/>
        <pt x="178" y="64" on="0"/>
        <pt x="206" y="57" on="1"/>
        <pt x="262" y="286" on="1"/>
        <pt x="238" y="299" on="0"/>
        <pt x="192" y="328" on="0"/>
        <pt x="156" y="365" on="0"/>
        <pt x="134" y="411" on="0"/>
        <pt x="134" y="442" on="1"/>
        <pt x="135" y="486" on="0"/>
        <pt x="172" y="558" on="0"/>
        <pt x="231" y="608" on="0"/>
        <pt x="308" y="636" on="0"/>
        <pt x="349" y="636" on="1"/>
        <pt x="367" y="707" on="1"/>
        <pt x="422" y="697" on="1"/>
        <pt x="406" y="631" on="1"/>
        <pt x="472" y="618" on="0"/>
        <pt x="541" y="545" on="0"/>
        <pt x="541" y="505" on="1"/>
        <pt x="541" y="480" on="0"/>
        <pt x="511" y="428" on="0"/>
        <pt x="479" y="428" on="1"/>
        <pt x="458" y="428" on="0"/>
        <pt x="431" y="456" on="0"/>
        <pt x="431" y="477" on="1"/>
        <pt x="431" y="496" on="0"/>
        <pt x="449" y="528" on="0"/>
        <pt x="462" y="537" on="1"/>
        <pt x="455" y="550" on="0"/>
        <pt x="419" y="575" on="0"/>
        <pt x="393" y="581" on="1"/>
        <pt x="339" y="363" on="1"/>
        <pt x="363" y="350" on="0"/>
        <pt x="410" y="319" on="0"/>
        <pt x="446" y="281" on="0"/>
        <pt x="468" y="231" on="0"/>
        <pt x="467" y="198" on="1"/>
        <pt x="467" y="163" on="0"/>
        <pt x="441" y="92" on="0"/>
        <pt x="390" y="36" on="0"/>
        <pt x="310" y="0" on="0"/>
        <pt x="257" y="0" on="1"/>
        <pt x="255" y="0" on="0"/>
        <pt x="249" y="0" on="0"/>
        <pt x="247" y="0" on="1"/>
      </contour>
      <contour>
        <pt x="223" y="477" on="1"/>
        <pt x="222" y="448" on="0"/>
        <pt x="260" y="406" on="0"/>
        <pt x="288" y="390" on="1"/>
        <pt x="337" y="585" on="1"/>
        <pt x="286" y="581" on="0"/>
        <pt x="224" y="516" on="0"/>
      </contour>
      <contour>
        <pt x="386" y="159" on="1"/>
        <pt x="387" y="193" on="0"/>
        <pt x="344" y="239" on="0"/>
        <pt x="313" y="258" on="1"/>
        <pt x="261" y="50" on="1"/>
        <pt x="324" y="51" on="0"/>
        <pt x="385" y="115" on="0"/>
      </contour>
    </TTGlyph>
    <TTGlyph name="dotaccent" xMin="136" yMin="537" xMax="259" yMax="668">
      <contour>
        <pt x="185" y="537" on="1"/>
        <pt x="165" y="537" on="0"/>
        <pt x="136" y="565" on="0"/>
        <pt x="136" y="590" on="1"/>
        <pt x="136" y="617" on="0"/>
        <pt x="174" y="668" on="0"/>
        <pt x="207" y="668" on="1"/>
        <pt x="230" y="668" on="0"/>
        <pt x="259" y="639" on="0"/>
        <pt x="259" y="614" on="1"/>
        <pt x="259" y="588" on="0"/>
        <pt x="219" y="537" on="0"/>
      </contour>
    </TTGlyph>
    <TTGlyph name="dotlessi" xMin="21" yMin="-9" xMax="314" yMax="466">
      <contour>
        <pt x="167" y="-9" on="1"/>
        <pt x="133" y="-9" on="0"/>
        <pt x="86" y="37" on="0"/>
        <pt x="86" y="81" on="1"/>
        <pt x="86" y="120" on="0"/>
        <pt x="112" y="204" on="0"/>
        <pt x="143" y="283" on="0"/>
        <pt x="169" y="354" on="0"/>
        <pt x="169" y="380" on="1"/>
        <pt x="169" y="393" on="0"/>
        <pt x="161" y="403" on="0"/>
        <pt x="153" y="403" on="1"/>
        <pt x="129" y="403" on="0"/>
        <pt x="87" y="341" on="0"/>
        <pt x="65" y="295" on="1"/>
        <pt x="21" y="315" on="1"/>
        <pt x="52" y="385" on="0"/>
        <pt x="127" y="466" on="0"/>
        <pt x="173" y="466" on="1"/>
        <pt x="210" y="466" on="0"/>
        <pt x="256" y="411" on="0"/>
        <pt x="256" y="360" on="1"/>
        <pt x="256" y="332" on="0"/>
        <pt x="231" y="257" on="0"/>
        <pt x="201" y="181" on="0"/>
        <pt x="176" y="112" on="0"/>
        <pt x="176" y="88" on="1"/>
        <pt x="176" y="75" on="0"/>
        <pt x="187" y="63" on="0"/>
        <pt x="198" y="63" on="1"/>
        <pt x="214" y="63" on="0"/>
        <pt x="249" y="113" on="0"/>
        <pt x="270" y="166" on="1"/>
        <pt x="314" y="153" on="1"/>
        <pt x="285" y="63" on="0"/>
        <pt x="208" y="-9" on="0"/>
      </contour>
    </TTGlyph>
    <TTGlyph name="dotmath" xMin="129" yMin="251" xMax="253" yMax="385">
      <component glyphName="period" x="114" y="267" flags="0x4"/>
    </TTGlyph>
    <TTGlyph name="dotmath.osf" xMin="120" yMin="214" xMax="244" yMax="348">
      <component glyphName="period" x="105" y="230" flags="0x4"/>
    </TTGlyph>
    <TTGlyph name="dotmath.tab" xMin="95" yMin="250" xMax="219" yMax="384">
      <component glyphName="period" x="80" y="266" flags="0x4"/>
    </TTGlyph>
    <TTGlyph name="e" xMin="31" yMin="-9" xMax="432" yMax="466">
      <contour>
        <pt x="191" y="-9" on="1"/>
        <pt x="122" y="-9" on="0"/>
        <pt x="31" y="89" on="0"/>
        <pt x="31" y="169" on="1"/>
        <pt x="31" y="226" on="0"/>
        <pt x="78" y="333" on="0"/>
        <pt x="156" y="416" on="0"/>
        <pt x="259" y="466" on="0"/>
        <pt x="313" y="466" on="1"/>
        <pt x="370" y="466" on="0"/>
        <pt x="432" y="412" on="0"/>
        <pt x="432" y="369" on="1"/>
        <pt x="432" y="304" on="0"/>
        <pt x="285" y="198" on="0"/>
        <pt x="131" y="185" on="1"/>
        <pt x="130" y="176" on="0"/>
        <pt x="128" y="159" on="0"/>
        <pt x="128" y="152" on="1"/>
        <pt x="128" y="94" on="0"/>
        <pt x="182" y="47" on="0"/>
        <pt x="220" y="47" on="1"/>
        <pt x="259" y="47" on="0"/>
        <pt x="334" y="102" on="0"/>
        <pt x="363" y="147" on="1"/>
        <pt x="404" y="123" on="1"/>
        <pt x="367" y="66" on="0"/>
        <pt x="269" y="-9" on="0"/>
      </contour>
      <contour>
        <pt x="297" y="416" on="1"/>
        <pt x="269" y="416" on="0"/>
        <pt x="219" y="382" on="0"/>
        <pt x="179" y="330" on="0"/>
        <pt x="149" y="263" on="0"/>
        <pt x="140" y="230" on="1"/>
        <pt x="250" y="245" on="0"/>
        <pt x="346" y="317" on="0"/>
        <pt x="346" y="367" on="1"/>
        <pt x="346" y="386" on="0"/>
        <pt x="322" y="416" on="0"/>
      </contour>
    </TTGlyph>
    <TTGlyph name="eacute" xMin="31" yMin="-9" xMax="462" yMax="731">
      <component glyphName="e" x="0" y="0" flags="0x204"/>
      <component glyphName="acute" x="135" y="0" flags="0x4"/>
    </TTGlyph>
    <TTGlyph name="ebreve" xMin="31" yMin="-9" xMax="482" yMax="697">
      <component glyphName="e" x="0" y="0" flags="0x204"/>
      <component glyphName="breve" x="52" y="0" flags="0x4"/>
    </TTGlyph>
    <TTGlyph name="ecaron" xMin="31" yMin="-9" xMax="479" yMax="726">
      <component glyphName="e" x="0" y="0" flags="0x204"/>
      <component glyphName="caron" x="66" y="0" flags="0x4"/>
    </TTGlyph>
    <TTGlyph name="ecircumflex" xMin="31" yMin="-9" xMax="441" yMax="717">
      <component glyphName="e" x="0" y="0" flags="0x204"/>
      <component glyphName="circumflex" x="77" y="0" flags="0x4"/>
    </TTGlyph>
    <TTGlyph name="edieresis" xMin="31" yMin="-9" xMax="488" yMax="682">
      <component glyphName="e" x="0" y="0" flags="0x204"/>
      <component glyphName="dieresis" x="72" y="0" flags="0x4"/>
    </TTGlyph>
    <TTGlyph name="edotaccent" xMin="31" yMin="-9" xMax="432" yMax="668">
      <component glyphName="e" x="0" y="0" flags="0x204"/>
      <component glyphName="dotaccent" x="136" y="0" flags="0x4"/>
    </TTGlyph>
    <TTGlyph name="egrave" xMin="31" yMin="-9" xMax="432" yMax="730">
      <component glyphName="e" x="0" y="0" flags="0x204"/>
      <component glyphName="grave" x="70" y="0" flags="0x4"/>
    </TTGlyph>
    <TTGlyph name="eight" xMin="33" yMin="-16" xMax="526" yMax="650">
      <contour>
        <pt x="242" y="-16" on="1"/>
        <pt x="193" y="-16" on="0"/>
        <pt x="115" y="10" on="0"/>
        <pt x="62" y="55" on="0"/>
        <pt x="33" y="115" on="0"/>
        <pt x="33" y="149" on="1"/>
        <pt x="33" y="207" on="0"/>
        <pt x="117" y="299" on="0"/>
        <pt x="194" y="317" on="1"/>
        <pt x="160" y="340" on="0"/>
        <pt x="117" y="407" on="0"/>
        <pt x="117" y="455" on="1"/>
        <pt x="117" y="488" on="0"/>
        <pt x="144" y="557" on="0"/>
        <pt x="199" y="614" on="0"/>
        <pt x="282" y="650" on="0"/>
        <pt x="337" y="650" on="1"/>
        <pt x="424" y="650" on="0"/>
        <pt x="526" y="559" on="0"/>
        <pt x="526" y="495" on="1"/>
        <pt x="526" y="442" on="0"/>
        <pt x="456" y="353" on="0"/>
        <pt x="384" y="333" on="1"/>
        <pt x="421" y="310" on="0"/>
        <pt x="476" y="239" on="0"/>
        <pt x="476" y="185" on="1"/>
        <pt x="476" y="147" on="0"/>
        <pt x="445" y="75" on="0"/>
        <pt x="386" y="19" on="0"/>
        <pt x="298" y="-16" on="0"/>
      </contour>
      <contour>
        <pt x="211" y="489" on="1"/>
        <pt x="211" y="437" on="0"/>
        <pt x="291" y="381" on="0"/>
        <pt x="342" y="356" on="1"/>
        <pt x="394" y="377" on="0"/>
        <pt x="443" y="454" on="0"/>
        <pt x="443" y="494" on="1"/>
        <pt x="443" y="537" on="0"/>
        <pt x="387" y="593" on="0"/>
        <pt x="333" y="593" on="1"/>
        <pt x="275" y="593" on="0"/>
        <pt x="211" y="527" on="0"/>
      </contour>
      <contour>
        <pt x="124" y="155" on="1"/>
        <pt x="124" y="109" on="0"/>
        <pt x="187" y="42" on="0"/>
        <pt x="250" y="42" on="1"/>
        <pt x="316" y="42" on="0"/>
        <pt x="381" y="112" on="0"/>
        <pt x="381" y="155" on="1"/>
        <pt x="381" y="197" on="0"/>
        <pt x="315" y="255" on="0"/>
        <pt x="237" y="293" on="1"/>
        <pt x="186" y="276" on="0"/>
        <pt x="124" y="203" on="0"/>
      </contour>
    </TTGlyph>
    <TTGlyph name="eight.den" xMin="24" yMin="-82" xMax="384" yMax="400">
      <component glyphName="eight.small" x="-17" y="-70" flags="0x4"/>
    </TTGlyph>
    <TTGlyph name="eight.inf" xMin="-6" yMin="-202" xMax="354" yMax="280">
      <component glyphName="eight.small" x="-47" y="-190" flags="0x4"/>
    </TTGlyph>
    <TTGlyph name="eight.num" xMin="83" yMin="158" xMax="443" yMax="640">
      <component glyphName="eight.small" x="42" y="170" flags="0x4"/>
    </TTGlyph>
    <TTGlyph name="eight.osf" xMin="35" yMin="-16" xMax="512" yMax="637">
      <contour>
        <pt x="241" y="-16" on="1"/>
        <pt x="193" y="-16" on="0"/>
        <pt x="116" y="10" on="0"/>
        <pt x="63" y="54" on="0"/>
        <pt x="35" y="113" on="0"/>
        <pt x="35" y="146" on="1"/>
        <pt x="35" y="203" on="0"/>
        <pt x="116" y="293" on="0"/>
        <pt x="191" y="310" on="1"/>
        <pt x="159" y="332" on="0"/>
        <pt x="114" y="397" on="0"/>
        <pt x="114" y="446" on="1"/>
        <pt x="114" y="478" on="0"/>
        <pt x="141" y="546" on="0"/>
        <pt x="194" y="601" on="0"/>
        <pt x="275" y="637" on="0"/>
        <pt x="328" y="637" on="1"/>
        <pt x="413" y="637" on="0"/>
        <pt x="512" y="548" on="0"/>
        <pt x="512" y="485" on="1"/>
        <pt x="512" y="434" on="0"/>
        <pt x="449" y="348" on="0"/>
        <pt x="381" y="327" on="1"/>
        <pt x="418" y="305" on="0"/>
        <pt x="472" y="236" on="0"/>
        <pt x="472" y="182" on="1"/>
        <pt x="472" y="145" on="0"/>
        <pt x="441" y="73" on="0"/>
        <pt x="383" y="18" on="0"/>
        <pt x="296" y="-16" on="0"/>
      </contour>
      <contour>
        <pt x="208" y="478" on="1"/>
        <pt x="208" y="437" on="0"/>
        <pt x="269" y="384" on="0"/>
        <pt x="338" y="350" on="1"/>
        <pt x="387" y="371" on="0"/>
        <pt x="429" y="444" on="0"/>
        <pt x="429" y="483" on="1"/>
        <pt x="429" y="525" on="0"/>
        <pt x="376" y="580" on="0"/>
        <pt x="324" y="580" on="1"/>
        <pt x="270" y="580" on="0"/>
        <pt x="208" y="515" on="0"/>
      </contour>
      <contour>
        <pt x="126" y="153" on="1"/>
        <pt x="126" y="108" on="0"/>
        <pt x="187" y="42" on="0"/>
        <pt x="248" y="42" on="1"/>
        <pt x="312" y="42" on="0"/>
        <pt x="377" y="111" on="0"/>
        <pt x="377" y="153" on="1"/>
        <pt x="377" y="193" on="0"/>
        <pt x="312" y="249" on="0"/>
        <pt x="234" y="287" on="1"/>
        <pt x="183" y="270" on="0"/>
        <pt x="126" y="200" on="0"/>
      </contour>
    </TTGlyph>
    <TTGlyph name="eight.small" xMin="41" yMin="-12" xMax="401" yMax="470">
      <contour>
        <pt x="193" y="-12" on="1"/>
        <pt x="121" y="-12" on="0"/>
        <pt x="41" y="55" on="0"/>
        <pt x="41" y="104" on="1"/>
        <pt x="41" y="148" on="0"/>
        <pt x="105" y="213" on="0"/>
        <pt x="160" y="224" on="1"/>
        <pt x="138" y="238" on="0"/>
        <pt x="98" y="286" on="0"/>
        <pt x="98" y="326" on="1"/>
        <pt x="98" y="352" on="0"/>
        <pt x="120" y="403" on="0"/>
        <pt x="161" y="444" on="0"/>
        <pt x="222" y="470" on="0"/>
        <pt x="261" y="470" on="1"/>
        <pt x="327" y="470" on="0"/>
        <pt x="401" y="402" on="0"/>
        <pt x="401" y="358" on="1"/>
        <pt x="401" y="316" on="0"/>
        <pt x="343" y="255" on="0"/>
        <pt x="293" y="243" on="1"/>
        <pt x="321" y="227" on="0"/>
        <pt x="364" y="177" on="0"/>
        <pt x="364" y="134" on="1"/>
        <pt x="364" y="106" on="0"/>
        <pt x="341" y="53" on="0"/>
        <pt x="298" y="12" on="0"/>
        <pt x="234" y="-12" on="0"/>
      </contour>
      <contour>
        <pt x="182" y="354" on="1"/>
        <pt x="182" y="320" on="0"/>
        <pt x="227" y="280" on="0"/>
        <pt x="266" y="261" on="1"/>
        <pt x="299" y="277" on="0"/>
        <pt x="330" y="330" on="0"/>
        <pt x="330" y="357" on="1"/>
        <pt x="331" y="385" on="0"/>
        <pt x="296" y="425" on="0"/>
        <pt x="260" y="425" on="1"/>
        <pt x="223" y="425" on="0"/>
        <pt x="182" y="381" on="0"/>
      </contour>
      <contour>
        <pt x="115" y="110" on="1"/>
        <pt x="115" y="79" on="0"/>
        <pt x="155" y="34" on="0"/>
        <pt x="196" y="34" on="1"/>
        <pt x="236" y="34" on="0"/>
        <pt x="280" y="79" on="0"/>
        <pt x="280" y="109" on="1"/>
        <pt x="280" y="142" on="0"/>
        <pt x="231" y="184" on="0"/>
        <pt x="188" y="206" on="1"/>
        <pt x="154" y="192" on="0"/>
        <pt x="115" y="141" on="0"/>
      </contour>
    </TTGlyph>
    <TTGlyph name="eight.sup" xMin="102" yMin="233" xMax="462" yMax="715">
      <component glyphName="eight.small" x="61" y="245" flags="0x4"/>
    </TTGlyph>
    <TTGlyph name="eight.tab" xMin="45" yMin="-16" xMax="530" yMax="650">
      <contour>
        <pt x="249" y="-16" on="1"/>
        <pt x="201" y="-16" on="0"/>
        <pt x="125" y="10" on="0"/>
        <pt x="73" y="55" on="0"/>
        <pt x="45" y="115" on="0"/>
        <pt x="45" y="149" on="1"/>
        <pt x="45" y="207" on="0"/>
        <pt x="128" y="298" on="0"/>
        <pt x="204" y="317" on="1"/>
        <pt x="173" y="339" on="0"/>
        <pt x="128" y="405" on="0"/>
        <pt x="128" y="455" on="1"/>
        <pt x="128" y="488" on="0"/>
        <pt x="155" y="557" on="0"/>
        <pt x="209" y="614" on="0"/>
        <pt x="291" y="650" on="0"/>
        <pt x="345" y="650" on="1"/>
        <pt x="430" y="650" on="0"/>
        <pt x="530" y="559" on="0"/>
        <pt x="530" y="495" on="1"/>
        <pt x="530" y="443" on="0"/>
        <pt x="461" y="354" on="0"/>
        <pt x="390" y="333" on="1"/>
        <pt x="426" y="310" on="0"/>
        <pt x="479" y="240" on="0"/>
        <pt x="479" y="185" on="1"/>
        <pt x="479" y="147" on="0"/>
        <pt x="449" y="75" on="0"/>
        <pt x="390" y="19" on="0"/>
        <pt x="304" y="-16" on="0"/>
      </contour>
      <contour>
        <pt x="222" y="489" on="1"/>
        <pt x="222" y="444" on="0"/>
        <pt x="281" y="390" on="0"/>
        <pt x="348" y="356" on="1"/>
        <pt x="399" y="378" on="0"/>
        <pt x="447" y="455" on="0"/>
        <pt x="447" y="496" on="1"/>
        <pt x="447" y="538" on="0"/>
        <pt x="393" y="593" on="0"/>
        <pt x="341" y="593" on="1"/>
        <pt x="284" y="593" on="0"/>
        <pt x="222" y="527" on="0"/>
      </contour>
      <contour>
        <pt x="136" y="155" on="1"/>
        <pt x="136" y="109" on="0"/>
        <pt x="196" y="42" on="0"/>
        <pt x="257" y="42" on="1"/>
        <pt x="321" y="42" on="0"/>
        <pt x="384" y="112" on="0"/>
        <pt x="384" y="155" on="1"/>
        <pt x="384" y="195" on="0"/>
        <pt x="325" y="252" on="0"/>
        <pt x="246" y="292" on="1"/>
        <pt x="196" y="275" on="0"/>
        <pt x="136" y="202" on="0"/>
      </contour>
    </TTGlyph>
    <TTGlyph name="ellipsis" xMin="15" yMin="-16" xMax="581" yMax="118">
      <component glyphName="period" x="0" y="0" flags="0x4"/>
      <component glyphName="period" x="221" y="0" flags="0x4"/>
      <component glyphName="period" x="442" y="0" flags="0x4"/>
    </TTGlyph>
    <TTGlyph name="emacron" xMin="31" yMin="-9" xMax="464" yMax="625">
      <component glyphName="e" x="0" y="0" flags="0x204"/>
      <component glyphName="macron" x="72" y="0" flags="0x4"/>
    </TTGlyph>
    <TTGlyph name="emdash" xMin="52" yMin="212" xMax="749" yMax="281">
      <contour>
        <pt x="52" y="212" on="1"/>
        <pt x="69" y="281" on="1"/>
        <pt x="749" y="281" on="1"/>
        <pt x="732" y="212" on="1"/>
      </contour>
    </TTGlyph>
    <TTGlyph name="endash" xMin="52" yMin="212" xMax="499" yMax="281">
      <contour>
        <pt x="52" y="212" on="1"/>
        <pt x="69" y="281" on="1"/>
        <pt x="499" y="281" on="1"/>
        <pt x="482" y="212" on="1"/>
      </contour>
    </TTGlyph>
    <TTGlyph name="endash.tab" xMin="69" yMin="283" xMax="516" yMax="352">
      <contour>
        <pt x="69" y="283" on="1"/>
        <pt x="86" y="352" on="1"/>
        <pt x="516" y="352" on="1"/>
        <pt x="499" y="283" on="1"/>
      </contour>
    </TTGlyph>
    <TTGlyph name="eogonek" xMin="31" yMin="-243" xMax="432" yMax="466">
      <contour>
        <pt x="190" y="-243" on="1"/>
        <pt x="144" y="-243" on="0"/>
        <pt x="86" y="-197" on="0"/>
        <pt x="86" y="-157" on="1"/>
        <pt x="86" y="-123" on="0"/>
        <pt x="136" y="-58" on="0"/>
        <pt x="208" y="-9" on="1"/>
        <pt x="203" y="-9" on="0"/>
        <pt x="195" y="-9" on="0"/>
        <pt x="191" y="-9" on="1"/>
        <pt x="122" y="-9" on="0"/>
        <pt x="31" y="89" on="0"/>
        <pt x="31" y="169" on="1"/>
        <pt x="31" y="226" on="0"/>
        <pt x="78" y="333" on="0"/>
        <pt x="156" y="416" on="0"/>
        <pt x="259" y="466" on="0"/>
        <pt x="313" y="466" on="1"/>
        <pt x="370" y="466" on="0"/>
        <pt x="432" y="412" on="0"/>
        <pt x="432" y="369" on="1"/>
        <pt x="432" y="304" on="0"/>
        <pt x="285" y="198" on="0"/>
        <pt x="131" y="185" on="1"/>
        <pt x="130" y="176" on="0"/>
        <pt x="128" y="159" on="0"/>
        <pt x="128" y="152" on="1"/>
        <pt x="128" y="94" on="0"/>
        <pt x="182" y="47" on="0"/>
        <pt x="220" y="47" on="1"/>
        <pt x="259" y="47" on="0"/>
        <pt x="334" y="102" on="0"/>
        <pt x="363" y="147" on="1"/>
        <pt x="404" y="123" on="1"/>
        <pt x="384" y="92" on="0"/>
        <pt x="350" y="53" on="0"/>
        <pt x="322" y="30" on="1"/>
        <pt x="283" y="-1" on="1"/>
        <pt x="244" y="-32" on="0"/>
        <pt x="196" y="-77" on="0"/>
        <pt x="170" y="-110" on="0"/>
        <pt x="162" y="-134" on="0"/>
        <pt x="162" y="-146" on="1"/>
        <pt x="162" y="-163" on="0"/>
        <pt x="186" y="-190" on="0"/>
        <pt x="214" y="-190" on="1"/>
        <pt x="229" y="-190" on="0"/>
        <pt x="261" y="-177" on="0"/>
        <pt x="274" y="-169" on="1"/>
        <pt x="294" y="-206" on="1"/>
        <pt x="272" y="-222" on="0"/>
        <pt x="219" y="-243" on="0"/>
      </contour>
      <contour>
        <pt x="297" y="416" on="1"/>
        <pt x="269" y="416" on="0"/>
        <pt x="219" y="382" on="0"/>
        <pt x="179" y="330" on="0"/>
        <pt x="149" y="263" on="0"/>
        <pt x="140" y="230" on="1"/>
        <pt x="250" y="245" on="0"/>
        <pt x="346" y="317" on="0"/>
        <pt x="346" y="367" on="1"/>
        <pt x="346" y="386" on="0"/>
        <pt x="322" y="416" on="0"/>
      </contour>
    </TTGlyph>
    <TTGlyph name="equal" xMin="44" yMin="191" xMax="524" yMax="443">
      <contour>
        <pt x="91" y="381" on="1"/>
        <pt x="107" y="443" on="1"/>
        <pt x="524" y="443" on="1"/>
        <pt x="508" y="381" on="1"/>
      </contour>
      <contour>
        <pt x="44" y="191" on="1"/>
        <pt x="60" y="253" on="1"/>
        <pt x="477" y="253" on="1"/>
        <pt x="461" y="191" on="1"/>
      </contour>
    </TTGlyph>
    <TTGlyph name="equal.osf" xMin="35" yMin="155" xMax="515" yMax="407">
      <contour>
        <pt x="82" y="345" on="1"/>
        <pt x="98" y="407" on="1"/>
        <pt x="515" y="407" on="1"/>
        <pt x="499" y="345" on="1"/>
      </contour>
      <contour>
        <pt x="35" y="155" on="1"/>
        <pt x="51" y="217" on="1"/>
        <pt x="468" y="217" on="1"/>
        <pt x="452" y="155" on="1"/>
      </contour>
    </TTGlyph>
    <TTGlyph name="equal.tab" xMin="52" yMin="191" xMax="532" yMax="443">
      <contour>
        <pt x="99" y="381" on="1"/>
        <pt x="115" y="443" on="1"/>
        <pt x="532" y="443" on="1"/>
        <pt x="516" y="381" on="1"/>
      </contour>
      <contour>
        <pt x="52" y="191" on="1"/>
        <pt x="68" y="253" on="1"/>
        <pt x="485" y="253" on="1"/>
        <pt x="469" y="191" on="1"/>
      </contour>
    </TTGlyph>
    <TTGlyph name="eth" xMin="31" yMin="-9" xMax="516" yMax="692">
      <contour>
        <pt x="208" y="-9" on="1"/>
        <pt x="128" y="-9" on="0"/>
        <pt x="31" y="97" on="0"/>
        <pt x="31" y="183" on="1"/>
        <pt x="31" y="241" on="0"/>
        <pt x="74" y="343" on="0"/>
        <pt x="143" y="418" on="0"/>
        <pt x="231" y="461" on="0"/>
        <pt x="276" y="461" on="1"/>
        <pt x="319" y="461" on="0"/>
        <pt x="374" y="427" on="0"/>
        <pt x="386" y="401" on="1"/>
        <pt x="383" y="438" on="0"/>
        <pt x="364" y="514" on="0"/>
        <pt x="346" y="556" on="1"/>
        <pt x="229" y="515" on="1"/>
        <pt x="212" y="563" on="1"/>
        <pt x="324" y="602" on="1"/>
        <pt x="315" y="619" on="0"/>
        <pt x="295" y="655" on="0"/>
        <pt x="283" y="674" on="1"/>
        <pt x="353" y="692" on="1"/>
        <pt x="364" y="676" on="0"/>
        <pt x="386" y="643" on="0"/>
        <pt x="395" y="627" on="1"/>
        <pt x="499" y="663" on="1"/>
        <pt x="516" y="615" on="1"/>
        <pt x="420" y="581" on="1"/>
        <pt x="446" y="528" on="0"/>
        <pt x="473" y="411" on="0"/>
        <pt x="473" y="339" on="1"/>
        <pt x="473" y="269" on="0"/>
        <pt x="438" y="142" on="0"/>
        <pt x="370" y="47" on="0"/>
        <pt x="271" y="-9" on="0"/>
      </contour>
      <contour>
        <pt x="208" y="41" on="1"/>
        <pt x="246" y="41" on="0"/>
        <pt x="306" y="97" on="0"/>
        <pt x="345" y="179" on="0"/>
        <pt x="366" y="273" on="0"/>
        <pt x="366" y="311" on="1"/>
        <pt x="366" y="360" on="0"/>
        <pt x="320" y="405" on="0"/>
        <pt x="280" y="405" on="1"/>
        <pt x="243" y="405" on="0"/>
        <pt x="186" y="352" on="0"/>
        <pt x="147" y="274" on="0"/>
        <pt x="128" y="181" on="0"/>
        <pt x="128" y="141" on="1"/>
        <pt x="128" y="92" on="0"/>
        <pt x="169" y="41" on="0"/>
      </contour>
    </TTGlyph>
    <TTGlyph name="exclam" xMin="35" yMin="-16" xMax="300" yMax="684">
      <contour>
        <pt x="150" y="175" on="1"/>
        <pt x="106" y="185" on="1"/>
        <pt x="119" y="253" on="0"/>
        <pt x="138" y="382" on="0"/>
        <pt x="153" y="494" on="0"/>
        <pt x="167" y="587" on="0"/>
        <pt x="175" y="618" on="1"/>
        <pt x="183" y="651" on="0"/>
        <pt x="218" y="684" on="0"/>
        <pt x="242" y="684" on="1"/>
        <pt x="268" y="684" on="0"/>
        <pt x="300" y="655" on="0"/>
        <pt x="300" y="627" on="1"/>
        <pt x="300" y="615" on="0"/>
        <pt x="293" y="586" on="0"/>
        <pt x="277" y="540" on="0"/>
        <pt x="251" y="469" on="0"/>
        <pt x="232" y="416" on="1"/>
        <pt x="210" y="356" on="0"/>
        <pt x="172" y="243" on="0"/>
      </contour>
      <contour>
        <pt x="94" y="-16" on="1"/>
        <pt x="70" y="-16" on="0"/>
        <pt x="35" y="16" on="0"/>
        <pt x="35" y="47" on="1"/>
        <pt x="35" y="69" on="0"/>
        <pt x="69" y="118" on="0"/>
        <pt x="100" y="118" on="1"/>
        <pt x="124" y="118" on="0"/>
        <pt x="159" y="86" on="0"/>
        <pt x="159" y="55" on="1"/>
        <pt x="159" y="33" on="0"/>
        <pt x="125" y="-16" on="0"/>
      </contour>
    </TTGlyph>
    <TTGlyph name="exclamdown" xMin="34" yMin="-16" xMax="299" yMax="684">
      <contour>
        <pt x="240" y="684" on="1"/>
        <pt x="264" y="684" on="0"/>
        <pt x="299" y="652" on="0"/>
        <pt x="299" y="621" on="1"/>
        <pt x="299" y="599" on="0"/>
        <pt x="265" y="550" on="0"/>
        <pt x="234" y="550" on="1"/>
        <pt x="210" y="550" on="0"/>
        <pt x="175" y="582" on="0"/>
        <pt x="175" y="613" on="1"/>
        <pt x="175" y="635" on="0"/>
        <pt x="209" y="684" on="0"/>
      </contour>
      <contour>
        <pt x="184" y="493" on="1"/>
        <pt x="228" y="483" on="1"/>
        <pt x="215" y="415" on="0"/>
        <pt x="196" y="286" on="0"/>
        <pt x="181" y="174" on="0"/>
        <pt x="167" y="81" on="0"/>
        <pt x="159" y="50" on="1"/>
        <pt x="151" y="17" on="0"/>
        <pt x="116" y="-16" on="0"/>
        <pt x="92" y="-16" on="1"/>
        <pt x="66" y="-16" on="0"/>
        <pt x="34" y="13" on="0"/>
        <pt x="34" y="41" on="1"/>
        <pt x="34" y="53" on="0"/>
        <pt x="41" y="82" on="0"/>
        <pt x="57" y="128" on="0"/>
        <pt x="83" y="199" on="0"/>
        <pt x="102" y="252" on="1"/>
        <pt x="124" y="312" on="0"/>
        <pt x="162" y="425" on="0"/>
      </contour>
    </TTGlyph>
    <TTGlyph name="f" xMin="-108" yMin="-167" xMax="489" yMax="692">
      <contour>
        <pt x="-29" y="-167" on="1"/>
        <pt x="-70" y="-167" on="0"/>
        <pt x="-108" y="-130" on="0"/>
        <pt x="-108" y="-105" on="1"/>
        <pt x="-108" y="-80" on="0"/>
        <pt x="-73" y="-39" on="0"/>
        <pt x="-46" y="-39" on="1"/>
        <pt x="-21" y="-39" on="0"/>
        <pt x="1" y="-69" on="0"/>
        <pt x="1" y="-83" on="1"/>
        <pt x="1" y="-96" on="0"/>
        <pt x="-6" y="-118" on="0"/>
        <pt x="-12" y="-123" on="1"/>
        <pt x="0" y="-123" on="0"/>
        <pt x="20" y="-113" on="0"/>
        <pt x="37" y="-80" on="0"/>
        <pt x="56" y="-13" on="0"/>
        <pt x="68" y="44" on="1"/>
        <pt x="142" y="392" on="1"/>
        <pt x="46" y="392" on="1"/>
        <pt x="61" y="451" on="1"/>
        <pt x="154" y="451" on="1"/>
        <pt x="180" y="569" on="0"/>
        <pt x="303" y="692" on="0"/>
        <pt x="381" y="692" on="1"/>
        <pt x="439" y="692" on="0"/>
        <pt x="489" y="638" on="0"/>
        <pt x="489" y="609" on="1"/>
        <pt x="489" y="575" on="0"/>
        <pt x="449" y="524" on="0"/>
        <pt x="421" y="524" on="1"/>
        <pt x="399" y="524" on="0"/>
        <pt x="372" y="550" on="0"/>
        <pt x="372" y="574" on="1"/>
        <pt x="372" y="588" on="0"/>
        <pt x="386" y="625" on="0"/>
        <pt x="400" y="637" on="1"/>
        <pt x="396" y="640" on="0"/>
        <pt x="381" y="644" on="0"/>
        <pt x="373" y="644" on="1"/>
        <pt x="319" y="644" on="0"/>
        <pt x="269" y="558" on="0"/>
        <pt x="252" y="475" on="1"/>
        <pt x="247" y="451" on="1"/>
        <pt x="377" y="451" on="1"/>
        <pt x="361" y="392" on="1"/>
        <pt x="235" y="392" on="1"/>
        <pt x="167" y="72" on="1"/>
        <pt x="153" y="4" on="0"/>
        <pt x="108" y="-89" on="0"/>
        <pt x="55" y="-144" on="0"/>
        <pt x="-2" y="-167" on="0"/>
      </contour>
    </TTGlyph>
    <TTGlyph name="f_b" xMin="-108" yMin="-167" xMax="751" yMax="692">
      <contour>
        <pt x="-29" y="-167" on="1"/>
        <pt x="-70" y="-167" on="0"/>
        <pt x="-108" y="-130" on="0"/>
        <pt x="-108" y="-105" on="1"/>
        <pt x="-108" y="-80" on="0"/>
        <pt x="-73" y="-39" on="0"/>
        <pt x="-46" y="-39" on="1"/>
        <pt x="-21" y="-39" on="0"/>
        <pt x="1" y="-69" on="0"/>
        <pt x="1" y="-83" on="1"/>
        <pt x="1" y="-96" on="0"/>
        <pt x="-6" y="-118" on="0"/>
        <pt x="-12" y="-123" on="1"/>
        <pt x="0" y="-123" on="0"/>
        <pt x="20" y="-113" on="0"/>
        <pt x="37" y="-80" on="0"/>
        <pt x="56" y="-13" on="0"/>
        <pt x="68" y="44" on="1"/>
        <pt x="142" y="392" on="1"/>
        <pt x="46" y="392" on="1"/>
        <pt x="61" y="451" on="1"/>
        <pt x="154" y="451" on="1"/>
        <pt x="164" y="497" on="0"/>
        <pt x="203" y="584" on="0"/>
        <pt x="261" y="651" on="0"/>
        <pt x="339" y="692" on="0"/>
        <pt x="386" y="692" on="1"/>
        <pt x="409" y="692" on="0"/>
        <pt x="446" y="683" on="0"/>
        <pt x="460" y="676" on="1"/>
        <pt x="567" y="692" on="1"/>
        <pt x="470" y="360" on="1"/>
        <pt x="477" y="357" on="1"/>
        <pt x="505" y="408" on="0"/>
        <pt x="585" y="466" on="0"/>
        <pt x="625" y="466" on="1"/>
        <pt x="685" y="466" on="0"/>
        <pt x="751" y="371" on="0"/>
        <pt x="751" y="305" on="1"/>
        <pt x="751" y="237" on="0"/>
        <pt x="702" y="121" on="0"/>
        <pt x="625" y="38" on="0"/>
        <pt x="529" y="-9" on="0"/>
        <pt x="483" y="-9" on="1"/>
        <pt x="407" y="-9" on="0"/>
        <pt x="336" y="75" on="0"/>
        <pt x="336" y="138" on="1"/>
        <pt x="336" y="167" on="0"/>
        <pt x="354" y="251" on="0"/>
        <pt x="364" y="288" on="1"/>
        <pt x="393" y="392" on="1"/>
        <pt x="234" y="392" on="1"/>
        <pt x="167" y="72" on="1"/>
        <pt x="152" y="4" on="0"/>
        <pt x="108" y="-89" on="0"/>
        <pt x="55" y="-144" on="0"/>
        <pt x="-2" y="-167" on="0"/>
      </contour>
      <contour>
        <pt x="252" y="477" on="1"/>
        <pt x="247" y="451" on="1"/>
        <pt x="409" y="451" on="1"/>
        <pt x="430" y="525" on="1"/>
        <pt x="413" y="529" on="0"/>
        <pt x="392" y="554" on="0"/>
        <pt x="392" y="574" on="1"/>
        <pt x="392" y="588" on="0"/>
        <pt x="405" y="620" on="0"/>
        <pt x="416" y="632" on="1"/>
        <pt x="412" y="636" on="0"/>
        <pt x="390" y="644" on="0"/>
        <pt x="377" y="644" on="1"/>
        <pt x="326" y="644" on="0"/>
        <pt x="270" y="561" on="0"/>
      </contour>
      <contour>
        <pt x="501" y="50" on="1"/>
        <pt x="538" y="50" on="0"/>
        <pt x="595" y="108" on="0"/>
        <pt x="633" y="189" on="0"/>
        <pt x="653" y="277" on="0"/>
        <pt x="653" y="306" on="1"/>
        <pt x="653" y="349" on="0"/>
        <pt x="626" y="398" on="0"/>
        <pt x="595" y="398" on="1"/>
        <pt x="563" y="398" on="0"/>
        <pt x="504" y="345" on="0"/>
        <pt x="459" y="268" on="0"/>
        <pt x="432" y="180" on="0"/>
        <pt x="432" y="145" on="1"/>
        <pt x="432" y="96" on="0"/>
        <pt x="466" y="50" on="0"/>
      </contour>
    </TTGlyph>
</ttFont>
